<?xml version="1.0" standalone="no"?>
<!DOCTYPE svg PUBLIC "-//W3C//DTD SVG 1.1//EN" "http://www.w3.org/Graphics/SVG/1.1/DTD/svg11.dtd" >
<svg>
<metadata>
Created by FontForge 20090622 at Mon Mar 27 15:31:36 2017
 By deploy user
Copyright (c) Mark Simonson, 2005. All rights reserved.
</metadata>
<defs>
<font id="ProximaNovaCond-Thin" horiz-adv-x="459" >
  <font-face 
    font-family="Proxima Nova Cn Th"
    font-weight="250"
    font-stretch="normal"
    units-per-em="1000"
    panose-1="2 0 5 6 3 0 0 2 0 4"
    ascent="790"
    descent="-210"
    x-height="483"
    cap-height="667"
    bbox="-136 -258 898 891"
    underline-thickness="20"
    underline-position="-113"
    unicode-range="U+000D-U+FB04"
  />
<missing-glyph horiz-adv-x="511" 
d="M431 -90h-351v842h351v-842zM399 -60v782h-288v-782h288z" />
    <glyph glyph-name="f_f_j" unicode="ffj" horiz-adv-x="629" 
d="M343 0h-30v456h-65v27h65v79q0 53 26.5 84t71.5 31q27 0 47 -13l-14 -24q-15 10 -33 10q-33 0 -50.5 -23t-17.5 -65v-79h84v-27h-84v-456zM539 566q-11 0 -20 8.5t-9 20.5t9 20.5t20 8.5q12 0 20.5 -8.5t8.5 -20.5t-8.5 -20.5t-20.5 -8.5zM462 -196q-47 0 -75 38l23 19
q21 -30 52 -30q62 0 62 83v569h30v-569q0 -110 -92 -110zM119 0h-30v456h-65v27h65v79q0 53 27 84t73 31q41 0 69 -28l-19 -24q-21 25 -50 25q-70 0 -70 -88v-79h84v-27h-84v-456z" />
    <glyph glyph-name="f_j" unicode="fj" horiz-adv-x="405" 
d="M119 0h-30v456h-65v27h65v79q0 53 26.5 84t71.5 31q27 0 47 -13l-14 -24q-15 10 -33 10q-33 0 -50.5 -23t-17.5 -65v-79h84v-27h-84v-456zM315 566q-11 0 -20 8.5t-9 20.5t9 20.5t20 8.5q12 0 20.5 -8.5t8.5 -20.5t-8.5 -20.5t-20.5 -8.5zM238 -196q-47 0 -75 38l23 19
q21 -30 52 -30q62 0 62 83v569h30v-569q0 -110 -92 -110z" />
    <glyph glyph-name="f_f" unicode="ff" horiz-adv-x="448" 
d="M119 0h-30v456h-65v27h65v79q0 53 27 84t73 31q41 0 69 -28l-19 -24q-21 25 -50 25q-70 0 -70 -88v-79h84v-27h-84v-456zM343 0h-30v456h-65v27h65v79q0 53 27 84t73 31q41 0 69 -28l-19 -24q-21 25 -50 25q-70 0 -70 -88v-79h84v-27h-84v-456z" />
    <glyph glyph-name="fi" unicode="fi" horiz-adv-x="405" 
d="M119 0h-30v456h-65v27h65v79q0 53 26.5 84t71.5 31q27 0 47 -13l-14 -24q-15 10 -33 10q-33 0 -50.5 -23t-17.5 -65v-79h84v-27h-84v-456zM315 566q-11 0 -20 8.5t-9 20.5t9 20.5t20 8.5q12 0 20.5 -8.5t8.5 -20.5t-8.5 -20.5t-20.5 -8.5zM330 0h-30v483h30v-483z" />
    <glyph glyph-name="fl" unicode="fl" horiz-adv-x="405" 
d="M119 0h-30v456h-65v27h65v79q0 53 26.5 84t71.5 31q27 0 47 -13l-14 -24q-15 10 -33 10q-33 0 -50.5 -23t-17.5 -65v-79h84v-27h-84v-456zM330 0h-30v667h30v-667z" />
    <glyph glyph-name="f_f_i" unicode="ffi" horiz-adv-x="629" 
d="M343 0h-30v456h-65v27h65v79q0 53 26.5 84t71.5 31q27 0 47 -13l-14 -24q-15 10 -33 10q-33 0 -50.5 -23t-17.5 -65v-79h84v-27h-84v-456zM539 566q-11 0 -20 8.5t-9 20.5t9 20.5t20 8.5q12 0 20.5 -8.5t8.5 -20.5t-8.5 -20.5t-20.5 -8.5zM554 0h-30v483h30v-483zM119 0
h-30v456h-65v27h65v79q0 53 27 84t73 31q41 0 69 -28l-19 -24q-21 25 -50 25q-70 0 -70 -88v-79h84v-27h-84v-456z" />
    <glyph glyph-name="f_f_l" unicode="ffl" horiz-adv-x="629" 
d="M343 0h-30v456h-65v27h65v79q0 53 26.5 84t71.5 31q27 0 47 -13l-14 -24q-15 10 -33 10q-33 0 -50.5 -23t-17.5 -65v-79h84v-27h-84v-456zM554 0h-30v667h30v-667zM119 0h-30v456h-65v27h65v79q0 53 27 84t73 31q41 0 69 -28l-19 -24q-21 25 -50 25q-70 0 -70 -88v-79h84
v-27h-84v-456z" />
    <glyph glyph-name="f_b" unicode="fb" horiz-adv-x="683" 
d="M119 0h-30v456h-65v27h65v79q0 53 26.5 84t71.5 31q27 0 47 -13l-14 -24q-15 10 -33 10q-33 0 -50.5 -23t-17.5 -65v-79h84v-27h-84v-456zM330 113q17 -40 53.5 -69t77.5 -29q67 0 101 64t34 162t-34 162.5t-101 64.5q-41 0 -77.5 -29.5t-53.5 -70.5v-255zM330 0h-30v667
h30v-261q21 42 56 65.5t75 23.5q80 0 124 -70t44 -184q0 -113 -44 -183t-124 -70q-40 0 -75.5 24.5t-55.5 63.5v-76z" />
    <glyph glyph-name="f_h" unicode="fh" horiz-adv-x="659" 
d="M119 0h-30v456h-65v27h65v79q0 53 26.5 84t71.5 31q27 0 47 -13l-14 -24q-15 10 -33 10q-33 0 -50.5 -23t-17.5 -65v-79h84v-27h-84v-456zM584 0h-30v367q0 101 -89 101q-39 0 -76.5 -27t-58.5 -65v-376h-30v667h30v-258q23 36 61.5 61t77.5 25q58 0 86.5 -30t28.5 -98
v-367z" />
    <glyph glyph-name="f_k" unicode="fk" horiz-adv-x="635" 
d="M119 0h-30v456h-65v27h65v79q0 53 26.5 84t71.5 31q27 0 47 -13l-14 -24q-15 10 -33 10q-33 0 -50.5 -23t-17.5 -65v-79h84v-27h-84v-456zM610 0h-37l-160 243l-83 -101v-142h-30v667h30v-483l247 299h37l-182 -218z" />
    <glyph glyph-name=".notdef" horiz-adv-x="511" 
d="M431 -90h-351v842h351v-842zM399 -60v782h-288v-782h288z" />
    <glyph glyph-name=".null" horiz-adv-x="0" 
 />
    <glyph glyph-name=".null" horiz-adv-x="0" 
 />
    <glyph glyph-name="nonmarkingreturn" horiz-adv-x="333" 
 />
    <glyph glyph-name="CR" unicode="&#xd;" horiz-adv-x="0" 
 />
    <glyph glyph-name="space" unicode=" " horiz-adv-x="220" 
 />
    <glyph glyph-name="exclam" unicode="!" horiz-adv-x="208" 
d="M114 161h-20l-11 506h42zM104 -9q-14 0 -23.5 9.5t-9.5 23.5q0 13 10 22.5t23 9.5t23 -9.5t10 -22.5q0 -14 -9.5 -23.5t-23.5 -9.5z" />
    <glyph glyph-name="quotedbl" unicode="&#x22;" horiz-adv-x="290" 
d="M99 443h-22q-15 197 -15 208t8 18.5t18 7.5q11 0 18.5 -7.5t7.5 -18.5zM213 443h-22q-15 197 -15 208t7.5 18.5t18.5 7.5t18.5 -7.5t7.5 -18.5z" />
    <glyph glyph-name="numbersign" unicode="#" horiz-adv-x="481" 
d="M229 0h-33l56 191h-102l-54 -191h-33l55 191h-96l8 29h96l65 227h-97l6 29h99l53 191h33l-53 -191h100l54 191h32l-54 -191h95l-6 -29h-97l-65 -227h99l-7 -29h-100zM258 220l66 227h-101l-64 -227h99z" />
    <glyph glyph-name="dollar" unicode="$" horiz-adv-x="440" 
d="M213 -100v88q-111 1 -173 82l25 24q24 -33 63 -54t85 -22v319q-38 20 -58 32t-46 34.5t-37.5 51t-11.5 65.5q0 68 44 110t109 47v91h32v-91q87 -6 138 -66l-22 -24q-44 54 -116 60v-289q35 -19 57 -34t46.5 -39t36.5 -55.5t12 -71.5q0 -63 -38 -111.5t-114 -56.5v-90h-32
zM364 158q0 59 -31 94.5t-88 67.5v-300q59 8 89 47t30 91zM93 520q0 -50 30.5 -81.5t89.5 -63.5v272q-52 -5 -86 -39.5t-34 -87.5z" />
    <glyph glyph-name="percent" unicode="%" horiz-adv-x="632" 
d="M169 351q-59 0 -96 46t-37 116q0 71 37 117.5t96 46.5t96 -46.5t37 -117.5t-37 -116.5t-96 -45.5zM161 0h-34l348 667h35zM463 -12q-59 0 -96 46t-37 116q0 71 37 117.5t96 46.5t96 -46.5t37 -117.5q0 -70 -37 -116t-96 -46zM169 378q45 0 72.5 39.5t27.5 95.5
q0 57 -27.5 97t-72.5 40t-72.5 -40t-27.5 -97q0 -56 28 -95.5t72 -39.5zM463 15q45 0 72.5 39.5t27.5 95.5q0 57 -27.5 97t-72.5 40t-72.5 -40t-27.5 -97q0 -56 27.5 -95.5t72.5 -39.5z" />
    <glyph glyph-name="ampersand" unicode="&#x26;" horiz-adv-x="498" 
d="M468 0h-46l-69 86q-64 -98 -154 -98q-66 0 -109 46t-43 126q0 71 31 117.5t87 90.5q-47 92 -47 154q0 69 32.5 112t84.5 43q45 0 73.5 -32.5t28.5 -87.5q0 -33 -9 -60t-30.5 -51.5t-35.5 -37.5t-47 -38q-7 -5 -10 -8q30 -58 69 -114q36 -55 73 -103q37 73 59 168l31 -11
q-31 -117 -67 -186zM198 18q74 0 133 96q-58 76 -81 112q-45 66 -71 115q-46 -38 -71.5 -79.5t-25.5 -101.5q0 -68 33.5 -105t82.5 -37zM153 522q0 -54 38 -133q38 29 57.5 47t37.5 50.5t18 70.5q0 44 -19.5 67t-49.5 23q-37 0 -59.5 -32.5t-22.5 -92.5z" />
    <glyph glyph-name="quotesingle" unicode="'" horiz-adv-x="176" 
d="M99 443h-22q-15 197 -15 208t8 18.5t18 7.5q11 0 18.5 -7.5t7.5 -18.5z" />
    <glyph glyph-name="parenleft" unicode="(" horiz-adv-x="187" 
d="M170 -190l-17 -9q-106 206 -106 442t106 442l17 -8q-44 -111 -66 -209.5t-22 -224.5q0 -125 22 -224t66 -209z" />
    <glyph glyph-name="parenright" unicode=")" horiz-adv-x="187" 
d="M34 -199l-17 9q44 110 66 209t22 224q0 126 -22 224.5t-66 209.5l17 8q106 -206 106 -442t-106 -442z" />
    <glyph glyph-name="asterisk" unicode="*" horiz-adv-x="309" 
d="M170 409h-30l6 119l-100 -65l-15 26l106 54l-106 54l15 26l100 -65l-6 119h30l-6 -119l100 65l15 -26l-106 -54l106 -54l-15 -26l-100 65z" />
    <glyph glyph-name="plus" unicode="+" horiz-adv-x="434" 
d="M405 322h-172v-192h-32v192h-172v30h172v186h32v-186h172v-30z" />
    <glyph glyph-name="comma" unicode="," horiz-adv-x="208" 
d="M142 3q0 -36 -18 -69.5t-44 -51.5l-22 18q24 18 38.5 43.5t14.5 48.5q-6 -1 -8 -1q-14 0 -23 9.5t-9 23.5q0 13 9 22.5t23 9.5q16 0 27.5 -14t11.5 -39z" />
    <glyph glyph-name="hyphen" unicode="-" horiz-adv-x="265" 
d="M235 227h-205v30h205v-30z" />
    <glyph glyph-name="period" unicode="." horiz-adv-x="208" 
d="M104 -9q-14 0 -23.5 9.5t-9.5 23.5q0 13 10 22.5t23 9.5t23 -9.5t10 -22.5q0 -14 -9.5 -23.5t-23.5 -9.5z" />
    <glyph glyph-name="slash" unicode="/" horiz-adv-x="223" 
d="M31 -20h-31l192 707h31z" />
    <glyph glyph-name="zero" unicode="0" horiz-adv-x="491" 
d="M246 -12q-52 0 -90.5 32t-58.5 85t-29 109.5t-9 118.5t9 118.5t29 109.5t58.5 84.5t90.5 31.5t90.5 -31.5t58 -84.5t28.5 -109.5t9 -118.5t-8.5 -118t-28.5 -109.5t-58 -85.5t-91 -32zM246 18q44 0 75.5 29.5t47 79t22 100t6.5 106.5t-6.5 106.5t-22 100t-47 78.5
t-75.5 29t-75.5 -29t-47.5 -78.5t-22.5 -100t-6.5 -106.5t6.5 -106.5t22 -100t47.5 -79t76 -29.5z" />
    <glyph glyph-name="one" unicode="1" horiz-adv-x="260" 
d="M180 0h-32v621l-105 -115l-22 23l129 138h30v-667z" />
    <glyph glyph-name="two" unicode="2" horiz-adv-x="463" 
d="M388 0h-328v28l77 102l67.5 89.5l52 71t44 66t28 53.5t19.5 54t5 49q0 63 -36.5 98.5t-87.5 35.5q-95 0 -140 -91l-28 17q56 104 168 104q64 0 111 -43.5t47 -120.5q0 -20 -3 -39.5t-12 -42.5t-17 -41t-26 -47l-31 -48.5t-40.5 -56.5l-45 -60l-53.5 -70.5l-59 -77.5h288
v-30z" />
    <glyph glyph-name="three" unicode="3" horiz-adv-x="439" 
d="M208 -12q-60 0 -104.5 32.5t-67.5 81.5l30 14q48 -98 142 -98q67 0 102.5 42.5t35.5 117.5q0 80 -42 116t-103 36q-37 0 -45 -1v32q9 -1 45 -1q59 0 98 36.5t39 104.5q0 71 -36 108.5t-93 37.5q-46 0 -77.5 -23t-59.5 -67l-28 17q25 47 68.5 75t96.5 28q70 0 116.5 -45
t46.5 -129q0 -61 -34 -103t-79 -55q44 -7 82.5 -52.5t38.5 -115.5q0 -84 -44 -136.5t-128 -52.5z" />
    <glyph glyph-name="four" unicode="4" horiz-adv-x="417" 
d="M314 0h-32v195h-257v33l247 439h42v-442h78v-30h-78v-195zM282 225v399l-224 -399h224z" />
    <glyph glyph-name="five" unicode="5" horiz-adv-x="461" 
d="M236 -12q-66 0 -105 29t-67 85l29 15q46 -99 143 -99q59 0 97 53t38 127q0 88 -36 135t-95 47q-74 0 -130 -69l-27 16v340h289v-30h-257v-287q47 60 125 60q72 0 118.5 -55.5t46.5 -156.5q0 -89 -49 -149.5t-120 -60.5z" />
    <glyph glyph-name="six" unicode="6" horiz-adv-x="464" 
d="M241 -12q-52 0 -89 29t-56.5 80.5t-28 109t-8.5 126.5q0 66 9 123t29 109t59 82t93 30q97 0 143 -93l-26 -18q-20 40 -47 60.5t-70 20.5q-45 0 -77.5 -29.5t-48.5 -80t-23 -102.5t-7 -112v-27q19 43 60 76.5t92 33.5q74 0 119.5 -53.5t45.5 -156.5q0 -83 -43.5 -145.5
t-125.5 -62.5zM241 18q67 0 101 53.5t34 124.5q0 93 -35.5 136.5t-96.5 43.5q-47 0 -86.5 -37.5t-61.5 -92.5q2 -38 9.5 -73t23 -72.5t44.5 -60t68 -22.5z" />
    <glyph glyph-name="seven" unicode="7" horiz-adv-x="384" 
d="M135 0h-34l217 637h-288v30h324v-22z" />
    <glyph glyph-name="eight" unicode="8" horiz-adv-x="455" 
d="M228 -12q-78 0 -124.5 47t-46.5 125q0 65 41.5 114t95.5 70q-51 19 -89.5 63t-38.5 104q0 79 47 122.5t115 43.5q67 0 114 -43.5t47 -122.5q0 -60 -38.5 -104t-88.5 -63q53 -21 94.5 -70t41.5 -114q0 -77 -47 -124.5t-123 -47.5zM228 359q14 4 31.5 13t41.5 26t39.5 47
t15.5 66q0 62 -35.5 99t-92.5 37q-58 0 -93 -37t-35 -99q0 -36 15.5 -66t39.5 -47t41.5 -26t31.5 -13zM228 18q57 0 96.5 38.5t39.5 103.5q0 72 -50.5 118.5t-85.5 51.5q-13 -2 -34 -13.5t-45 -31t-41 -53t-17 -72.5q0 -65 39.5 -103.5t97.5 -38.5z" />
    <glyph glyph-name="nine" unicode="9" horiz-adv-x="464" 
d="M215 -11q-97 0 -143 93l26 18q40 -81 117 -81q45 0 77.5 29.5t48.5 80t23 102.5t7 112v28q-19 -43 -60 -77t-92 -34q-74 0 -119.5 53.5t-45.5 156.5q0 83 43.5 145.5t125.5 62.5q52 0 89 -29t56.5 -80t28 -109t8.5 -127q0 -66 -9 -122.5t-29 -109t-59 -82.5t-93 -30z
M220 290q47 0 86.5 38t61.5 92q-2 38 -9.5 73t-23 72.5t-44.5 60t-68 22.5q-67 0 -101 -53t-34 -125q0 -93 35.5 -136.5t96.5 -43.5z" />
    <glyph glyph-name="colon" unicode=":" horiz-adv-x="208" 
d="M104 425q-13 0 -23 9.5t-10 22.5t9.5 23t23.5 10t23.5 -10t9.5 -23t-10 -22.5t-23 -9.5zM104 -9q-14 0 -23.5 9.5t-9.5 23.5q0 13 10 22.5t23 9.5t23 -9.5t10 -22.5q0 -14 -9.5 -23.5t-23.5 -9.5z" />
    <glyph glyph-name="semicolon" unicode=";" horiz-adv-x="208" 
d="M104 425q-13 0 -23 9.5t-10 22.5t9.5 23t23.5 10t23.5 -10t9.5 -23t-10 -22.5t-23 -9.5zM142 3q0 -36 -18 -69.5t-44 -51.5l-22 18q24 18 38.5 43.5t14.5 48.5q-6 -1 -8 -1q-14 0 -23 9.5t-9 23.5q0 13 9 22.5t23 9.5q16 0 27.5 -14t11.5 -39z" />
    <glyph glyph-name="less" unicode="&#x3c;" horiz-adv-x="434" 
d="M405 128l-376 196v21l376 197v-36l-335 -172l335 -170v-36z" />
    <glyph glyph-name="equal" unicode="=" horiz-adv-x="434" 
d="M405 418h-376v30h376v-30zM405 220h-376v30h376v-30z" />
    <glyph glyph-name="greater" unicode="&#x3e;" horiz-adv-x="434" 
d="M405 324l-376 -196v36l335 170l-335 172v36l376 -197v-21z" />
    <glyph glyph-name="question" unicode="?" horiz-adv-x="385" 
d="M187 169q-36 33 -36 78q0 36 17 66t41 52l48 44t41 53.5t17 69.5q0 46 -33 81t-89 35q-46 0 -76.5 -16.5t-58.5 -50.5l-21 23q56 74 156 74q68 0 111.5 -43t43.5 -103q0 -41 -17 -75.5t-41.5 -58l-49 -45.5t-41.5 -48.5t-17 -57.5q0 -34 28 -57zM189 -9q-13 0 -23 9.5
t-10 23.5q0 13 10 22.5t23 9.5t23 -9.5t10 -22.5q0 -14 -10 -23.5t-23 -9.5z" />
    <glyph glyph-name="at" unicode="@" horiz-adv-x="676" 
d="M304 -70q-116 0 -192.5 84t-76.5 216q0 162 107.5 285.5t247.5 123.5q112 0 181.5 -79.5t69.5 -207.5q0 -118 -43 -192.5t-99 -74.5q-35 0 -55 23t-20 57v6q-58 -86 -137 -86q-52 0 -86 36t-34 103q0 107 63 191.5t147 84.5q38 0 64 -23t37 -59l13 64h30l-63 -296
q-2 -12 -2 -20q0 -54 42 -54q15 0 33.5 14t37 41t31 76t12.5 109q0 116 -62 186.5t-161 70.5q-85 0 -160 -54.5t-118.5 -142t-43.5 -181.5q0 -121 68 -196.5t173 -75.5q83 0 158 57l15 -23q-82 -63 -177 -63zM287 112q77 0 146 103l37 170q-9 36 -32 62t-61 26
q-74 0 -125.5 -80t-51.5 -169q0 -51 22.5 -81.5t64.5 -30.5z" />
    <glyph glyph-name="A" unicode="A" horiz-adv-x="474" 
d="M458 0h-35l-53 179h-265l-53 -179h-35l201 667h38zM361 209l-124 416l-124 -416h248z" />
    <glyph glyph-name="B" unicode="B" horiz-adv-x="480" 
d="M258 0h-178v667h174q71 0 113.5 -44.5t42.5 -125.5q0 -60 -27.5 -99.5t-70.5 -53.5q46 -7 77.5 -56t31.5 -108q0 -86 -42.5 -133t-120.5 -47zM254 358q61 0 91 38.5t30 100.5q0 61 -30.5 100.5t-90.5 39.5h-142v-279h142zM258 30q63 0 95.5 39.5t32.5 109.5
q0 62 -32.5 105.5t-95.5 43.5h-146v-298h146z" />
    <glyph glyph-name="C" unicode="C" horiz-adv-x="512" 
d="M298 -12q-108 0 -173.5 97.5t-65.5 247.5q0 151 65.5 248t173.5 97q107 0 173 -104l-28 -17q-52 91 -145 91q-91 0 -147.5 -88.5t-56.5 -226.5q0 -137 56.5 -226t147.5 -89q94 0 147 101l28 -16q-66 -115 -175 -115z" />
    <glyph glyph-name="D" unicode="D" horiz-adv-x="535" 
d="M226 0h-146v667h146q118 0 184 -94.5t66 -239.5q0 -146 -66 -239.5t-184 -93.5zM226 30q104 0 159.5 85t55.5 218q0 132 -55.5 218t-159.5 86h-114v-607h114z" />
    <glyph glyph-name="E" unicode="E" horiz-adv-x="444" 
d="M389 0h-309v667h309v-30h-277v-279h270v-30h-270v-298h277v-30z" />
    <glyph glyph-name="F" unicode="F" horiz-adv-x="432" 
d="M112 0h-32v667h309v-30h-277v-279h270v-30h-270v-328z" />
    <glyph glyph-name="G" unicode="G" horiz-adv-x="542" 
d="M298 -13q-107 0 -173 96t-66 250t66 249.5t173 95.5q108 0 179 -103l-26 -17q-56 90 -153 90q-92 0 -148 -89t-56 -226q0 -136 56.5 -225.5t147.5 -89.5q93 0 147 70v202h-188v30h220v-242q-67 -91 -179 -91z" />
    <glyph glyph-name="H" unicode="H" horiz-adv-x="545" 
d="M465 0h-32v328h-321v-328h-32v667h32v-309h321v309h32v-667z" />
    <glyph glyph-name="I" unicode="I" horiz-adv-x="192" 
d="M112 0h-32v667h32v-667z" />
    <glyph glyph-name="J" unicode="J" horiz-adv-x="382" 
d="M147 -12q-83 0 -136 71l26 23q44 -64 110 -64q58 0 90.5 35.5t32.5 99.5v514h32v-514q0 -81 -43 -123t-112 -42z" />
    <glyph glyph-name="K" unicode="K" horiz-adv-x="472" 
d="M447 0h-41l-230 324l-64 -88v-236h-32v667h32v-382l273 382h41l-232 -319z" />
    <glyph glyph-name="L" unicode="L" horiz-adv-x="403" 
d="M369 0h-289v667h32v-637h257v-30z" />
    <glyph glyph-name="M" unicode="M" horiz-adv-x="639" 
d="M559 0h-32v619l-200 -619h-14l-201 619v-619h-32v667h52l188 -577l188 577h51v-667z" />
    <glyph glyph-name="N" unicode="N" horiz-adv-x="543" 
d="M463 0h-32l-319 595v-595h-32v667h32l319 -589v589h32v-667z" />
    <glyph glyph-name="O" unicode="O" horiz-adv-x="580" 
d="M290 -12q-110 0 -170.5 98t-60.5 247t60.5 247t170.5 98t170.5 -98t60.5 -247t-60.5 -247t-170.5 -98zM290 18q92 0 144 89.5t52 225.5q0 137 -52 226t-144 89t-144 -89t-52 -226q0 -136 52 -225.5t144 -89.5z" />
    <glyph glyph-name="P" unicode="P" horiz-adv-x="448" 
d="M112 0h-32v667h166q78 0 121.5 -54t43.5 -135t-43.5 -135t-121.5 -54h-134v-289zM245 319q62 0 96.5 44t34.5 115t-34.5 115t-96.5 44h-133v-318h133z" />
    <glyph glyph-name="Q" unicode="Q" horiz-adv-x="580" 
d="M290 -12q-110 0 -170.5 98t-60.5 247t60.5 247t170.5 98t170.5 -98t60.5 -247q0 -180 -82 -276l46 -69l-25 -17l-43 64q-53 -47 -127 -47zM290 18q62 0 108 44l-88 132l26 18l83 -126q67 88 67 247q0 137 -52 226t-144 89t-144 -89t-52 -226q0 -136 52 -225.5t144 -89.5z
" />
    <glyph glyph-name="R" unicode="R" horiz-adv-x="473" 
d="M419 0h-39l-151 289h-117v-289h-32v667h165q73 0 119.5 -50t46.5 -139q0 -86 -42.5 -134t-104.5 -53zM245 319q62 0 96.5 44t34.5 115t-34.5 115t-96.5 44h-133v-318h133z" />
    <glyph glyph-name="S" unicode="S" horiz-adv-x="447" 
d="M216 -12q-111 0 -176 82l25 24q25 -33 64.5 -54.5t86.5 -21.5q74 0 111 40.5t37 99.5q0 41 -17 72.5t-43.5 51.5t-59 37.5l-65 35.5t-59 38.5t-43.5 53t-17 73.5q0 72 49 115t118 43q100 0 156 -67l-22 -24q-49 61 -134 61q-56 0 -95 -35.5t-39 -92.5q0 -47 31.5 -81.5
t76 -57t89 -48t76 -69.5t31.5 -106q0 -69 -45.5 -119.5t-135.5 -50.5z" />
    <glyph glyph-name="T" unicode="T" horiz-adv-x="423" 
d="M227 0h-32v637h-167v30h367v-30h-168v-637z" />
    <glyph glyph-name="U" unicode="U" horiz-adv-x="534" 
d="M267 -12q-90 0 -138.5 55.5t-48.5 160.5v463h32v-463q0 -92 40 -139t115 -47t115 47t40 139v463h32v-463q0 -106 -48 -161t-139 -55z" />
    <glyph glyph-name="V" unicode="V" horiz-adv-x="474" 
d="M256 0h-38l-201 667h35l185 -625l186 625h35z" />
    <glyph glyph-name="W" unicode="W" horiz-adv-x="671" 
d="M502 0h-38l-128 597l-128 -597h-38l-145 667h35l129 -611l130 611h34l130 -611l129 611h35z" />
    <glyph glyph-name="X" unicode="X" horiz-adv-x="473" 
d="M457 0h-39l-181 310l-181 -310h-39l202 340l-191 327h40l169 -295l169 295h40l-191 -326z" />
    <glyph glyph-name="Y" unicode="Y" horiz-adv-x="466" 
d="M249 0h-32v289l-205 378h38l183 -342l184 342h38l-206 -378v-289z" />
    <glyph glyph-name="Z" unicode="Z" horiz-adv-x="444" 
d="M399 0h-354v31l312 606h-312v30h347v-30l-313 -607h320v-30z" />
    <glyph glyph-name="bracketleft" unicode="[" horiz-adv-x="187" 
d="M170 -190h-136v868h136v-30h-106v-808h106v-30z" />
    <glyph glyph-name="backslash" unicode="\" horiz-adv-x="223" 
d="M193 -20l-192 707h30l192 -707h-30z" />
    <glyph glyph-name="bracketright" unicode="]" horiz-adv-x="187" 
d="M153 -190h-136v30h106v808h-106v30h136v-868z" />
    <glyph glyph-name="asciicircum" unicode="^" horiz-adv-x="374" 
d="M355 333h-33l-135 305l-135 -305h-33l155 334h26z" />
    <glyph glyph-name="underscore" unicode="_" horiz-adv-x="422" 
d="M425 -70h-428v30h428v-30z" />
    <glyph glyph-name="grave" unicode="`" horiz-adv-x="162" 
d="M162 556h-27l-135 144h43z" />
    <glyph glyph-name="a" unicode="a" horiz-adv-x="428" 
d="M353 0h-30v56q-47 -68 -128 -68q-61 0 -102 44.5t-41 116.5t41 116.5t102 44.5q82 0 128 -67v105q0 58 -28 89t-79 31q-71 0 -124 -65l-20 22q61 70 144 70q137 0 137 -146v-349zM199 15q84 0 124 74v120q-40 74 -124 74q-53 0 -83.5 -38.5t-30.5 -95.5t30.5 -95.5
t83.5 -38.5z" />
    <glyph glyph-name="b" unicode="b" 
d="M106 113q17 -40 53.5 -69t77.5 -29q67 0 101 64t34 162t-34 162.5t-101 64.5q-41 0 -77.5 -29.5t-53.5 -70.5v-255zM106 0h-30v667h30v-261q21 42 56 65.5t75 23.5q80 0 124 -70t44 -184q0 -113 -44 -183t-124 -70q-40 0 -75.5 24.5t-55.5 63.5v-76z" />
    <glyph glyph-name="c" unicode="c" horiz-adv-x="394" 
d="M236 -12q-85 0 -133.5 72.5t-48.5 181.5t48.5 181t133.5 72q42 0 70 -15.5t54 -47.5l-21 -19q-41 55 -103 55q-72 0 -110.5 -65t-38.5 -161q0 -95 38.5 -161t110.5 -66q62 0 103 56l21 -20q-25 -33 -53.5 -48t-70.5 -15z" />
    <glyph glyph-name="d" unicode="d" 
d="M383 0h-30v76q-20 -39 -55.5 -63.5t-75.5 -24.5q-80 0 -124 70t-44 183q0 114 44 184t124 70q40 0 75 -23.5t56 -65.5v261h30v-667zM222 15q41 0 77.5 29t53.5 69v255q-17 41 -53.5 70.5t-77.5 29.5q-67 0 -101 -64.5t-34 -162.5t34 -162t101 -64z" />
    <glyph glyph-name="e" unicode="e" 
d="M245 -12q-89 0 -140 71t-51 183q0 109 48 181t130 72q87 0 131.5 -72t44.5 -181v-10h-321q2 -95 44 -156t114 -61q73 0 124 71l23 -17q-61 -81 -147 -81zM376 259q0 50 -14 95.5t-48 79.5t-83 34q-47 0 -80.5 -34.5t-48 -80t-15.5 -94.5h289z" />
    <glyph glyph-name="f" unicode="f" horiz-adv-x="224" 
d="M119 0h-30v456h-65v27h65v79q0 53 27 84t73 31q41 0 69 -28l-19 -24q-21 25 -50 25q-70 0 -70 -88v-79h84v-27h-84v-456z" />
    <glyph glyph-name="g" unicode="g" 
d="M220 -196q-91 0 -147 60l21 25q46 -58 126 -58q61 0 97 36.5t36 109.5v99q-20 -39 -56 -64.5t-75 -25.5q-80 0 -124 70t-44 184t44 184.5t124 70.5q40 0 75 -23.5t56 -65.5v77h30v-506q0 -89 -43.5 -131t-119.5 -42zM222 13q41 0 77.5 29.5t53.5 70.5v255
q-17 41 -53.5 70.5t-77.5 29.5q-67 0 -101 -64.5t-34 -163.5q0 -98 34 -162.5t101 -64.5z" />
    <glyph glyph-name="h" unicode="h" horiz-adv-x="435" 
d="M360 0h-30v367q0 101 -89 101q-39 0 -76.5 -27t-58.5 -65v-376h-30v667h30v-258q23 36 61.5 61t77.5 25q58 0 86.5 -30t28.5 -98v-367z" />
    <glyph glyph-name="i" unicode="i" horiz-adv-x="181" 
d="M91 566q-11 0 -20 8.5t-9 20.5t9 20.5t20 8.5q12 0 20.5 -8.5t8.5 -20.5t-8.5 -20.5t-20.5 -8.5zM106 0h-30v483h30v-483z" />
    <glyph glyph-name="j" unicode="j" horiz-adv-x="181" 
d="M91 566q-11 0 -20 8.5t-9 20.5t9 20.5t20 8.5q12 0 20.5 -8.5t8.5 -20.5t-8.5 -20.5t-20.5 -8.5zM14 -196q-47 0 -75 38l23 19q21 -30 52 -30q62 0 62 83v569h30v-569q0 -110 -92 -110z" />
    <glyph glyph-name="k" unicode="k" horiz-adv-x="411" 
d="M386 0h-37l-160 243l-83 -101v-142h-30v667h30v-483l247 299h37l-182 -218z" />
    <glyph glyph-name="l" unicode="l" horiz-adv-x="181" 
d="M106 0h-30v667h30v-667z" />
    <glyph glyph-name="m" unicode="m" horiz-adv-x="647" 
d="M572 0h-30v371q0 97 -79 97q-35 0 -70 -27t-54 -65v-376h-30v371q0 97 -79 97q-35 0 -69.5 -27t-54.5 -65v-376h-30v483h30v-74q18 33 54 59.5t75 26.5q45 0 71 -24.5t30 -63.5q20 37 56.5 62.5t75.5 25.5q104 0 104 -124v-371z" />
    <glyph glyph-name="n" unicode="n" horiz-adv-x="435" 
d="M360 0h-30v366q0 102 -89 102q-39 0 -76.5 -27t-58.5 -65v-376h-30v483h30v-74q23 36 61.5 61t77.5 25q115 0 115 -129v-366z" />
    <glyph glyph-name="o" unicode="o" horiz-adv-x="461" 
d="M231 -12q-84 0 -130.5 72.5t-46.5 181.5q0 108 46.5 180.5t130.5 72.5t130.5 -72.5t46.5 -180.5q0 -109 -46.5 -181.5t-130.5 -72.5zM231 15q71 0 107.5 66.5t36.5 160.5q0 93 -36.5 159.5t-107.5 66.5q-70 0 -107 -66.5t-37 -159.5t37 -160t107 -67z" />
    <glyph glyph-name="p" unicode="p" horiz-adv-x="457" 
d="M237 -12q-39 0 -74 24t-57 66v-262h-30v667h30v-75q20 38 55.5 62.5t75.5 24.5q80 0 124 -69.5t44 -183.5q0 -113 -44 -183.5t-124 -70.5zM237 15q67 0 101 64.5t34 162.5t-34 162t-101 64q-41 0 -77.5 -29t-53.5 -69v-255q17 -41 53.5 -70.5t77.5 -29.5z" />
    <glyph glyph-name="q" unicode="q" horiz-adv-x="457" 
d="M220 15q41 0 77.5 29.5t53.5 70.5v255q-17 40 -53.5 69t-77.5 29q-67 0 -101 -64t-34 -162t34 -162.5t101 -64.5zM220 -12q-80 0 -124 70.5t-44 183.5q0 114 44 183.5t124 69.5q40 0 75.5 -24.5t55.5 -62.5v75h30v-667h-30v262q-22 -42 -57 -66t-74 -24z" />
    <glyph glyph-name="r" unicode="r" horiz-adv-x="266" 
d="M106 0h-30v483h30v-86q57 95 140 95v-36q-7 1 -19 1q-36 0 -70.5 -29t-50.5 -66v-362z" />
    <glyph glyph-name="s" unicode="s" horiz-adv-x="366" 
d="M179 -12q-89 0 -143 68l23 22q46 -63 120 -63q49 0 80 28t31 73q0 39 -25 65.5t-60.5 43l-71 33.5t-60.5 47t-25 74q0 50 37.5 83t97.5 33q84 0 129 -62l-21 -20q-36 55 -108 55q-48 0 -76.5 -25.5t-28.5 -63.5q0 -36 25 -61t60.5 -40.5t71 -33t60.5 -50t25 -78.5
q0 -56 -38.5 -92t-102.5 -36z" />
    <glyph glyph-name="t" unicode="t" horiz-adv-x="234" 
d="M158 -12q-73 0 -73 93v375h-66v27h66v132h30v-132h84v-27h-84v-375q0 -66 43 -66q28 0 47 24l19 -21q-28 -30 -66 -30z" />
    <glyph glyph-name="u" unicode="u" horiz-adv-x="435" 
d="M360 0h-30v72q-58 -84 -139 -84q-59 0 -87 30t-28 99v366h30v-366q0 -102 89 -102q39 0 77 26t58 64v378h30v-483z" />
    <glyph glyph-name="v" unicode="v" horiz-adv-x="375" 
d="M205 0h-35l-156 483h34l140 -448l140 448h34z" />
    <glyph glyph-name="w" unicode="w" horiz-adv-x="594" 
d="M443 0h-27l-119 439l-119 -439h-27l-130 483h33l111 -436l117 436h30l117 -436l111 436h33z" />
    <glyph glyph-name="x" unicode="x" horiz-adv-x="379" 
d="M358 0h-36l-132 223l-133 -223h-36l152 247l-143 236h36l124 -211l124 211h36l-143 -236z" />
    <glyph glyph-name="y" unicode="y" horiz-adv-x="375" 
d="M39 -189l6 27q13 -7 33 -7q22 0 35 13t25 47l34 98l-158 494h34l140 -445l140 445h34l-197 -602q-26 -77 -87 -77q-23 0 -39 7z" />
    <glyph glyph-name="z" unicode="z" horiz-adv-x="371" 
d="M320 0h-269v27l232 429h-232v27h265v-27l-232 -429h236v-27z" />
    <glyph glyph-name="braceleft" unicode="{" horiz-adv-x="212" 
d="M195 -190h-47q-35 0 -62 29t-27 74v244q0 30 -13.5 51t-38.5 21v30q25 0 38.5 21t13.5 51v244q0 45 27 74t62 29h47v-30h-47q-24 0 -41.5 -20.5t-17.5 -52.5v-244q0 -68 -45 -87q45 -19 45 -87v-244q0 -31 17.5 -52t41.5 -21h47v-30z" />
    <glyph glyph-name="bar" unicode="|" horiz-adv-x="190" 
d="M110 -20h-30v707h30v-707z" />
    <glyph glyph-name="braceright" unicode="}" horiz-adv-x="212" 
d="M17 -190v30h47q24 0 41.5 21t17.5 52v244q0 68 45 87q-45 19 -45 87v244q0 32 -17.5 52.5t-41.5 20.5h-47v30h47q35 0 62 -29t27 -74v-244q0 -30 13.5 -51t38.5 -21v-30q-25 0 -38.5 -21t-13.5 -51v-244q0 -45 -27 -74t-62 -29h-47z" />
    <glyph glyph-name="asciitilde" unicode="~" horiz-adv-x="436" 
d="M378 667l30 -3q-4 -48 -10 -83.5t-18.5 -72t-33.5 -56t-51 -19.5q-36 0 -58 31.5t-29.5 69.5t-23.5 69.5t-42 31.5q-37 0 -55.5 -49t-28.5 -155l-30 5q4 48 10.5 83.5t19 71t34 55t50.5 19.5q36 0 58 -31.5t29.5 -70t23.5 -70t42 -31.5q25 0 41.5 24t25.5 66.5t16 114.5z
" />
    <glyph glyph-name="nbspace" unicode="&#xa0;" horiz-adv-x="220" 
 />
    <glyph glyph-name="exclamdown" unicode="&#xa1;" horiz-adv-x="208" 
d="M83 -184l11 506h20l11 -506h-42zM71 459q0 13 9.5 23t23.5 10t23.5 -10t9.5 -23t-10 -22.5t-23 -9.5t-23 9.5t-10 22.5z" />
    <glyph glyph-name="cent" unicode="&#xa2;" horiz-adv-x="394" 
d="M214 -100v90q-75 9 -117.5 80t-42.5 172t42.5 171.5t117.5 79.5v72h30v-70q65 -2 116 -63l-21 -19q-39 52 -95 55v-453q56 3 95 56l21 -20q-25 -31 -51 -46.5t-65 -16.5v-88h-30zM87 242q0 -87 33 -151t94 -74v449q-62 -11 -94.5 -73.5t-32.5 -150.5z" />
    <glyph glyph-name="sterling" unicode="&#xa3;" horiz-adv-x="417" 
d="M24 267v30h114q-5 8 -27 37t-31 44.5t-19 47.5t-10 66q0 75 46 130t123 55q49 0 88 -27.5t57 -73.5l-26 -17q-14 37 -45 62.5t-74 25.5q-56 0 -96 -42t-40 -114q0 -34 10 -64t21 -47t30.5 -43.5t27.5 -39.5h115v-30h-99q12 -33 12 -64q0 -90 -80 -154q23 10 47 10
q30 0 69.5 -21t62.5 -21q25 0 49 12.5t35 28.5l19 -26q-38 -45 -105 -45q-39 0 -74 22t-66 22q-37 0 -96 -38l-16 31q60 31 92 78.5t32 100.5q0 32 -15 64h-131z" />
    <glyph glyph-name="currency" unicode="&#xa4;" horiz-adv-x="463" 
d="M231 99q-74 0 -120 54l-76 -76l-21 21l79 79q-39 63 -39 156q0 95 40 157l-81 81l22 21l77 -78q47 53 119 53t119 -53l77 78l22 -22l-81 -80q40 -62 40 -157q0 -92 -40 -157l81 -80l-22 -22l-77 77q-47 -52 -119 -52zM231 131q71 0 107.5 59.5t36.5 142.5t-36.5 142
t-107.5 59q-70 0 -107 -59t-37 -142t37 -142.5t107 -59.5z" />
    <glyph glyph-name="yen" unicode="&#xa5;" horiz-adv-x="466" 
d="M249 0h-32v129h-197v30h197v130h-197v30h180l-188 348h38l183 -342l184 342h38l-190 -348h181v-30h-197v-130h197v-30h-197v-129z" />
    <glyph glyph-name="brokenbar" unicode="&#xa6;" horiz-adv-x="190" 
d="M110 -20h-30v316h30v-316zM110 371h-30v316h30v-316z" />
    <glyph glyph-name="section" unicode="&#xa7;" horiz-adv-x="366" 
d="M320 297q0 -85 -86 -119q44 -27 65 -57.5t21 -73.5q0 -57 -39 -92.5t-102 -35.5q-50 0 -82 17t-61 51l23 22q44 -63 120 -63q48 0 79.5 28.5t31.5 72.5q0 39 -25 65.5t-60.5 43l-71 33.5t-60.5 47t-25 74q0 43 29.5 75t79.5 42q-57 29 -83 59.5t-26 74.5q0 50 36.5 83
t95.5 33q83 0 132 -62l-22 -20q-39 55 -110 55q-44 0 -73 -25.5t-29 -64.5q0 -36 25 -60.5t60.5 -40.5l71 -33t60.5 -49.5t25 -79.5zM290 298q0 24 -9 43.5t-26.5 33t-30.5 20.5t-34 16q-112 -24 -112 -102q0 -21 8.5 -37.5t29.5 -31t37.5 -23.5t52.5 -25q84 38 84 106z" />
    <glyph glyph-name="dieresis" unicode="&#xa8;" horiz-adv-x="252" 
d="M235 598q0 -11 -8.5 -19.5t-19.5 -8.5t-19.5 8.5t-8.5 19.5t8.5 19.5t19.5 8.5t19.5 -8.5t8.5 -19.5zM73 598q0 -11 -8.5 -19.5t-19.5 -8.5t-19.5 8.5t-8.5 19.5t8.5 19.5t19.5 8.5t19.5 -8.5t8.5 -19.5z" />
    <glyph glyph-name="copyright" unicode="&#xa9;" horiz-adv-x="778" 
d="M734 334q0 -143 -101 -244t-244 -101t-244 101.5t-101 243.5q0 143 101 244t244 101t244 -101t101 -244zM708 334q0 132 -93.5 225.5t-225.5 93.5q-131 0 -225 -93.5t-94 -225.5q0 -131 94 -225t225 -94q132 0 225.5 94t93.5 225zM513 204l20 -20q-56 -65 -143 -65
t-148 62.5t-61 153.5q0 92 60.5 153.5t148.5 61.5t143 -64l-20 -20q-19 26 -53 41.5t-70 15.5q-73 0 -126.5 -52.5t-53.5 -135.5q0 -81 54 -135t126 -54q36 0 70 16t53 42z" />
    <glyph glyph-name="ordfeminine" unicode="&#xaa;" horiz-adv-x="317" 
d="M256 326h-27v36q-34 -44 -89 -44q-42 0 -70 29t-28 76q0 48 28 76t70 28q55 0 89 -43v65q0 36 -20.5 54.5t-52.5 18.5q-50 0 -84 -43l-17 21q43 48 103 48q98 0 98 -106v-216zM146 340q56 0 83 46v73q-27 46 -83 46q-34 0 -54.5 -23.5t-20.5 -58.5q0 -36 20.5 -59.5
t54.5 -23.5z" />
    <glyph glyph-name="guillemotleft" unicode="&#xab;" horiz-adv-x="319" 
d="M289 63h-36l-125 180l125 177h36l-125 -177zM191 63h-36l-125 180l125 177h36l-125 -177z" />
    <glyph glyph-name="logicalnot" unicode="&#xac;" horiz-adv-x="434" 
d="M405 448v-228h-32v198h-344v30h376z" />
    <glyph glyph-name="uni00AD" unicode="&#xad;" horiz-adv-x="265" 
d="M235 227h-205v30h205v-30z" />
    <glyph glyph-name="registered" unicode="&#xae;" horiz-adv-x="494" 
d="M459 465q0 -88 -62 -150t-150 -62t-150 62t-62 150t62 150t150 62q89 0 150.5 -61.5t61.5 -150.5zM433 465q0 78 -54.5 132t-131.5 54t-131.5 -54t-54.5 -132q0 -77 54.5 -131.5t131.5 -54.5t131.5 54.5t54.5 131.5zM343 343h-37l-63 96h-47v-96h-29v243h99
q31 0 52.5 -20.5t21.5 -53.5q0 -35 -22.5 -53.5t-39.5 -18.5zM310 512q0 20 -14 33.5t-30 13.5h-70v-92h70q16 0 30 13.5t14 31.5z" />
    <glyph glyph-name="macron" unicode="&#xaf;" horiz-adv-x="302" 
d="M302 581h-302v27h302v-27z" />
    <glyph glyph-name="degree" unicode="&#xb0;" horiz-adv-x="273" 
d="M247 566q0 -46 -32.5 -78t-78.5 -32t-78 32t-32 78t32 78.5t78 32.5t78.5 -32.5t32.5 -78.5zM217 566q0 33 -24 57t-57 24t-56.5 -24t-23.5 -57t23.5 -56.5t56.5 -23.5t57 23.5t24 56.5z" />
    <glyph glyph-name="plusminus" unicode="&#xb1;" horiz-adv-x="434" 
d="M405 322h-172v-192h-32v192h-172v30h172v186h32v-186h172v-30zM405 30h-376v30h376v-30z" />
    <glyph glyph-name="twosuperior" unicode="&#xb2;" horiz-adv-x="310" 
d="M268 421h-224v24l35.5 40l33 36.5l28 31.5t26 30.5l21 26.5t18 25.5l13 22.5t10.5 22.5t5.5 20.5t2.5 22q0 37 -23 57.5t-56 20.5q-62 0 -91 -53l-22 17q38 62 114 62q44 0 76 -27t32 -77q0 -48 -34.5 -98.5t-118.5 -144.5q-20 -21 -30 -33h184v-26z" />
    <glyph glyph-name="threesuperior" unicode="&#xb3;" horiz-adv-x="310" 
d="M270 528q0 -51 -30.5 -82.5t-85.5 -31.5q-40 0 -70.5 19t-45.5 48l22 16q31 -57 93 -57q42 0 64.5 23.5t22.5 65.5q0 45 -26.5 65.5t-65.5 20.5q-25 0 -30 -1v27q5 -1 29 -1q38 0 63 20.5t25 59.5t-23 60t-59 21q-54 0 -89 -52l-22 17q39 61 112 61q48 0 79 -27.5
t31 -77.5q0 -38 -22.5 -62.5t-51.5 -31.5q29 -4 54.5 -31t25.5 -69z" />
    <glyph glyph-name="acute" unicode="&#xb4;" horiz-adv-x="162" 
d="M162 700l-135 -144h-27l119 144h43z" />
    <glyph glyph-name="mu" unicode="&#xb5;" horiz-adv-x="446" 
d="M106 34v-218h-30v667h30v-366q0 -104 92 -104q38 0 74.5 27t57.5 65v378h30v-402q0 -66 43 -66q7 0 17 2l3 -27q-10 -2 -20 -2q-68 0 -73 84q-55 -84 -132 -84q-68 0 -92 46z" />
    <glyph glyph-name="paragraph" unicode="&#xb6;" horiz-adv-x="449" 
d="M357 -100h-30v737h-98v-737h-30v423q-71 0 -121.5 50.5t-50.5 121.5t50.5 121.5t121.5 50.5h158v-767z" />
    <glyph glyph-name="periodcentered" unicode="&#xb7;" horiz-adv-x="208" 
d="M137 245q0 -13 -9.5 -23t-23.5 -10t-23.5 10t-9.5 23t10 22.5t23 9.5t23 -9.5t10 -22.5z" />
    <glyph glyph-name="cedilla" unicode="&#xb8;" horiz-adv-x="171" 
d="M82 -187q-49 0 -82 28l14 26q30 -27 68 -27q25 0 42.5 13.5t17.5 35.5q0 41 -38 41q-23 0 -37 -17l-22 13l31 85h30l-26 -70q12 11 33 11q25 0 41.5 -17t16.5 -46q0 -33 -25.5 -54.5t-63.5 -21.5z" />
    <glyph glyph-name="onesuperior" unicode="&#xb9;" horiz-adv-x="191" 
d="M131 421h-30v360l-62 -68l-19 20l84 88h27v-400z" />
    <glyph glyph-name="ordmasculine" unicode="&#xba;" horiz-adv-x="339" 
d="M169 318q-58 0 -92 47.5t-34 117.5t34 117.5t92 47.5q59 0 93 -47t34 -118q0 -70 -34 -117.5t-93 -47.5zM169 344q47 0 72 40.5t25 98.5t-25 98t-72 40q-46 0 -71 -40t-25 -98t25 -98.5t71 -40.5z" />
    <glyph glyph-name="guillemotright" unicode="&#xbb;" horiz-adv-x="319" 
d="M191 243l-125 -180h-36l125 180l-125 177h36zM289 243l-125 -180h-36l125 180l-125 177h36z" />
    <glyph glyph-name="onequarter" unicode="&#xbc;" horiz-adv-x="615" 
d="M131 267h-30v360l-62 -68l-19 20l84 88h27v-400zM583 113h-50v-113h-29v113h-165v27l156 260h38v-261h50v-26zM504 139v227l-136 -227h136zM476 667l-349 -667h-34l348 667h35z" />
    <glyph glyph-name="onehalf" unicode="&#xbd;" horiz-adv-x="650" 
d="M131 267h-30v360l-62 -68l-19 20l84 88h27v-400zM608 0h-224v24l35.5 40l33 36.5l28 31.5t26 30.5l21 26.5t18 25.5l13 22.5t10.5 22.5t5.5 20.5t2.5 22q0 37 -23 57.5t-56 20.5q-62 0 -91 -53l-22 17q38 62 114 62q44 0 76 -27t32 -77q0 -48 -34.5 -98.5t-118.5 -144.5
q-20 -21 -30 -33h184v-26zM476 667l-349 -667h-34l348 667h35z" />
    <glyph glyph-name="threequarters" unicode="&#xbe;" horiz-adv-x="696" 
d="M664 113h-50v-113h-29v113h-165v27l156 260h38v-261h50v-26zM585 139v227l-136 -227h136zM557 667l-349 -667h-34l348 667h35zM270 374q0 -51 -30.5 -82.5t-85.5 -31.5q-40 0 -70.5 19t-45.5 48l22 16q31 -57 93 -57q42 0 64.5 23.5t22.5 65.5q0 45 -26.5 65.5
t-65.5 20.5q-25 0 -30 -1v27q5 -1 29 -1q38 0 63 20.5t25 59.5t-23 60t-59 21q-54 0 -89 -52l-22 17q39 61 112 61q48 0 79 -27.5t31 -77.5q0 -38 -22.5 -62.5t-51.5 -31.5q29 -4 54.5 -31t25.5 -69z" />
    <glyph glyph-name="questiondown" unicode="&#xbf;" horiz-adv-x="324" 
d="M198 312q36 -33 36 -78q0 -36 -17 -66.5t-41 -52.5l-48 -44t-41 -53.5t-17 -69.5q0 -46 33 -81t89 -35q46 0 76.5 16.5t58.5 50.5l21 -23q-56 -74 -156 -74q-68 0 -111.5 43t-43.5 103q0 41 17 75.5t41.5 58l49 45.5t41.5 49t17 58q0 35 -28 56zM196 492q14 0 23.5 -10
t9.5 -23t-10 -22.5t-23 -9.5t-23 9.5t-10 22.5t9.5 23t23.5 10z" />
    <glyph glyph-name="Agrave" unicode="&#xc0;" horiz-adv-x="474" 
d="M458 0h-35l-53 179h-265l-53 -179h-35l201 667h38zM361 209l-124 416l-124 -416h248zM278 723h-27l-135 144h43z" />
    <glyph glyph-name="Aacute" unicode="&#xc1;" horiz-adv-x="474" 
d="M458 0h-35l-53 179h-265l-53 -179h-35l201 667h38zM361 209l-124 416l-124 -416h248zM359 867l-135 -144h-27l119 144h43z" />
    <glyph glyph-name="Acircumflex" unicode="&#xc2;" horiz-adv-x="474" 
d="M341 723h-25l-79 118l-75 -118h-26l83 144h36zM458 0h-35l-53 179h-265l-53 -179h-35l201 667h38zM361 209l-124 416l-124 -416h248z" />
    <glyph glyph-name="Atilde" unicode="&#xc3;" horiz-adv-x="474" 
d="M458 0h-35l-53 179h-265l-53 -179h-35l201 667h38zM361 209l-124 416l-124 -416h248zM288 721q-23 0 -38 17.5t-21 39t-17.5 39t-26.5 17.5q-49 0 -49 -107h-24q0 58 19.5 96t56.5 38q23 0 38 -17.5t21 -39t17.5 -39t26.5 -17.5q48 0 48 107h24q0 -57 -19 -95.5
t-56 -38.5z" />
    <glyph glyph-name="Adieresis" unicode="&#xc4;" horiz-adv-x="474" 
d="M347 765q0 -11 -8.5 -19.5t-19.5 -8.5t-19.5 8.5t-8.5 19.5t8.5 19.5t19.5 8.5t19.5 -8.5t8.5 -19.5zM185 765q0 -11 -8.5 -19.5t-19.5 -8.5t-19.5 8.5t-8.5 19.5t8.5 19.5t19.5 8.5t19.5 -8.5t8.5 -19.5zM458 0h-35l-53 179h-265l-53 -179h-35l201 667h38zM361 209
l-124 416l-124 -416h248z" />
    <glyph glyph-name="Aring" unicode="&#xc5;" horiz-adv-x="474" 
d="M458 0h-35l-53 179h-265l-53 -179h-35l201 667h38zM361 209l-124 416l-124 -416h248zM239 692q-35 0 -60.5 25.5t-25.5 60.5t25.5 60t60.5 25t59.5 -25t24.5 -60t-24.5 -60.5t-59.5 -25.5zM239 716q25 0 43 18t18 44t-18 43.5t-43 17.5q-26 0 -44 -18t-18 -43
q0 -26 18.5 -44t43.5 -18z" />
    <glyph glyph-name="AE" unicode="&#xc6;" horiz-adv-x="720" 
d="M661 0h-309v179h-211l-84 -179h-35l318 667h321v-30h-277v-279h270v-30h-270v-298h277v-30zM352 209v416l-198 -416h198z" />
    <glyph glyph-name="Ccedilla" unicode="&#xc7;" horiz-adv-x="512" 
d="M293 -183q-49 0 -82 28l14 26q30 -27 68 -27q25 0 42.5 13.5t17.5 35.5q0 41 -38 41q-23 0 -37 -17l-22 13l21 59q-99 10 -158.5 105.5t-59.5 238.5q0 151 65.5 248t173.5 97q107 0 173 -104l-28 -17q-52 91 -145 91q-91 0 -147.5 -88.5t-56.5 -226.5q0 -137 56.5 -226
t147.5 -89q94 0 147 101l28 -16q-63 -110 -166 -114l-16 -44q12 11 33 11q25 0 41.5 -17t16.5 -46q0 -33 -25.5 -54.5t-63.5 -21.5z" />
    <glyph glyph-name="Egrave" unicode="&#xc8;" horiz-adv-x="444" 
d="M389 0h-309v667h309v-30h-277v-279h270v-30h-270v-298h277v-30zM275 723h-27l-135 144h43z" />
    <glyph glyph-name="Eacute" unicode="&#xc9;" horiz-adv-x="444" 
d="M356 867l-135 -144h-27l119 144h43zM389 0h-309v667h309v-30h-277v-279h270v-30h-270v-298h277v-30z" />
    <glyph glyph-name="Ecircumflex" unicode="&#xca;" horiz-adv-x="444" 
d="M338 723h-25l-79 118l-75 -118h-26l83 144h36zM389 0h-309v667h309v-30h-277v-279h270v-30h-270v-298h277v-30z" />
    <glyph glyph-name="Edieresis" unicode="&#xcb;" horiz-adv-x="444" 
d="M343 765q0 -11 -8.5 -19.5t-19.5 -8.5t-19.5 8.5t-8.5 19.5t8.5 19.5t19.5 8.5t19.5 -8.5t8.5 -19.5zM181 765q0 -11 -8.5 -19.5t-19.5 -8.5t-19.5 8.5t-8.5 19.5t8.5 19.5t19.5 8.5t19.5 -8.5t8.5 -19.5zM389 0h-309v667h309v-30h-277v-279h270v-30h-270v-298h277v-30z
" />
    <glyph glyph-name="Igrave" unicode="&#xcc;" horiz-adv-x="192" 
d="M112 0h-32v667h32v-667zM136 723h-27l-135 144h43z" />
    <glyph glyph-name="Iacute" unicode="&#xcd;" horiz-adv-x="192" 
d="M112 0h-32v667h32v-667zM218 867l-135 -144h-27l119 144h43z" />
    <glyph glyph-name="Icircumflex" unicode="&#xce;" horiz-adv-x="192" 
d="M200 723h-25l-79 118l-75 -118h-26l83 144h36zM112 0h-32v667h32v-667z" />
    <glyph glyph-name="Idieresis" unicode="&#xcf;" horiz-adv-x="192" 
d="M206 765q0 -11 -8.5 -19.5t-19.5 -8.5t-19.5 8.5t-8.5 19.5t8.5 19.5t19.5 8.5t19.5 -8.5t8.5 -19.5zM44 765q0 -11 -8.5 -19.5t-19.5 -8.5t-19.5 8.5t-8.5 19.5t8.5 19.5t19.5 8.5t19.5 -8.5t8.5 -19.5zM112 0h-32v667h32v-667z" />
    <glyph glyph-name="Eth" unicode="&#xd0;" horiz-adv-x="559" 
d="M250 0h-146v318h-85v30h85v319h146q118 0 184 -94.5t66 -239.5q0 -146 -66 -239.5t-184 -93.5zM250 30q104 0 159.5 85t55.5 218q0 132 -55.5 218t-159.5 86h-114v-289h140v-30h-140v-288h114z" />
    <glyph glyph-name="Ntilde" unicode="&#xd1;" horiz-adv-x="543" 
d="M319 721q-23 0 -38 17.5t-21 39t-17.5 39t-26.5 17.5q-49 0 -49 -107h-24q0 58 19.5 96t56.5 38q23 0 38 -17.5t21 -39t17.5 -39t26.5 -17.5q48 0 48 107h24q0 -57 -19 -95.5t-56 -38.5zM463 0h-32l-319 595v-595h-32v667h32l319 -589v589h32v-667z" />
    <glyph glyph-name="Ograve" unicode="&#xd2;" horiz-adv-x="580" 
d="M331 723h-27l-135 144h43zM290 -12q-110 0 -170.5 98t-60.5 247t60.5 247t170.5 98t170.5 -98t60.5 -247t-60.5 -247t-170.5 -98zM290 18q92 0 144 89.5t52 225.5q0 137 -52 226t-144 89t-144 -89t-52 -226q0 -136 52 -225.5t144 -89.5z" />
    <glyph glyph-name="Oacute" unicode="&#xd3;" horiz-adv-x="580" 
d="M412 867l-135 -144h-27l119 144h43zM290 -12q-110 0 -170.5 98t-60.5 247t60.5 247t170.5 98t170.5 -98t60.5 -247t-60.5 -247t-170.5 -98zM290 18q92 0 144 89.5t52 225.5q0 137 -52 226t-144 89t-144 -89t-52 -226q0 -136 52 -225.5t144 -89.5z" />
    <glyph glyph-name="Ocircumflex" unicode="&#xd4;" horiz-adv-x="580" 
d="M394 723h-25l-79 118l-75 -118h-26l83 144h36zM290 -12q-110 0 -170.5 98t-60.5 247t60.5 247t170.5 98t170.5 -98t60.5 -247t-60.5 -247t-170.5 -98zM290 18q92 0 144 89.5t52 225.5q0 137 -52 226t-144 89t-144 -89t-52 -226q0 -136 52 -225.5t144 -89.5z" />
    <glyph glyph-name="Otilde" unicode="&#xd5;" horiz-adv-x="580" 
d="M290 -12q-110 0 -170.5 98t-60.5 247t60.5 247t170.5 98t170.5 -98t60.5 -247t-60.5 -247t-170.5 -98zM290 18q92 0 144 89.5t52 225.5q0 137 -52 226t-144 89t-144 -89t-52 -226q0 -136 52 -225.5t144 -89.5zM341 721q-23 0 -38 17.5t-21 39t-17.5 39t-26.5 17.5
q-49 0 -49 -107h-24q0 58 19.5 96t56.5 38q23 0 38 -17.5t21 -39t17.5 -39t26.5 -17.5q48 0 48 107h24q0 -57 -19 -95.5t-56 -38.5z" />
    <glyph glyph-name="Odieresis" unicode="&#xd6;" horiz-adv-x="580" 
d="M398 765q0 -11 -8.5 -19.5t-19.5 -8.5t-19.5 8.5t-8.5 19.5t8.5 19.5t19.5 8.5t19.5 -8.5t8.5 -19.5zM236 765q0 -11 -8.5 -19.5t-19.5 -8.5t-19.5 8.5t-8.5 19.5t8.5 19.5t19.5 8.5t19.5 -8.5t8.5 -19.5zM290 -12q-110 0 -170.5 98t-60.5 247t60.5 247t170.5 98
t170.5 -98t60.5 -247t-60.5 -247t-170.5 -98zM290 18q92 0 144 89.5t52 225.5q0 137 -52 226t-144 89t-144 -89t-52 -226q0 -136 52 -225.5t144 -89.5z" />
    <glyph glyph-name="multiply" unicode="&#xd7;" horiz-adv-x="434" 
d="M351 179l-134 134l-133 -134l-22 22l134 133l-134 134l22 21l133 -134l134 134l21 -21l-134 -134l134 -133z" />
    <glyph glyph-name="Oslash" unicode="&#xd8;" horiz-adv-x="580" 
d="M290 -12q-74 0 -126 46l-16 -34h-34l27 57q-82 94 -82 276q0 149 60.5 247t170.5 98q71 0 125 -46l17 35h35l-28 -59q82 -96 82 -275q0 -149 -60.5 -247t-170.5 -98zM290 18q92 0 144 89.5t52 225.5q0 153 -63 242l-244 -510q45 -47 111 -47zM94 333q0 -155 63 -242
l244 510q-47 47 -111 47q-92 0 -144 -89t-52 -226z" />
    <glyph glyph-name="Ugrave" unicode="&#xd9;" horiz-adv-x="534" 
d="M267 -12q-90 0 -138.5 55.5t-48.5 160.5v463h32v-463q0 -92 40 -139t115 -47t115 47t40 139v463h32v-463q0 -106 -48 -161t-139 -55zM308 723h-27l-135 144h43z" />
    <glyph glyph-name="Uacute" unicode="&#xda;" horiz-adv-x="534" 
d="M389 867l-135 -144h-27l119 144h43zM267 -12q-90 0 -138.5 55.5t-48.5 160.5v463h32v-463q0 -92 40 -139t115 -47t115 47t40 139v463h32v-463q0 -106 -48 -161t-139 -55z" />
    <glyph glyph-name="Ucircumflex" unicode="&#xdb;" horiz-adv-x="534" 
d="M371 723h-25l-79 118l-75 -118h-26l83 144h36zM267 -12q-90 0 -138.5 55.5t-48.5 160.5v463h32v-463q0 -92 40 -139t115 -47t115 47t40 139v463h32v-463q0 -106 -48 -161t-139 -55z" />
    <glyph glyph-name="Udieresis" unicode="&#xdc;" horiz-adv-x="534" 
d="M376 765q0 -11 -8.5 -19.5t-19.5 -8.5t-19.5 8.5t-8.5 19.5t8.5 19.5t19.5 8.5t19.5 -8.5t8.5 -19.5zM214 765q0 -11 -8.5 -19.5t-19.5 -8.5t-19.5 8.5t-8.5 19.5t8.5 19.5t19.5 8.5t19.5 -8.5t8.5 -19.5zM267 -12q-90 0 -138.5 55.5t-48.5 160.5v463h32v-463
q0 -92 40 -139t115 -47t115 47t40 139v463h32v-463q0 -106 -48 -161t-139 -55z" />
    <glyph glyph-name="Yacute" unicode="&#xdd;" horiz-adv-x="466" 
d="M249 0h-32v289l-205 378h38l183 -342l184 342h38l-206 -378v-289zM355 867l-135 -144h-27l119 144h43z" />
    <glyph glyph-name="Thorn" unicode="&#xde;" horiz-adv-x="448" 
d="M112 0h-32v667h32v-129h134q78 0 121.5 -54.5t43.5 -135.5q0 -80 -43.5 -134t-121.5 -54h-134v-160zM245 190q62 0 96.5 43.5t34.5 114.5t-35 115.5t-96 44.5h-133v-318h133z" />
    <glyph glyph-name="germandbls" unicode="&#xdf;" horiz-adv-x="477" 
d="M458 116q0 -54 -37 -91t-104 -37q-51 0 -83 17.5t-60 50.5l23 23q47 -64 120 -64q49 0 80 29t31 72q0 39 -25 65.5t-60.5 42l-71 32t-60.5 46.5t-25 74q0 33 21 60.5t46 43t46 39t21 50.5q0 35 -30.5 58t-70.5 23q-46 0 -76.5 -31t-30.5 -87v-532h-30v532q0 63 38.5 104
t98.5 41q56 0 93 -30t37 -78q0 -35 -21 -61.5t-45.5 -41.5t-45.5 -38.5t-21 -52.5q0 -36 25 -60.5t60.5 -39.5t71 -32t60.5 -49t25 -78z" />
    <glyph glyph-name="agrave" unicode="&#xe0;" horiz-adv-x="428" 
d="M353 0h-30v56q-47 -68 -128 -68q-61 0 -102 44.5t-41 116.5t41 116.5t102 44.5q82 0 128 -67v105q0 58 -28 89t-79 31q-71 0 -124 -65l-20 22q61 70 144 70q137 0 137 -146v-349zM199 15q84 0 124 74v120q-40 74 -124 74q-53 0 -83.5 -38.5t-30.5 -95.5t30.5 -95.5
t83.5 -38.5zM257 556h-27l-135 144h43z" />
    <glyph glyph-name="aacute" unicode="&#xe1;" horiz-adv-x="428" 
d="M353 0h-30v56q-47 -68 -128 -68q-61 0 -102 44.5t-41 116.5t41 116.5t102 44.5q82 0 128 -67v105q0 58 -28 89t-79 31q-71 0 -124 -65l-20 22q61 70 144 70q137 0 137 -146v-349zM199 15q84 0 124 74v120q-40 74 -124 74q-53 0 -83.5 -38.5t-30.5 -95.5t30.5 -95.5
t83.5 -38.5zM338 700l-135 -144h-27l119 144h43z" />
    <glyph glyph-name="acircumflex" unicode="&#xe2;" horiz-adv-x="428" 
d="M353 0h-30v56q-47 -68 -128 -68q-61 0 -102 44.5t-41 116.5t41 116.5t102 44.5q82 0 128 -67v105q0 58 -28 89t-79 31q-71 0 -124 -65l-20 22q61 70 144 70q137 0 137 -146v-349zM199 15q84 0 124 74v120q-40 74 -124 74q-53 0 -83.5 -38.5t-30.5 -95.5t30.5 -95.5
t83.5 -38.5zM321 556h-25l-79 118l-75 -118h-26l83 144h36z" />
    <glyph glyph-name="atilde" unicode="&#xe3;" horiz-adv-x="428" 
d="M353 0h-30v56q-47 -68 -128 -68q-61 0 -102 44.5t-41 116.5t41 116.5t102 44.5q82 0 128 -67v105q0 58 -28 89t-79 31q-71 0 -124 -65l-20 22q61 70 144 70q137 0 137 -146v-349zM199 15q84 0 124 74v120q-40 74 -124 74q-53 0 -83.5 -38.5t-30.5 -95.5t30.5 -95.5
t83.5 -38.5zM268 554q-23 0 -38 17.5t-21 39t-17.5 39t-26.5 17.5q-49 0 -49 -107h-24q0 58 19.5 96t56.5 38q23 0 38 -17.5t21 -39t17.5 -39t26.5 -17.5q48 0 48 107h24q0 -57 -19 -95.5t-56 -38.5z" />
    <glyph glyph-name="adieresis" unicode="&#xe4;" horiz-adv-x="428" 
d="M353 0h-30v56q-47 -68 -128 -68q-61 0 -102 44.5t-41 116.5t41 116.5t102 44.5q82 0 128 -67v105q0 58 -28 89t-79 31q-71 0 -124 -65l-20 22q61 70 144 70q137 0 137 -146v-349zM199 15q84 0 124 74v120q-40 74 -124 74q-53 0 -83.5 -38.5t-30.5 -95.5t30.5 -95.5
t83.5 -38.5zM324 598q0 -11 -8.5 -19.5t-19.5 -8.5t-19.5 8.5t-8.5 19.5t8.5 19.5t19.5 8.5t19.5 -8.5t8.5 -19.5zM162 598q0 -11 -8.5 -19.5t-19.5 -8.5t-19.5 8.5t-8.5 19.5t8.5 19.5t19.5 8.5t19.5 -8.5t8.5 -19.5z" />
    <glyph glyph-name="aring" unicode="&#xe5;" horiz-adv-x="428" 
d="M353 0h-30v56q-47 -68 -128 -68q-61 0 -102 44.5t-41 116.5t41 116.5t102 44.5q82 0 128 -67v105q0 58 -28 89t-79 31q-71 0 -124 -65l-20 22q61 70 144 70q137 0 137 -146v-349zM199 15q84 0 124 74v120q-40 74 -124 74q-53 0 -83.5 -38.5t-30.5 -95.5t30.5 -95.5
t83.5 -38.5zM217 553q-35 0 -60.5 25.5t-25.5 60.5t25.5 60t60.5 25t59.5 -25t24.5 -60t-24.5 -60.5t-59.5 -25.5zM217 577q25 0 43 18t18 44q0 25 -18 43t-43 18q-26 0 -44 -18t-18 -43t18.5 -43.5t43.5 -18.5z" />
    <glyph glyph-name="ae" unicode="&#xe6;" horiz-adv-x="724" 
d="M674 232h-305q2 -96 41.5 -156.5t107.5 -60.5q70 0 116 71l23 -17q-56 -81 -140 -81q-113 0 -159 126q-17 -58 -56 -92t-94 -34q-70 0 -113 44t-43 117q0 72 42.5 116.5t108.5 44.5q87 0 136 -66v104q0 58 -29 89t-85 31q-77 0 -133 -65l-20 22q61 70 155 70q55 0 93 -27
t44 -84q18 48 55 79.5t84 31.5q85 0 128 -72t43 -181v-10zM369 259h272q0 82 -33.5 145.5t-102.5 63.5q-45 0 -76.5 -35t-45 -80t-14.5 -94zM339 186v22q-42 75 -132 75q-56 0 -89 -37t-33 -97t33 -97t89 -37q61 0 96.5 47.5t35.5 123.5z" />
    <glyph glyph-name="ccedilla" unicode="&#xe7;" horiz-adv-x="394" 
d="M235 -185q-49 0 -82 28l14 26q30 -27 68 -27q25 0 42.5 13.5t17.5 35.5q0 41 -38 41q-23 0 -37 -17l-22 13l22 61q-78 7 -122 78.5t-44 174.5q0 109 48.5 181t133.5 72q42 0 70 -15.5t54 -47.5l-21 -19q-41 55 -103 55q-72 0 -110.5 -65t-38.5 -161q0 -95 38.5 -161
t110.5 -66q62 0 103 56l21 -20q-46 -58 -110 -62l-17 -46q12 11 33 11q25 0 41.5 -17t16.5 -46q0 -33 -25.5 -54.5t-63.5 -21.5z" />
    <glyph glyph-name="egrave" unicode="&#xe8;" 
d="M245 -12q-89 0 -140 71t-51 183q0 109 48 181t130 72q87 0 131.5 -72t44.5 -181v-10h-321q2 -95 44 -156t114 -61q73 0 124 71l23 -17q-61 -81 -147 -81zM376 259q0 50 -14 95.5t-48 79.5t-83 34q-47 0 -80.5 -34.5t-48 -80t-15.5 -94.5h289zM272 556h-27l-135 144h43z
" />
    <glyph glyph-name="eacute" unicode="&#xe9;" 
d="M353 700l-135 -144h-27l119 144h43zM245 -12q-89 0 -140 71t-51 183q0 109 48 181t130 72q87 0 131.5 -72t44.5 -181v-10h-321q2 -95 44 -156t114 -61q73 0 124 71l23 -17q-61 -81 -147 -81zM376 259q0 50 -14 95.5t-48 79.5t-83 34q-47 0 -80.5 -34.5t-48 -80
t-15.5 -94.5h289z" />
    <glyph glyph-name="ecircumflex" unicode="&#xea;" 
d="M336 556h-25l-79 118l-75 -118h-26l83 144h36zM245 -12q-89 0 -140 71t-51 183q0 109 48 181t130 72q87 0 131.5 -72t44.5 -181v-10h-321q2 -95 44 -156t114 -61q73 0 124 71l23 -17q-61 -81 -147 -81zM376 259q0 50 -14 95.5t-48 79.5t-83 34q-47 0 -80.5 -34.5t-48 -80
t-15.5 -94.5h289z" />
    <glyph glyph-name="edieresis" unicode="&#xeb;" 
d="M341 598q0 -11 -8.5 -19.5t-19.5 -8.5t-19.5 8.5t-8.5 19.5t8.5 19.5t19.5 8.5t19.5 -8.5t8.5 -19.5zM179 598q0 -11 -8.5 -19.5t-19.5 -8.5t-19.5 8.5t-8.5 19.5t8.5 19.5t19.5 8.5t19.5 -8.5t8.5 -19.5zM245 -12q-89 0 -140 71t-51 183q0 109 48 181t130 72
q87 0 131.5 -72t44.5 -181v-10h-321q2 -95 44 -156t114 -61q73 0 124 71l23 -17q-61 -81 -147 -81zM376 259q0 50 -14 95.5t-48 79.5t-83 34q-47 0 -80.5 -34.5t-48 -80t-15.5 -94.5h289z" />
    <glyph glyph-name="igrave" unicode="&#xec;" horiz-adv-x="181" 
d="M106 0h-30v483h30v-483zM131 556h-27l-135 144h43z" />
    <glyph glyph-name="iacute" unicode="&#xed;" horiz-adv-x="181" 
d="M212 700l-135 -144h-27l119 144h43zM106 0h-30v483h30v-483z" />
    <glyph glyph-name="icircumflex" unicode="&#xee;" horiz-adv-x="181" 
d="M193 556h-25l-79 118l-75 -118h-26l83 144h36zM106 0h-30v483h30v-483z" />
    <glyph glyph-name="idieresis" unicode="&#xef;" horiz-adv-x="181" 
d="M199 598q0 -11 -8.5 -19.5t-19.5 -8.5t-19.5 8.5t-8.5 19.5t8.5 19.5t19.5 8.5t19.5 -8.5t8.5 -19.5zM37 598q0 -11 -8.5 -19.5t-19.5 -8.5t-19.5 8.5t-8.5 19.5t8.5 19.5t19.5 8.5t19.5 -8.5t8.5 -19.5zM106 0h-30v483h30v-483z" />
    <glyph glyph-name="eth" unicode="&#xf0;" horiz-adv-x="461" 
d="M121 524l-12 26l115 51q-35 37 -63 61l24 21q45 -45 66 -70l95 42l11 -25l-88 -39q139 -172 139 -349q0 -109 -46.5 -181.5t-130.5 -72.5t-130.5 72.5t-46.5 181.5q0 108 46.5 180.5t130.5 72.5q72 0 115 -70q-41 83 -102 154zM231 15q71 0 107.5 66.5t36.5 160.5
q0 93 -36.5 159.5t-107.5 66.5q-70 0 -107 -66.5t-37 -159.5t37 -160t107 -67z" />
    <glyph glyph-name="ntilde" unicode="&#xf1;" horiz-adv-x="435" 
d="M360 0h-30v366q0 102 -89 102q-39 0 -76.5 -27t-58.5 -65v-376h-30v483h30v-74q23 36 61.5 61t77.5 25q115 0 115 -129v-366zM270 554q-23 0 -38 17.5t-21 39t-17.5 39t-26.5 17.5q-49 0 -49 -107h-24q0 58 19.5 96t56.5 38q23 0 38 -17.5t21 -39t17.5 -39t26.5 -17.5
q48 0 48 107h24q0 -57 -19 -95.5t-56 -38.5z" />
    <glyph glyph-name="ograve" unicode="&#xf2;" horiz-adv-x="461" 
d="M231 -12q-84 0 -130.5 72.5t-46.5 181.5q0 108 46.5 180.5t130.5 72.5t130.5 -72.5t46.5 -180.5q0 -109 -46.5 -181.5t-130.5 -72.5zM231 15q71 0 107.5 66.5t36.5 160.5q0 93 -36.5 159.5t-107.5 66.5q-70 0 -107 -66.5t-37 -159.5t37 -160t107 -67zM272 556h-27
l-135 144h43z" />
    <glyph glyph-name="oacute" unicode="&#xf3;" horiz-adv-x="461" 
d="M352 700l-135 -144h-27l119 144h43zM231 -12q-84 0 -130.5 72.5t-46.5 181.5q0 108 46.5 180.5t130.5 72.5t130.5 -72.5t46.5 -180.5q0 -109 -46.5 -181.5t-130.5 -72.5zM231 15q71 0 107.5 66.5t36.5 160.5q0 93 -36.5 159.5t-107.5 66.5q-70 0 -107 -66.5t-37 -159.5
t37 -160t107 -67z" />
    <glyph glyph-name="ocircumflex" unicode="&#xf4;" horiz-adv-x="461" 
d="M334 556h-25l-79 118l-75 -118h-26l83 144h36zM231 -12q-84 0 -130.5 72.5t-46.5 181.5q0 108 46.5 180.5t130.5 72.5t130.5 -72.5t46.5 -180.5q0 -109 -46.5 -181.5t-130.5 -72.5zM231 15q71 0 107.5 66.5t36.5 160.5q0 93 -36.5 159.5t-107.5 66.5q-70 0 -107 -66.5
t-37 -159.5t37 -160t107 -67z" />
    <glyph glyph-name="otilde" unicode="&#xf5;" horiz-adv-x="461" 
d="M231 -12q-84 0 -130.5 72.5t-46.5 181.5q0 108 46.5 180.5t130.5 72.5t130.5 -72.5t46.5 -180.5q0 -109 -46.5 -181.5t-130.5 -72.5zM231 15q71 0 107.5 66.5t36.5 160.5q0 93 -36.5 159.5t-107.5 66.5q-70 0 -107 -66.5t-37 -159.5t37 -160t107 -67zM282 554
q-23 0 -38 17.5t-21 39t-17.5 39t-26.5 17.5q-49 0 -49 -107h-24q0 58 19.5 96t56.5 38q23 0 38 -17.5t21 -39t17.5 -39t26.5 -17.5q48 0 48 107h24q0 -57 -19 -95.5t-56 -38.5z" />
    <glyph glyph-name="odieresis" unicode="&#xf6;" horiz-adv-x="461" 
d="M340 598q0 -11 -8.5 -19.5t-19.5 -8.5t-19.5 8.5t-8.5 19.5t8.5 19.5t19.5 8.5t19.5 -8.5t8.5 -19.5zM178 598q0 -11 -8.5 -19.5t-19.5 -8.5t-19.5 8.5t-8.5 19.5t8.5 19.5t19.5 8.5t19.5 -8.5t8.5 -19.5zM231 -12q-84 0 -130.5 72.5t-46.5 181.5q0 108 46.5 180.5
t130.5 72.5t130.5 -72.5t46.5 -180.5q0 -109 -46.5 -181.5t-130.5 -72.5zM231 15q71 0 107.5 66.5t36.5 160.5q0 93 -36.5 159.5t-107.5 66.5q-70 0 -107 -66.5t-37 -159.5t37 -160t107 -67z" />
    <glyph glyph-name="divide" unicode="&#xf7;" horiz-adv-x="443" 
d="M256 506q0 -14 -10 -24t-23 -10t-23 10t-10 24q0 13 9.5 22.5t23.5 9.5t23.5 -9.5t9.5 -22.5zM414 322h-385v30h385v-30zM256 163q0 -13 -10 -23t-23 -10t-23 10t-10 23t10 23t23 10t23 -10t10 -23z" />
    <glyph glyph-name="oslash" unicode="&#xf8;" horiz-adv-x="461" 
d="M102 0h-31l33 56q-50 71 -50 186q0 108 46.5 180.5t130.5 72.5q61 0 105 -42l18 30h31l-30 -52q53 -71 53 -189q0 -109 -46.5 -181.5t-130.5 -72.5q-65 0 -109 46zM231 15q71 0 107.5 66.5t36.5 160.5q0 96 -37 160l-200 -341q38 -46 93 -46zM87 242q0 -94 34 -156
l200 340q-37 42 -90 42q-70 0 -107 -66.5t-37 -159.5z" />
    <glyph glyph-name="ugrave" unicode="&#xf9;" horiz-adv-x="435" 
d="M360 0h-30v72q-58 -84 -139 -84q-59 0 -87 30t-28 99v366h30v-366q0 -102 89 -102q39 0 77 26t58 64v378h30v-483zM258 556h-27l-135 144h43z" />
    <glyph glyph-name="uacute" unicode="&#xfa;" horiz-adv-x="435" 
d="M339 700l-135 -144h-27l119 144h43zM360 0h-30v72q-58 -84 -139 -84q-59 0 -87 30t-28 99v366h30v-366q0 -102 89 -102q39 0 77 26t58 64v378h30v-483z" />
    <glyph glyph-name="ucircumflex" unicode="&#xfb;" horiz-adv-x="435" 
d="M321 556h-25l-79 118l-75 -118h-26l83 144h36zM360 0h-30v72q-58 -84 -139 -84q-59 0 -87 30t-28 99v366h30v-366q0 -102 89 -102q39 0 77 26t58 64v378h30v-483z" />
    <glyph glyph-name="udieresis" unicode="&#xfc;" horiz-adv-x="435" 
d="M330 598q0 -11 -8.5 -19.5t-19.5 -8.5t-19.5 8.5t-8.5 19.5t8.5 19.5t19.5 8.5t19.5 -8.5t8.5 -19.5zM168 598q0 -11 -8.5 -19.5t-19.5 -8.5t-19.5 8.5t-8.5 19.5t8.5 19.5t19.5 8.5t19.5 -8.5t8.5 -19.5zM360 0h-30v72q-58 -84 -139 -84q-59 0 -87 30t-28 99v366h30
v-366q0 -102 89 -102q39 0 77 26t58 64v378h30v-483z" />
    <glyph glyph-name="yacute" unicode="&#xfd;" horiz-adv-x="375" 
d="M39 -189l6 27q13 -7 33 -7q22 0 35 13t25 47l34 98l-158 494h34l140 -445l140 445h34l-197 -602q-26 -77 -87 -77q-23 0 -39 7zM309 700l-135 -144h-27l119 144h43z" />
    <glyph glyph-name="thorn" unicode="&#xfe;" horiz-adv-x="457" 
d="M237 -12q-40 0 -75 22.5t-56 64.5v-259h-30v851h30v-257q20 39 54.5 62t76.5 23q80 0 124 -69.5t44 -183.5q0 -113 -44 -183.5t-124 -70.5zM237 15q67 0 101 64.5t34 162.5t-34 162t-101 64q-41 0 -77.5 -29t-53.5 -69v-255q17 -41 53.5 -70.5t77.5 -29.5z" />
    <glyph glyph-name="ydieresis" unicode="&#xff;" horiz-adv-x="375" 
d="M39 -189l6 27q13 -7 33 -7q22 0 35 13t25 47l34 98l-158 494h34l140 -445l140 445h34l-197 -602q-26 -77 -87 -77q-23 0 -39 7zM297 598q0 -11 -8.5 -19.5t-19.5 -8.5t-19.5 8.5t-8.5 19.5t8.5 19.5t19.5 8.5t19.5 -8.5t8.5 -19.5zM135 598q0 -11 -8.5 -19.5t-19.5 -8.5
t-19.5 8.5t-8.5 19.5t8.5 19.5t19.5 8.5t19.5 -8.5t8.5 -19.5z" />
    <glyph glyph-name="Amacron" unicode="&#x100;" horiz-adv-x="474" 
d="M458 0h-35l-53 179h-265l-53 -179h-35l201 667h38zM361 209l-124 416l-124 -416h248zM388 748h-302v27h302v-27z" />
    <glyph glyph-name="amacron" unicode="&#x101;" horiz-adv-x="428" 
d="M353 0h-30v56q-47 -68 -128 -68q-61 0 -102 44.5t-41 116.5t41 116.5t102 44.5q82 0 128 -67v105q0 58 -28 89t-79 31q-71 0 -124 -65l-20 22q61 70 144 70q137 0 137 -146v-349zM199 15q84 0 124 74v120q-40 74 -124 74q-53 0 -83.5 -38.5t-30.5 -95.5t30.5 -95.5
t83.5 -38.5zM365 581h-302v27h302v-27z" />
    <glyph glyph-name="Abreve" unicode="&#x102;" horiz-adv-x="474" 
d="M458 0h-35l-53 179h-265l-53 -179h-35l201 667h38zM361 209l-124 416l-124 -416h248zM383 792q-54 -73 -145 -73t-146 73l22 18q20 -29 53.5 -46.5t70.5 -17.5t70.5 17.5t53.5 46.5z" />
    <glyph glyph-name="abreve" unicode="&#x103;" horiz-adv-x="428" 
d="M353 0h-30v56q-47 -68 -128 -68q-61 0 -102 44.5t-41 116.5t41 116.5t102 44.5q82 0 128 -67v105q0 58 -28 89t-79 31q-71 0 -124 -65l-20 22q61 70 144 70q137 0 137 -146v-349zM199 15q84 0 124 74v120q-40 74 -124 74q-53 0 -83.5 -38.5t-30.5 -95.5t30.5 -95.5
t83.5 -38.5zM360 625q-54 -73 -145 -73t-146 73l22 18q20 -29 53.5 -46.5t70.5 -17.5t70.5 17.5t53.5 46.5z" />
    <glyph glyph-name="Aogonek" unicode="&#x104;" horiz-adv-x="474" 
d="M471 -117l25 -11q-18 -58 -73 -58q-31 0 -51 19.5t-20 57.5q0 69 68 117l-50 171h-265l-53 -179h-35l201 667h38l202 -667q-77 -44 -77 -109q0 -50 42 -50q37 0 48 42zM361 209l-124 416l-124 -416h248z" />
    <glyph glyph-name="aogonek" unicode="&#x105;" horiz-adv-x="428" 
d="M366 -117l25 -11q-18 -58 -73 -58q-31 0 -51 19.5t-20 57.5q0 72 76 121v44q-47 -68 -128 -68q-61 0 -102 44.5t-41 116.5t41 116.5t102 44.5q82 0 128 -67v105q0 58 -28 89t-79 31q-71 0 -124 -65l-20 22q61 70 144 70q137 0 137 -146v-349q-77 -44 -77 -109
q0 -50 42 -50q37 0 48 42zM199 15q84 0 124 74v120q-40 74 -124 74q-53 0 -83.5 -38.5t-30.5 -95.5t30.5 -95.5t83.5 -38.5z" />
    <glyph glyph-name="Cacute" unicode="&#x106;" horiz-adv-x="512" 
d="M420 867l-135 -144h-27l119 144h43zM298 -12q-108 0 -173.5 97.5t-65.5 247.5q0 151 65.5 248t173.5 97q107 0 173 -104l-28 -17q-52 91 -145 91q-91 0 -147.5 -88.5t-56.5 -226.5q0 -137 56.5 -226t147.5 -89q94 0 147 101l28 -16q-66 -115 -175 -115z" />
    <glyph glyph-name="cacute" unicode="&#x107;" horiz-adv-x="394" 
d="M357 700l-135 -144h-27l119 144h43zM236 -12q-85 0 -133.5 72.5t-48.5 181.5t48.5 181t133.5 72q42 0 70 -15.5t54 -47.5l-21 -19q-41 55 -103 55q-72 0 -110.5 -65t-38.5 -161q0 -95 38.5 -161t110.5 -66q62 0 103 56l21 -20q-25 -33 -53.5 -48t-70.5 -15z" />
    <glyph glyph-name="Ccircumflex" unicode="&#x108;" horiz-adv-x="512" 
d="M402 723h-25l-79 118l-75 -118h-26l83 144h36zM298 -12q-108 0 -173.5 97.5t-65.5 247.5q0 151 65.5 248t173.5 97q107 0 173 -104l-28 -17q-52 91 -145 91q-91 0 -147.5 -88.5t-56.5 -226.5q0 -137 56.5 -226t147.5 -89q94 0 147 101l28 -16q-66 -115 -175 -115z" />
    <glyph glyph-name="ccircumflex" unicode="&#x109;" horiz-adv-x="394" 
d="M339 556h-25l-79 118l-75 -118h-26l83 144h36zM236 -12q-85 0 -133.5 72.5t-48.5 181.5t48.5 181t133.5 72q42 0 70 -15.5t54 -47.5l-21 -19q-41 55 -103 55q-72 0 -110.5 -65t-38.5 -161q0 -95 38.5 -161t110.5 -66q62 0 103 56l21 -20q-25 -33 -53.5 -48t-70.5 -15z
" />
    <glyph glyph-name="Cdotaccent" unicode="&#x10a;" horiz-adv-x="512" 
d="M298 -12q-108 0 -173.5 97.5t-65.5 247.5q0 151 65.5 248t173.5 97q107 0 173 -104l-28 -17q-52 91 -145 91q-91 0 -147.5 -88.5t-56.5 -226.5q0 -137 56.5 -226t147.5 -89q94 0 147 101l28 -16q-66 -115 -175 -115zM299 733q-11 0 -20 8.5t-9 20.5t9 20.5t20 8.5
q12 0 20.5 -8.5t8.5 -20.5t-8.5 -20.5t-20.5 -8.5z" />
    <glyph glyph-name="cdotaccent" unicode="&#x10b;" horiz-adv-x="394" 
d="M236 -12q-85 0 -133.5 72.5t-48.5 181.5t48.5 181t133.5 72q42 0 70 -15.5t54 -47.5l-21 -19q-41 55 -103 55q-72 0 -110.5 -65t-38.5 -161q0 -95 38.5 -161t110.5 -66q62 0 103 56l21 -20q-25 -33 -53.5 -48t-70.5 -15zM238 566q-11 0 -20 8.5t-9 20.5t9 20.5t20 8.5
q12 0 20.5 -8.5t8.5 -20.5t-8.5 -20.5t-20.5 -8.5z" />
    <glyph glyph-name="Ccaron" unicode="&#x10c;" horiz-adv-x="512" 
d="M319 723h-36l-86 144h26l78 -118l76 118h25zM298 -12q-108 0 -173.5 97.5t-65.5 247.5q0 151 65.5 248t173.5 97q107 0 173 -104l-28 -17q-52 91 -145 91q-91 0 -147.5 -88.5t-56.5 -226.5q0 -137 56.5 -226t147.5 -89q94 0 147 101l28 -16q-66 -115 -175 -115z" />
    <glyph glyph-name="ccaron" unicode="&#x10d;" horiz-adv-x="394" 
d="M256 556h-36l-86 144h26l78 -118l76 118h25zM236 -12q-85 0 -133.5 72.5t-48.5 181.5t48.5 181t133.5 72q42 0 70 -15.5t54 -47.5l-21 -19q-41 55 -103 55q-72 0 -110.5 -65t-38.5 -161q0 -95 38.5 -161t110.5 -66q62 0 103 56l21 -20q-25 -33 -53.5 -48t-70.5 -15z" />
    <glyph glyph-name="Dcaron" unicode="&#x10e;" horiz-adv-x="535" 
d="M284 723h-36l-86 144h26l78 -118l76 118h25zM226 0h-146v667h146q118 0 184 -94.5t66 -239.5q0 -146 -66 -239.5t-184 -93.5zM226 30q104 0 159.5 85t55.5 218q0 132 -55.5 218t-159.5 86h-114v-607h114z" />
    <glyph glyph-name="dcaron" unicode="&#x10f;" horiz-adv-x="506" 
d="M510 627q0 -36 -18 -69.5t-44 -51.5l-22 18q24 18 38.5 43.5t14.5 48.5q-6 -1 -8 -1q-14 0 -23 9.5t-9 23.5q0 13 9 22.5t23 9.5q16 0 27.5 -14t11.5 -39zM383 0h-30v76q-20 -39 -55.5 -63.5t-75.5 -24.5q-80 0 -124 70t-44 183q0 114 44 184t124 70q40 0 75 -23.5
t56 -65.5v261h30v-667zM222 15q41 0 77.5 29t53.5 69v255q-17 41 -53.5 70.5t-77.5 29.5q-67 0 -101 -64.5t-34 -162.5t34 -162t101 -64z" />
    <glyph glyph-name="Dcroat" unicode="&#x110;" horiz-adv-x="559" 
d="M250 0h-146v318h-85v30h85v319h146q118 0 184 -94.5t66 -239.5q0 -146 -66 -239.5t-184 -93.5zM250 30q104 0 159.5 85t55.5 218q0 132 -55.5 218t-159.5 86h-114v-289h140v-30h-140v-288h114z" />
    <glyph glyph-name="dcroat" unicode="&#x111;" 
d="M383 0h-30v76q-20 -39 -55.5 -63.5t-75.5 -24.5q-80 0 -124 70t-44 183q0 114 44 184t124 70q40 0 75 -23.5t56 -65.5v135h-143v27h143v99h30v-99h69v-27h-69v-541zM222 15q41 0 77.5 29t53.5 69v255q-17 41 -53.5 70.5t-77.5 29.5q-67 0 -101 -64.5t-34 -162.5t34 -162
t101 -64z" />
    <glyph glyph-name="Emacron" unicode="&#x112;" horiz-adv-x="444" 
d="M389 0h-309v667h309v-30h-277v-279h270v-30h-270v-298h277v-30zM386 748h-302v27h302v-27z" />
    <glyph glyph-name="emacron" unicode="&#x113;" 
d="M245 -12q-89 0 -140 71t-51 183q0 109 48 181t130 72q87 0 131.5 -72t44.5 -181v-10h-321q2 -95 44 -156t114 -61q73 0 124 71l23 -17q-61 -81 -147 -81zM376 259q0 50 -14 95.5t-48 79.5t-83 34q-47 0 -80.5 -34.5t-48 -80t-15.5 -94.5h289zM381 581h-302v27h302v-27z
" />
    <glyph glyph-name="Ebreve" unicode="&#x114;" horiz-adv-x="444" 
d="M389 0h-309v667h309v-30h-277v-279h270v-30h-270v-298h277v-30zM382 792q-54 -73 -145 -73t-146 73l22 18q20 -29 53.5 -46.5t70.5 -17.5t70.5 17.5t53.5 46.5z" />
    <glyph glyph-name="ebreve" unicode="&#x115;" 
d="M245 -12q-89 0 -140 71t-51 183q0 109 48 181t130 72q87 0 131.5 -72t44.5 -181v-10h-321q2 -95 44 -156t114 -61q73 0 124 71l23 -17q-61 -81 -147 -81zM376 259q0 50 -14 95.5t-48 79.5t-83 34q-47 0 -80.5 -34.5t-48 -80t-15.5 -94.5h289zM379 625q-54 -73 -145 -73
t-146 73l22 18q20 -29 53.5 -46.5t70.5 -17.5t70.5 17.5t53.5 46.5z" />
    <glyph glyph-name="Edotaccent" unicode="&#x116;" horiz-adv-x="444" 
d="M389 0h-309v667h309v-30h-277v-279h270v-30h-270v-298h277v-30zM243 733q-11 0 -20 8.5t-9 20.5t9 20.5t20 8.5q12 0 20.5 -8.5t8.5 -20.5t-8.5 -20.5t-20.5 -8.5z" />
    <glyph glyph-name="edotaccent" unicode="&#x117;" 
d="M245 -12q-89 0 -140 71t-51 183q0 109 48 181t130 72q87 0 131.5 -72t44.5 -181v-10h-321q2 -95 44 -156t114 -61q73 0 124 71l23 -17q-61 -81 -147 -81zM376 259q0 50 -14 95.5t-48 79.5t-83 34q-47 0 -80.5 -34.5t-48 -80t-15.5 -94.5h289zM232 566q-11 0 -20 8.5
t-9 20.5t9 20.5t20 8.5q12 0 20.5 -8.5t8.5 -20.5t-8.5 -20.5t-20.5 -8.5z" />
    <glyph glyph-name="Eogonek" unicode="&#x118;" horiz-adv-x="444" 
d="M389 0q-77 -44 -77 -109q0 -50 42 -50q37 0 48 42l25 -11q-18 -58 -73 -58q-31 0 -51 19.5t-20 57.5q0 62 59 109h-262v667h309v-30h-277v-279h270v-30h-270v-298h277v-30z" />
    <glyph glyph-name="eogonek" unicode="&#x119;" 
d="M245 -12q-89 0 -140 71t-51 183q0 109 48 181t130 72q87 0 131.5 -72t44.5 -181v-10h-321q2 -95 44 -156t114 -61q73 0 124 71l23 -17q-39 -52 -86 -70q-75 -44 -75 -108q0 -50 42 -50q37 0 48 42l25 -11q-18 -58 -73 -58q-31 0 -51 19.5t-20 57.5q0 54 45 97h-2z
M376 259q0 50 -14 95.5t-48 79.5t-83 34q-47 0 -80.5 -34.5t-48 -80t-15.5 -94.5h289z" />
    <glyph glyph-name="Ecaron" unicode="&#x11a;" horiz-adv-x="444" 
d="M254 723h-36l-86 144h26l78 -118l76 118h25zM389 0h-309v667h309v-30h-277v-279h270v-30h-270v-298h277v-30z" />
    <glyph glyph-name="ecaron" unicode="&#x11b;" 
d="M252 556h-36l-86 144h26l78 -118l76 118h25zM245 -12q-89 0 -140 71t-51 183q0 109 48 181t130 72q87 0 131.5 -72t44.5 -181v-10h-321q2 -95 44 -156t114 -61q73 0 124 71l23 -17q-61 -81 -147 -81zM376 259q0 50 -14 95.5t-48 79.5t-83 34q-47 0 -80.5 -34.5t-48 -80
t-15.5 -94.5h289z" />
    <glyph glyph-name="Gcircumflex" unicode="&#x11c;" horiz-adv-x="542" 
d="M404 723h-25l-79 118l-75 -118h-26l83 144h36zM298 -13q-107 0 -173 96t-66 250t66 249.5t173 95.5q108 0 179 -103l-26 -17q-56 90 -153 90q-92 0 -148 -89t-56 -226q0 -136 56.5 -225.5t147.5 -89.5q93 0 147 70v202h-188v30h220v-242q-67 -91 -179 -91z" />
    <glyph glyph-name="gcircumflex" unicode="&#x11d;" 
d="M332 556h-25l-79 118l-75 -118h-26l83 144h36zM220 -196q-91 0 -147 60l21 25q46 -58 126 -58q61 0 97 36.5t36 109.5v99q-20 -39 -56 -64.5t-75 -25.5q-80 0 -124 70t-44 184t44 184.5t124 70.5q40 0 75 -23.5t56 -65.5v77h30v-506q0 -89 -43.5 -131t-119.5 -42zM222 13
q41 0 77.5 29.5t53.5 70.5v255q-17 41 -53.5 70.5t-77.5 29.5q-67 0 -101 -64.5t-34 -163.5q0 -98 34 -162.5t101 -64.5z" />
    <glyph glyph-name="Gbreve" unicode="&#x11e;" horiz-adv-x="542" 
d="M298 -13q-107 0 -173 96t-66 250t66 249.5t173 95.5q108 0 179 -103l-26 -17q-56 90 -153 90q-92 0 -148 -89t-56 -226q0 -136 56.5 -225.5t147.5 -89.5q93 0 147 70v202h-188v30h220v-242q-67 -91 -179 -91zM447 792q-54 -73 -145 -73t-146 73l22 18q20 -29 53.5 -46.5
t70.5 -17.5t70.5 17.5t53.5 46.5z" />
    <glyph glyph-name="gbreve" unicode="&#x11f;" 
d="M220 -196q-91 0 -147 60l21 25q46 -58 126 -58q61 0 97 36.5t36 109.5v99q-20 -39 -56 -64.5t-75 -25.5q-80 0 -124 70t-44 184t44 184.5t124 70.5q40 0 75 -23.5t56 -65.5v77h30v-506q0 -89 -43.5 -131t-119.5 -42zM222 13q41 0 77.5 29.5t53.5 70.5v255
q-17 41 -53.5 70.5t-77.5 29.5q-67 0 -101 -64.5t-34 -163.5q0 -98 34 -162.5t101 -64.5zM375 625q-54 -73 -145 -73t-146 73l22 18q20 -29 53.5 -46.5t70.5 -17.5t70.5 17.5t53.5 46.5z" />
    <glyph glyph-name="Gdotaccent" unicode="&#x120;" horiz-adv-x="542" 
d="M298 -13q-107 0 -173 96t-66 250t66 249.5t173 95.5q108 0 179 -103l-26 -17q-56 90 -153 90q-92 0 -148 -89t-56 -226q0 -136 56.5 -225.5t147.5 -89.5q93 0 147 70v202h-188v30h220v-242q-67 -91 -179 -91zM300 733q-11 0 -20 8.5t-9 20.5t9 20.5t20 8.5
q12 0 20.5 -8.5t8.5 -20.5t-8.5 -20.5t-20.5 -8.5z" />
    <glyph glyph-name="gdotaccent" unicode="&#x121;" 
d="M220 -196q-91 0 -147 60l21 25q46 -58 126 -58q61 0 97 36.5t36 109.5v99q-20 -39 -56 -64.5t-75 -25.5q-80 0 -124 70t-44 184t44 184.5t124 70.5q40 0 75 -23.5t56 -65.5v77h30v-506q0 -89 -43.5 -131t-119.5 -42zM222 13q41 0 77.5 29.5t53.5 70.5v255
q-17 41 -53.5 70.5t-77.5 29.5q-67 0 -101 -64.5t-34 -163.5q0 -98 34 -162.5t101 -64.5zM226 566q-11 0 -20 8.5t-9 20.5t9 20.5t20 8.5q12 0 20.5 -8.5t8.5 -20.5t-8.5 -20.5t-20.5 -8.5z" />
    <glyph glyph-name="Gcommaaccent" unicode="&#x122;" horiz-adv-x="542" 
d="M339 -137q0 -36 -18 -69.5t-44 -51.5l-22 18q24 18 38.5 43.5t14.5 48.5q-6 -1 -8 -1q-14 0 -23 9.5t-9 23.5q0 13 9 22.5t23 9.5q16 0 27.5 -14t11.5 -39zM298 -13q-107 0 -173 96t-66 250t66 249.5t173 95.5q108 0 179 -103l-26 -17q-56 90 -153 90q-92 0 -148 -89
t-56 -226q0 -136 56.5 -225.5t147.5 -89.5q93 0 147 70v202h-188v30h220v-242q-67 -91 -179 -91z" />
    <glyph glyph-name="gcommaaccent" unicode="&#x123;" 
d="M187 610q0 40 18.5 76.5t41.5 52.5l24 -19q-24 -18 -38.5 -43.5t-14.5 -48.5q2 1 4 1q12 0 22.5 -10t10.5 -23q0 -12 -9.5 -22t-23.5 -10q-16 0 -25.5 13t-9.5 33zM220 -196q-91 0 -147 60l21 25q46 -58 126 -58q61 0 97 36.5t36 109.5v99q-20 -39 -56 -64.5t-75 -25.5
q-80 0 -124 70t-44 184t44 184.5t124 70.5q40 0 75 -23.5t56 -65.5v77h30v-506q0 -89 -43.5 -131t-119.5 -42zM222 13q41 0 77.5 29.5t53.5 70.5v255q-17 41 -53.5 70.5t-77.5 29.5q-67 0 -101 -64.5t-34 -163.5q0 -98 34 -162.5t101 -64.5z" />
    <glyph glyph-name="Hcircumflex" unicode="&#x124;" horiz-adv-x="545" 
d="M374 723h-25l-79 118l-75 -118h-26l83 144h36zM465 0h-32v328h-321v-328h-32v667h32v-309h321v309h32v-667z" />
    <glyph glyph-name="hcircumflex" unicode="&#x125;" horiz-adv-x="435" 
d="M322 723h-25l-79 118l-75 -118h-26l83 144h36zM360 0h-30v367q0 101 -89 101q-39 0 -76.5 -27t-58.5 -65v-376h-30v667h30v-258q23 36 61.5 61t77.5 25q58 0 86.5 -30t28.5 -98v-367z" />
    <glyph glyph-name="Hbar" unicode="&#x126;" horiz-adv-x="582" 
d="M484 0h-32v328h-321v-328h-32v501h-80v27h80v139h32v-139h321v139h32v-139h71v-27h-71v-501zM131 358h321v143h-321v-143z" />
    <glyph glyph-name="hbar" unicode="&#x127;" horiz-adv-x="443" 
d="M260 541h-146v-132q23 36 61.5 61t77.5 25q58 0 86.5 -30t28.5 -98v-367h-30v367q0 101 -89 101q-39 0 -76.5 -27t-58.5 -65v-376h-30v541h-66v27h66v99h30v-99h146v-27z" />
    <glyph glyph-name="Itilde" unicode="&#x128;" horiz-adv-x="192" 
d="M112 0h-32v667h32v-667zM146 721q-23 0 -38 17.5t-21 39t-17.5 39t-26.5 17.5q-49 0 -49 -107h-24q0 58 19.5 96t56.5 38q23 0 38 -17.5t21 -39t17.5 -39t26.5 -17.5q48 0 48 107h24q0 -57 -19 -95.5t-56 -38.5z" />
    <glyph glyph-name="itilde" unicode="&#x129;" horiz-adv-x="181" 
d="M106 0h-30v483h30v-483zM141 554q-23 0 -38 17.5t-21 39t-17.5 39t-26.5 17.5q-49 0 -49 -107h-24q0 58 19.5 96t56.5 38q23 0 38 -17.5t21 -39t17.5 -39t26.5 -17.5q48 0 48 107h24q0 -57 -19 -95.5t-56 -38.5z" />
    <glyph glyph-name="Imacron" unicode="&#x12a;" horiz-adv-x="192" 
d="M112 0h-32v667h32v-667zM247 748h-302v27h302v-27z" />
    <glyph glyph-name="imacron" unicode="&#x12b;" horiz-adv-x="181" 
d="M106 0h-30v483h30v-483zM242 581h-302v27h302v-27z" />
    <glyph glyph-name="Ibreve" unicode="&#x12c;" horiz-adv-x="192" 
d="M112 0h-32v667h32v-667zM242 792q-54 -73 -145 -73t-146 73l22 18q20 -29 53.5 -46.5t70.5 -17.5t70.5 17.5t53.5 46.5z" />
    <glyph glyph-name="ibreve" unicode="&#x12d;" horiz-adv-x="181" 
d="M106 0h-30v483h30v-483zM236 625q-54 -73 -145 -73t-146 73l22 18q20 -29 53.5 -46.5t70.5 -17.5t70.5 17.5t53.5 46.5z" />
    <glyph glyph-name="Iogonek" unicode="&#x12e;" horiz-adv-x="192" 
d="M125 -117l25 -11q-18 -58 -73 -58q-31 0 -51 19.5t-20 57.5q0 71 74 120v656h32v-667q-77 -44 -77 -109q0 -50 42 -50q37 0 48 42z" />
    <glyph glyph-name="iogonek" unicode="&#x12f;" horiz-adv-x="181" 
d="M119 -117l25 -11q-18 -58 -73 -58q-31 0 -51 19.5t-20 57.5q0 72 76 121v471h30v-483q-77 -44 -77 -109q0 -50 42 -50q37 0 48 42zM91 566q-11 0 -20 8.5t-9 20.5t9 20.5t20 8.5q12 0 20.5 -8.5t8.5 -20.5t-8.5 -20.5t-20.5 -8.5z" />
    <glyph glyph-name="Idotaccent" unicode="&#x130;" horiz-adv-x="192" 
d="M112 0h-32v667h32v-667zM96 733q-11 0 -20 8.5t-9 20.5t9 20.5t20 8.5q12 0 20.5 -8.5t8.5 -20.5t-8.5 -20.5t-20.5 -8.5z" />
    <glyph glyph-name="dotlessi" unicode="&#x131;" horiz-adv-x="181" 
d="M106 0h-30v483h30v-483z" />
    <glyph glyph-name="IJ" unicode="&#x132;" horiz-adv-x="574" 
d="M112 0h-32v667h32v-667zM339 -12q-83 0 -136 71l26 23q44 -64 110 -64q58 0 90.5 35.5t32.5 99.5v514h32v-514q0 -81 -43 -123t-112 -42z" />
    <glyph glyph-name="ij" unicode="&#x133;" horiz-adv-x="362" 
d="M91 566q-11 0 -20 8.5t-9 20.5t9 20.5t20 8.5q12 0 20.5 -8.5t8.5 -20.5t-8.5 -20.5t-20.5 -8.5zM106 0h-30v483h30v-483zM272 566q-11 0 -20 8.5t-9 20.5t9 20.5t20 8.5q12 0 20.5 -8.5t8.5 -20.5t-8.5 -20.5t-20.5 -8.5zM195 -196q-47 0 -75 38l23 19q21 -30 52 -30
q62 0 62 83v569h30v-569q0 -110 -92 -110z" />
    <glyph glyph-name="Jcircumflex" unicode="&#x134;" horiz-adv-x="382" 
d="M388 723h-25l-79 118l-75 -118h-26l83 144h36zM147 -12q-83 0 -136 71l26 23q44 -64 110 -64q58 0 90.5 35.5t32.5 99.5v514h32v-514q0 -81 -43 -123t-112 -42z" />
    <glyph glyph-name="jcircumflex" unicode="&#x135;" horiz-adv-x="181" 
d="M194 556h-25l-79 118l-75 -118h-26l83 144h36zM14 -196q-47 0 -75 38l23 19q21 -30 52 -30q62 0 62 83v569h30v-569q0 -110 -92 -110z" />
    <glyph glyph-name="Kcommaaccent" unicode="&#x136;" horiz-adv-x="472" 
d="M281 -137q0 -36 -18 -69.5t-44 -51.5l-22 18q24 18 38.5 43.5t14.5 48.5q-6 -1 -8 -1q-14 0 -23 9.5t-9 23.5q0 13 9 22.5t23 9.5q16 0 27.5 -14t11.5 -39zM447 0h-41l-230 324l-64 -88v-236h-32v667h32v-382l273 382h41l-232 -319z" />
    <glyph glyph-name="kcommaaccent" unicode="&#x137;" horiz-adv-x="411" 
d="M250 -137q0 -36 -18 -69.5t-44 -51.5l-22 18q24 18 38.5 43.5t14.5 48.5q-6 -1 -8 -1q-14 0 -23 9.5t-9 23.5q0 13 9 22.5t23 9.5q16 0 27.5 -14t11.5 -39zM386 0h-37l-160 243l-83 -101v-142h-30v667h30v-483l247 299h37l-182 -218z" />
    <glyph glyph-name="kgreenlandic" unicode="&#x138;" horiz-adv-x="411" 
d="M386 0h-37l-160 243l-83 -101v-142h-30v483h30v-299l247 299h37l-182 -218z" />
    <glyph glyph-name="Lacute" unicode="&#x139;" horiz-adv-x="403" 
d="M346 867l-135 -144h-27l119 144h43zM369 0h-289v667h32v-637h257v-30z" />
    <glyph glyph-name="lacute" unicode="&#x13a;" horiz-adv-x="181" 
d="M212 867l-135 -144h-27l119 144h43zM106 0h-30v667h30v-667z" />
    <glyph glyph-name="Lcommaaccent" unicode="&#x13b;" horiz-adv-x="403" 
d="M266 -137q0 -36 -18 -69.5t-44 -51.5l-22 18q24 18 38.5 43.5t14.5 48.5q-6 -1 -8 -1q-14 0 -23 9.5t-9 23.5q0 13 9 22.5t23 9.5q16 0 27.5 -14t11.5 -39zM369 0h-289v667h32v-637h257v-30z" />
    <glyph glyph-name="lcommaaccent" unicode="&#x13c;" horiz-adv-x="181" 
d="M135 -137q0 -36 -18 -69.5t-44 -51.5l-22 18q24 18 38.5 43.5t14.5 48.5q-6 -1 -8 -1q-14 0 -23 9.5t-9 23.5q0 13 9 22.5t23 9.5q16 0 27.5 -14t11.5 -39zM106 0h-30v667h30v-667z" />
    <glyph glyph-name="Lcaron" unicode="&#x13d;" horiz-adv-x="403" 
d="M268 626q0 -36 -18 -69.5t-44 -51.5l-22 18q24 18 38.5 43.5t14.5 48.5q-6 -1 -8 -1q-14 0 -23 9.5t-9 23.5q0 13 9 22.5t23 9.5q16 0 27.5 -14t11.5 -39zM369 0h-289v667h32v-637h257v-30z" />
    <glyph glyph-name="lcaron" unicode="&#x13e;" horiz-adv-x="226" 
d="M248 626q0 -36 -18 -69.5t-44 -51.5l-22 18q24 18 38.5 43.5t14.5 48.5q-6 -1 -8 -1q-14 0 -23 9.5t-9 23.5q0 13 9 22.5t23 9.5q16 0 27.5 -14t11.5 -39zM106 0h-30v667h30v-667z" />
    <glyph glyph-name="Ldot" unicode="&#x13f;" horiz-adv-x="403" 
d="M369 0h-289v667h32v-637h257v-30zM326 342q0 -14 -10 -23.5t-23 -9.5t-23 9.5t-10 23.5q0 13 10 22.5t23 9.5t23 -9.5t10 -22.5z" />
    <glyph glyph-name="ldot" unicode="&#x140;" horiz-adv-x="234" 
d="M106 0h-30v667h30v-667zM241 245q0 -13 -9.5 -23t-23.5 -10t-23.5 10t-9.5 23t10 22.5t23 9.5t23 -9.5t10 -22.5z" />
    <glyph glyph-name="Lslash" unicode="&#x141;" horiz-adv-x="423" 
d="M19 259v34l81 47v327h32v-309l88 52v-34l-88 -52v-294h257v-30h-289v306z" />
    <glyph glyph-name="lslash" unicode="&#x142;" horiz-adv-x="237" 
d="M19 267v32l85 48v320h30v-303l84 49v-32l-84 -49v-332h-30v315z" />
    <glyph glyph-name="Nacute" unicode="&#x143;" horiz-adv-x="543" 
d="M403 867l-135 -144h-27l119 144h43zM463 0h-32l-319 595v-595h-32v667h32l319 -589v589h32v-667z" />
    <glyph glyph-name="nacute" unicode="&#x144;" horiz-adv-x="435" 
d="M339 700l-135 -144h-27l119 144h43zM360 0h-30v366q0 102 -89 102q-39 0 -76.5 -27t-58.5 -65v-376h-30v483h30v-74q23 36 61.5 61t77.5 25q115 0 115 -129v-366z" />
    <glyph glyph-name="Ncommaaccent" unicode="&#x145;" horiz-adv-x="543" 
d="M316 -137q0 -36 -18 -69.5t-44 -51.5l-22 18q24 18 38.5 43.5t14.5 48.5q-6 -1 -8 -1q-14 0 -23 9.5t-9 23.5q0 13 9 22.5t23 9.5q16 0 27.5 -14t11.5 -39zM463 0h-32l-319 595v-595h-32v667h32l319 -589v589h32v-667z" />
    <glyph glyph-name="ncommaaccent" unicode="&#x146;" horiz-adv-x="435" 
d="M263 -137q0 -36 -18 -69.5t-44 -51.5l-22 18q24 18 38.5 43.5t14.5 48.5q-6 -1 -8 -1q-14 0 -23 9.5t-9 23.5q0 13 9 22.5t23 9.5q16 0 27.5 -14t11.5 -39zM360 0h-30v366q0 102 -89 102q-39 0 -76.5 -27t-58.5 -65v-376h-30v483h30v-74q23 36 61.5 61t77.5 25
q115 0 115 -129v-366z" />
    <glyph glyph-name="Ncaron" unicode="&#x147;" horiz-adv-x="543" 
d="M291 723h-36l-86 144h26l78 -118l76 118h25zM463 0h-32l-319 595v-595h-32v667h32l319 -589v589h32v-667z" />
    <glyph glyph-name="ncaron" unicode="&#x148;" horiz-adv-x="435" 
d="M237 556h-36l-86 144h26l78 -118l76 118h25zM360 0h-30v366q0 102 -89 102q-39 0 -76.5 -27t-58.5 -65v-376h-30v483h30v-74q23 36 61.5 61t77.5 25q115 0 115 -129v-366z" />
    <glyph glyph-name="napostrophe" unicode="&#x149;" horiz-adv-x="435" 
d="M138 672q0 -36 -18 -69.5t-44 -51.5l-22 18q24 18 38.5 43.5t14.5 48.5q-6 -1 -8 -1q-14 0 -23 9.5t-9 23.5q0 13 9 22.5t23 9.5q16 0 27.5 -14t11.5 -39zM360 0h-30v366q0 102 -89 102q-39 0 -76.5 -27t-58.5 -65v-376h-30v483h30v-74q23 36 61.5 61t77.5 25
q115 0 115 -129v-366z" />
    <glyph glyph-name="Eng" unicode="&#x14a;" horiz-adv-x="543" 
d="M308 -196q-83 0 -136 70l26 24q44 -64 110 -64q58 0 90.5 34.5t32.5 98.5v33l-319 595v-595h-32v667h32l319 -589v589h32v-700q0 -81 -43 -122t-112 -41z" />
    <glyph glyph-name="eng" unicode="&#x14b;" horiz-adv-x="435" 
d="M360 366v-452q0 -110 -92 -110q-46 0 -74 38l23 19q21 -30 51 -30q62 0 62 83v452q0 102 -89 102q-39 0 -76.5 -27t-58.5 -65v-376h-30v483h30v-74q23 36 61.5 61t77.5 25q115 0 115 -129z" />
    <glyph glyph-name="Omacron" unicode="&#x14c;" horiz-adv-x="580" 
d="M441 748h-302v27h302v-27zM290 -12q-110 0 -170.5 98t-60.5 247t60.5 247t170.5 98t170.5 -98t60.5 -247t-60.5 -247t-170.5 -98zM290 18q92 0 144 89.5t52 225.5q0 137 -52 226t-144 89t-144 -89t-52 -226q0 -136 52 -225.5t144 -89.5z" />
    <glyph glyph-name="omacron" unicode="&#x14d;" horiz-adv-x="461" 
d="M382 581h-302v27h302v-27zM231 -12q-84 0 -130.5 72.5t-46.5 181.5q0 108 46.5 180.5t130.5 72.5t130.5 -72.5t46.5 -180.5q0 -109 -46.5 -181.5t-130.5 -72.5zM231 15q71 0 107.5 66.5t36.5 160.5q0 93 -36.5 159.5t-107.5 66.5q-70 0 -107 -66.5t-37 -159.5t37 -160
t107 -67z" />
    <glyph glyph-name="Obreve" unicode="&#x14e;" horiz-adv-x="580" 
d="M290 -12q-110 0 -170.5 98t-60.5 247t60.5 247t170.5 98t170.5 -98t60.5 -247t-60.5 -247t-170.5 -98zM290 18q92 0 144 89.5t52 225.5q0 137 -52 226t-144 89t-144 -89t-52 -226q0 -136 52 -225.5t144 -89.5zM435 792q-54 -73 -145 -73t-146 73l22 18q20 -29 53.5 -46.5
t70.5 -17.5t70.5 17.5t53.5 46.5z" />
    <glyph glyph-name="obreve" unicode="&#x14f;" horiz-adv-x="461" 
d="M231 -12q-84 0 -130.5 72.5t-46.5 181.5q0 108 46.5 180.5t130.5 72.5t130.5 -72.5t46.5 -180.5q0 -109 -46.5 -181.5t-130.5 -72.5zM231 15q71 0 107.5 66.5t36.5 160.5q0 93 -36.5 159.5t-107.5 66.5q-70 0 -107 -66.5t-37 -159.5t37 -160t107 -67zM377 625
q-54 -73 -145 -73t-146 73l22 18q20 -29 53.5 -46.5t70.5 -17.5t70.5 17.5t53.5 46.5z" />
    <glyph glyph-name="Ohungarumlaut" unicode="&#x150;" horiz-adv-x="580" 
d="M323 867l-95 -144h-23l79 144h39zM444 867l-95 -144h-23l79 144h39zM290 -12q-110 0 -170.5 98t-60.5 247t60.5 247t170.5 98t170.5 -98t60.5 -247t-60.5 -247t-170.5 -98zM290 18q92 0 144 89.5t52 225.5q0 137 -52 226t-144 89t-144 -89t-52 -226q0 -136 52 -225.5
t144 -89.5z" />
    <glyph glyph-name="ohungarumlaut" unicode="&#x151;" horiz-adv-x="461" 
d="M264 700l-95 -144h-23l79 144h39zM385 700l-95 -144h-23l79 144h39zM231 -12q-84 0 -130.5 72.5t-46.5 181.5q0 108 46.5 180.5t130.5 72.5t130.5 -72.5t46.5 -180.5q0 -109 -46.5 -181.5t-130.5 -72.5zM231 15q71 0 107.5 66.5t36.5 160.5q0 93 -36.5 159.5t-107.5 66.5
q-70 0 -107 -66.5t-37 -159.5t37 -160t107 -67z" />
    <glyph glyph-name="OE" unicode="&#x152;" horiz-adv-x="843" 
d="M784 0h-309v119q-29 -67 -79 -99t-106 -32q-110 0 -170.5 98.5t-60.5 246.5q0 149 60.5 246.5t170.5 97.5q57 0 106.5 -31t78.5 -97v118h309v-30h-277v-279h270v-30h-270v-298h277v-30zM475 193v282q-23 83 -71.5 127.5t-113.5 44.5q-93 0 -144.5 -88.5t-51.5 -225.5
q0 -136 51.5 -225.5t144.5 -89.5q65 0 113.5 45.5t71.5 129.5z" />
    <glyph glyph-name="oe" unicode="&#x153;" horiz-adv-x="780" 
d="M729 232h-321q2 -95 44 -156t114 -61q73 0 124 71l23 -17q-61 -81 -147 -81q-73 0 -115.5 42.5t-58.5 104.5q-15 -62 -54 -104.5t-107 -42.5q-84 0 -130.5 72.5t-46.5 181.5q0 108 46.5 180.5t130.5 72.5q68 0 107.5 -42t53.5 -102q14 59 55 101.5t106 42.5
q87 0 131.5 -72t44.5 -181v-10zM408 259h289q0 50 -14 95.5t-48 79.5t-83 34q-47 0 -80.5 -34.5t-48 -80t-15.5 -94.5zM375 242q0 93 -36.5 159.5t-107.5 66.5q-70 0 -107 -66.5t-37 -159.5t37 -160.5t107 -67.5q71 0 107.5 67.5t36.5 160.5z" />
    <glyph glyph-name="Racute" unicode="&#x154;" horiz-adv-x="473" 
d="M364 867l-135 -144h-27l119 144h43zM419 0h-39l-151 289h-117v-289h-32v667h165q73 0 119.5 -50t46.5 -139q0 -86 -42.5 -134t-104.5 -53zM245 319q62 0 96.5 44t34.5 115t-34.5 115t-96.5 44h-133v-318h133z" />
    <glyph glyph-name="racute" unicode="&#x155;" horiz-adv-x="266" 
d="M282 700l-135 -144h-27l119 144h43zM106 0h-30v483h30v-86q57 95 140 95v-36q-7 1 -19 1q-36 0 -70.5 -29t-50.5 -66v-362z" />
    <glyph glyph-name="Rcommaaccent" unicode="&#x156;" horiz-adv-x="473" 
d="M280 -137q0 -36 -18 -69.5t-44 -51.5l-22 18q24 18 38.5 43.5t14.5 48.5q-6 -1 -8 -1q-14 0 -23 9.5t-9 23.5q0 13 9 22.5t23 9.5q16 0 27.5 -14t11.5 -39zM419 0h-39l-151 289h-117v-289h-32v667h165q73 0 119.5 -50t46.5 -139q0 -86 -42.5 -134t-104.5 -53zM245 319
q62 0 96.5 44t34.5 115t-34.5 115t-96.5 44h-133v-318h133z" />
    <glyph glyph-name="rcommaaccent" unicode="&#x157;" horiz-adv-x="266" 
d="M178 -137q0 -36 -18 -69.5t-44 -51.5l-22 18q24 18 38.5 43.5t14.5 48.5q-6 -1 -8 -1q-14 0 -23 9.5t-9 23.5q0 13 9 22.5t23 9.5q16 0 27.5 -14t11.5 -39zM106 0h-30v483h30v-86q57 95 140 95v-36q-7 1 -19 1q-36 0 -70.5 -29t-50.5 -66v-362z" />
    <glyph glyph-name="Rcaron" unicode="&#x158;" horiz-adv-x="473" 
d="M255 723h-36l-86 144h26l78 -118l76 118h25zM419 0h-39l-151 289h-117v-289h-32v667h165q73 0 119.5 -50t46.5 -139q0 -86 -42.5 -134t-104.5 -53zM245 319q62 0 96.5 44t34.5 115t-34.5 115t-96.5 44h-133v-318h133z" />
    <glyph glyph-name="rcaron" unicode="&#x159;" horiz-adv-x="266" 
d="M177 556h-36l-86 144h26l78 -118l76 118h25zM106 0h-30v483h30v-86q57 95 140 95v-36q-7 1 -19 1q-36 0 -70.5 -29t-50.5 -66v-362z" />
    <glyph glyph-name="Sacute" unicode="&#x15a;" horiz-adv-x="447" 
d="M348 867l-135 -144h-27l119 144h43zM216 -12q-111 0 -176 82l25 24q25 -33 64.5 -54.5t86.5 -21.5q74 0 111 40.5t37 99.5q0 41 -17 72.5t-43.5 51.5t-59 37.5l-65 35.5t-59 38.5t-43.5 53t-17 73.5q0 72 49 115t118 43q100 0 156 -67l-22 -24q-49 61 -134 61
q-56 0 -95 -35.5t-39 -92.5q0 -47 31.5 -81.5t76 -57t89 -48t76 -69.5t31.5 -106q0 -69 -45.5 -119.5t-135.5 -50.5z" />
    <glyph glyph-name="sacute" unicode="&#x15b;" horiz-adv-x="366" 
d="M302 700l-135 -144h-27l119 144h43zM179 -12q-89 0 -143 68l23 22q46 -63 120 -63q49 0 80 28t31 73q0 39 -25 65.5t-60.5 43l-71 33.5t-60.5 47t-25 74q0 50 37.5 83t97.5 33q84 0 129 -62l-21 -20q-36 55 -108 55q-48 0 -76.5 -25.5t-28.5 -63.5q0 -36 25 -61
t60.5 -40.5t71 -33t60.5 -50t25 -78.5q0 -56 -38.5 -92t-102.5 -36z" />
    <glyph glyph-name="Scircumflex" unicode="&#x15c;" horiz-adv-x="447" 
d="M327 723h-25l-79 118l-75 -118h-26l83 144h36zM216 -12q-111 0 -176 82l25 24q25 -33 64.5 -54.5t86.5 -21.5q74 0 111 40.5t37 99.5q0 41 -17 72.5t-43.5 51.5t-59 37.5l-65 35.5t-59 38.5t-43.5 53t-17 73.5q0 72 49 115t118 43q100 0 156 -67l-22 -24q-49 61 -134 61
q-56 0 -95 -35.5t-39 -92.5q0 -47 31.5 -81.5t76 -57t89 -48t76 -69.5t31.5 -106q0 -69 -45.5 -119.5t-135.5 -50.5z" />
    <glyph glyph-name="scircumflex" unicode="&#x15d;" horiz-adv-x="366" 
d="M286 556h-25l-79 118l-75 -118h-26l83 144h36zM179 -12q-89 0 -143 68l23 22q46 -63 120 -63q49 0 80 28t31 73q0 39 -25 65.5t-60.5 43l-71 33.5t-60.5 47t-25 74q0 50 37.5 83t97.5 33q84 0 129 -62l-21 -20q-36 55 -108 55q-48 0 -76.5 -25.5t-28.5 -63.5
q0 -36 25 -61t60.5 -40.5t71 -33t60.5 -50t25 -78.5q0 -56 -38.5 -92t-102.5 -36z" />
    <glyph glyph-name="Scedilla" unicode="&#x15e;" horiz-adv-x="447" 
d="M213 -187q-49 0 -82 28l14 26q30 -27 68 -27q25 0 42.5 13.5t17.5 35.5q0 41 -38 41q-23 0 -37 -17l-22 13l23 63q-99 6 -159 81l25 24q25 -33 64.5 -54.5t86.5 -21.5q74 0 111 40.5t37 99.5q0 41 -17 72.5t-43.5 51.5t-59 37.5l-65 35.5t-59 38.5t-43.5 53t-17 73.5
q0 72 49 115t118 43q100 0 156 -67l-22 -24q-49 61 -134 61q-56 0 -95 -35.5t-39 -92.5q0 -47 31.5 -81.5t76 -57t89 -48t76 -69.5t31.5 -106q0 -67 -42 -116.5t-127 -53.5l-17 -47q12 11 33 11q25 0 41.5 -17t16.5 -46q0 -33 -25.5 -54.5t-63.5 -21.5z" />
    <glyph glyph-name="scedilla" unicode="&#x15f;" horiz-adv-x="366" 
d="M176 -187q-49 0 -82 28l14 26q30 -27 68 -27q25 0 42.5 13.5t17.5 35.5q0 41 -38 41q-23 0 -37 -17l-22 13l23 63q-76 4 -126 67l23 22q46 -63 120 -63q49 0 80 28t31 73q0 39 -25 65.5t-60.5 43l-71 33.5t-60.5 47t-25 74q0 50 37.5 83t97.5 33q84 0 129 -62l-21 -20
q-36 55 -108 55q-48 0 -76.5 -25.5t-28.5 -63.5q0 -36 25 -61t60.5 -40.5t71 -33t60.5 -50t25 -78.5q0 -53 -35 -88t-94 -39l-17 -48q12 11 33 11q25 0 41.5 -17t16.5 -46q0 -33 -25.5 -54.5t-63.5 -21.5z" />
    <glyph glyph-name="Scaron" unicode="&#x160;" horiz-adv-x="447" 
d="M244 723h-36l-86 144h26l78 -118l76 118h25zM216 -12q-111 0 -176 82l25 24q25 -33 64.5 -54.5t86.5 -21.5q74 0 111 40.5t37 99.5q0 41 -17 72.5t-43.5 51.5t-59 37.5l-65 35.5t-59 38.5t-43.5 53t-17 73.5q0 72 49 115t118 43q100 0 156 -67l-22 -24q-49 61 -134 61
q-56 0 -95 -35.5t-39 -92.5q0 -47 31.5 -81.5t76 -57t89 -48t76 -69.5t31.5 -106q0 -69 -45.5 -119.5t-135.5 -50.5z" />
    <glyph glyph-name="scaron" unicode="&#x161;" horiz-adv-x="366" 
d="M203 556h-36l-86 144h26l78 -118l76 118h25zM179 -12q-89 0 -143 68l23 22q46 -63 120 -63q49 0 80 28t31 73q0 39 -25 65.5t-60.5 43l-71 33.5t-60.5 47t-25 74q0 50 37.5 83t97.5 33q84 0 129 -62l-21 -20q-36 55 -108 55q-48 0 -76.5 -25.5t-28.5 -63.5q0 -36 25 -61
t60.5 -40.5t71 -33t60.5 -50t25 -78.5q0 -56 -38.5 -92t-102.5 -36z" />
    <glyph glyph-name="Tcommaaccent" unicode="&#x162;" horiz-adv-x="423" 
d="M256 -137q0 -36 -18 -69.5t-44 -51.5l-22 18q24 18 38.5 43.5t14.5 48.5q-6 -1 -8 -1q-14 0 -23 9.5t-9 23.5q0 13 9 22.5t23 9.5q16 0 27.5 -14t11.5 -39zM227 0h-32v637h-167v30h367v-30h-168v-637z" />
    <glyph glyph-name="tcommaaccent" unicode="&#x163;" horiz-adv-x="234" 
d="M162 -137q0 -36 -18 -69.5t-44 -51.5l-22 18q24 18 38.5 43.5t14.5 48.5q-6 -1 -8 -1q-14 0 -23 9.5t-9 23.5q0 13 9 22.5t23 9.5q16 0 27.5 -14t11.5 -39zM158 -12q-73 0 -73 93v375h-66v27h66v132h30v-132h84v-27h-84v-375q0 -66 43 -66q28 0 47 24l19 -21
q-28 -30 -66 -30z" />
    <glyph glyph-name="Tcaron" unicode="&#x164;" horiz-adv-x="423" 
d="M231 723h-36l-86 144h26l78 -118l76 118h25zM227 0h-32v637h-167v30h367v-30h-168v-637z" />
    <glyph glyph-name="tcaron" unicode="&#x165;" horiz-adv-x="234" 
d="M253 672q0 -36 -18 -69.5t-44 -51.5l-22 18q24 18 38.5 43.5t14.5 48.5q-6 -1 -8 -1q-14 0 -23 9.5t-9 23.5q0 13 9 22.5t23 9.5q16 0 27.5 -14t11.5 -39zM158 -12q-73 0 -73 93v375h-66v27h66v132h30v-132h84v-27h-84v-375q0 -66 43 -66q28 0 47 24l19 -21
q-28 -30 -66 -30z" />
    <glyph glyph-name="Tbar" unicode="&#x166;" horiz-adv-x="423" 
d="M227 0h-32v321h-122v27h122v289h-167v30h367v-30h-168v-289h118v-27h-118v-321z" />
    <glyph glyph-name="tbar" unicode="&#x167;" horiz-adv-x="234" 
d="M158 -12q-73 0 -73 93v161h-66v27h66v187h-66v27h66v132h30v-132h84v-27h-84v-187h55v-27h-55v-161q0 -66 43 -66q28 0 47 24l19 -21q-28 -30 -66 -30z" />
    <glyph glyph-name="Utilde" unicode="&#x168;" horiz-adv-x="534" 
d="M267 -12q-90 0 -138.5 55.5t-48.5 160.5v463h32v-463q0 -92 40 -139t115 -47t115 47t40 139v463h32v-463q0 -106 -48 -161t-139 -55zM319 721q-23 0 -38 17.5t-21 39t-17.5 39t-26.5 17.5q-49 0 -49 -107h-24q0 58 19.5 96t56.5 38q23 0 38 -17.5t21 -39t17.5 -39
t26.5 -17.5q48 0 48 107h24q0 -57 -19 -95.5t-56 -38.5z" />
    <glyph glyph-name="utilde" unicode="&#x169;" horiz-adv-x="435" 
d="M360 0h-30v72q-58 -84 -139 -84q-59 0 -87 30t-28 99v366h30v-366q0 -102 89 -102q39 0 77 26t58 64v378h30v-483zM268 554q-23 0 -38 17.5t-21 39t-17.5 39t-26.5 17.5q-49 0 -49 -107h-24q0 58 19.5 96t56.5 38q23 0 38 -17.5t21 -39t17.5 -39t26.5 -17.5q48 0 48 107
h24q0 -57 -19 -95.5t-56 -38.5z" />
    <glyph glyph-name="Umacron" unicode="&#x16a;" horiz-adv-x="534" 
d="M267 -12q-90 0 -138.5 55.5t-48.5 160.5v463h32v-463q0 -92 40 -139t115 -47t115 47t40 139v463h32v-463q0 -106 -48 -161t-139 -55zM418 748h-302v27h302v-27z" />
    <glyph glyph-name="umacron" unicode="&#x16b;" horiz-adv-x="435" 
d="M360 0h-30v72q-58 -84 -139 -84q-59 0 -87 30t-28 99v366h30v-366q0 -102 89 -102q39 0 77 26t58 64v378h30v-483zM369 581h-302v27h302v-27z" />
    <glyph glyph-name="Ubreve" unicode="&#x16c;" horiz-adv-x="534" 
d="M267 -12q-90 0 -138.5 55.5t-48.5 160.5v463h32v-463q0 -92 40 -139t115 -47t115 47t40 139v463h32v-463q0 -106 -48 -161t-139 -55zM415 792q-54 -73 -145 -73t-146 73l22 18q20 -29 53.5 -46.5t70.5 -17.5t70.5 17.5t53.5 46.5z" />
    <glyph glyph-name="ubreve" unicode="&#x16d;" horiz-adv-x="435" 
d="M360 0h-30v72q-58 -84 -139 -84q-59 0 -87 30t-28 99v366h30v-366q0 -102 89 -102q39 0 77 26t58 64v378h30v-483zM364 625q-54 -73 -145 -73t-146 73l22 18q20 -29 53.5 -46.5t70.5 -17.5t70.5 17.5t53.5 46.5z" />
    <glyph glyph-name="Uring" unicode="&#x16e;" horiz-adv-x="534" 
d="M268 720q-35 0 -60.5 25.5t-25.5 60.5t25.5 60t60.5 25t59.5 -25t24.5 -60t-24.5 -60.5t-59.5 -25.5zM268 744q25 0 43 18t18 44t-17.5 43.5t-43.5 17.5t-44 -18t-18 -43q0 -26 18 -44t44 -18zM267 -12q-90 0 -138.5 55.5t-48.5 160.5v463h32v-463q0 -92 40 -139t115 -47
t115 47t40 139v463h32v-463q0 -106 -48 -161t-139 -55z" />
    <glyph glyph-name="uring" unicode="&#x16f;" horiz-adv-x="435" 
d="M218 553q-35 0 -60.5 25.5t-25.5 60.5t25.5 60t60.5 25t59.5 -25t24.5 -60t-24.5 -60.5t-59.5 -25.5zM218 577q25 0 43 18t18 44q0 25 -17.5 43t-43.5 18t-44 -18t-18 -43t18 -43.5t44 -18.5zM360 0h-30v72q-58 -84 -139 -84q-59 0 -87 30t-28 99v366h30v-366
q0 -102 89 -102q39 0 77 26t58 64v378h30v-483z" />
    <glyph glyph-name="Uhungarumlaut" unicode="&#x170;" horiz-adv-x="534" 
d="M267 -12q-90 0 -138.5 55.5t-48.5 160.5v463h32v-463q0 -92 40 -139t115 -47t115 47t40 139v463h32v-463q0 -106 -48 -161t-139 -55zM300 867l-95 -144h-23l79 144h39zM421 867l-95 -144h-23l79 144h39z" />
    <glyph glyph-name="uhungarumlaut" unicode="&#x171;" horiz-adv-x="435" 
d="M360 0h-30v72q-58 -84 -139 -84q-59 0 -87 30t-28 99v366h30v-366q0 -102 89 -102q39 0 77 26t58 64v378h30v-483zM251 700l-95 -144h-23l79 144h39zM372 700l-95 -144h-23l79 144h39z" />
    <glyph glyph-name="Uogonek" unicode="&#x172;" horiz-adv-x="534" 
d="M267 -12q-90 0 -138.5 55.5t-48.5 160.5v463h32v-463q0 -92 40 -139t115 -47t115 47t40 139v463h32v-463q0 -164 -112 -204q-77 -44 -77 -109q0 -50 42 -50q37 0 48 42l25 -11q-18 -58 -73 -58q-31 0 -51 19.5t-20 57.5q0 55 45 98q-5 -1 -14 -1z" />
    <glyph glyph-name="uogonek" unicode="&#x173;" horiz-adv-x="435" 
d="M360 0q-77 -44 -77 -109q0 -50 42 -50q37 0 48 42l25 -11q-18 -58 -73 -58q-31 0 -51 19.5t-20 57.5q0 72 76 121v60q-58 -84 -139 -84q-59 0 -87 30t-28 99v366h30v-366q0 -102 89 -102q39 0 77 26t58 64v378h30v-483z" />
    <glyph glyph-name="Wcircumflex" unicode="&#x174;" horiz-adv-x="671" 
d="M439 723h-25l-79 118l-75 -118h-26l83 144h36zM502 0h-38l-128 597l-128 -597h-38l-145 667h35l129 -611l130 611h34l130 -611l129 611h35z" />
    <glyph glyph-name="wcircumflex" unicode="&#x175;" horiz-adv-x="594" 
d="M400 556h-25l-79 118l-75 -118h-26l83 144h36zM443 0h-27l-119 439l-119 -439h-27l-130 483h33l111 -436l117 436h30l117 -436l111 436h33z" />
    <glyph glyph-name="Ycircumflex" unicode="&#x176;" horiz-adv-x="466" 
d="M337 723h-25l-79 118l-75 -118h-26l83 144h36zM249 0h-32v289l-205 378h38l183 -342l184 342h38l-206 -378v-289z" />
    <glyph glyph-name="ycircumflex" unicode="&#x177;" horiz-adv-x="375" 
d="M39 -189l6 27q13 -7 33 -7q22 0 35 13t25 47l34 98l-158 494h34l140 -445l140 445h34l-197 -602q-26 -77 -87 -77q-23 0 -39 7zM291 556h-25l-79 118l-75 -118h-26l83 144h36z" />
    <glyph glyph-name="Ydieresis" unicode="&#x178;" horiz-adv-x="466" 
d="M346 765q0 -11 -8.5 -19.5t-19.5 -8.5t-19.5 8.5t-8.5 19.5t8.5 19.5t19.5 8.5t19.5 -8.5t8.5 -19.5zM184 765q0 -11 -8.5 -19.5t-19.5 -8.5t-19.5 8.5t-8.5 19.5t8.5 19.5t19.5 8.5t19.5 -8.5t8.5 -19.5zM249 0h-32v289l-205 378h38l183 -342l184 342h38l-206 -378v-289
z" />
    <glyph glyph-name="Zacute" unicode="&#x179;" horiz-adv-x="444" 
d="M343 867l-135 -144h-27l119 144h43zM399 0h-354v31l312 606h-312v30h347v-30l-313 -607h320v-30z" />
    <glyph glyph-name="zacute" unicode="&#x17a;" horiz-adv-x="371" 
d="M307 700l-135 -144h-27l119 144h43zM320 0h-269v27l232 429h-232v27h265v-27l-232 -429h236v-27z" />
    <glyph glyph-name="Zdotaccent" unicode="&#x17b;" horiz-adv-x="444" 
d="M399 0h-354v31l312 606h-312v30h347v-30l-313 -607h320v-30zM222 733q-11 0 -20 8.5t-9 20.5t9 20.5t20 8.5q12 0 20.5 -8.5t8.5 -20.5t-8.5 -20.5t-20.5 -8.5z" />
    <glyph glyph-name="zdotaccent" unicode="&#x17c;" horiz-adv-x="371" 
d="M320 0h-269v27l232 429h-232v27h265v-27l-232 -429h236v-27zM185 566q-11 0 -20 8.5t-9 20.5t9 20.5t20 8.5q12 0 20.5 -8.5t8.5 -20.5t-8.5 -20.5t-20.5 -8.5z" />
    <glyph glyph-name="Zcaron" unicode="&#x17d;" horiz-adv-x="444" 
d="M242 723h-36l-86 144h26l78 -118l76 118h25zM399 0h-354v31l312 606h-312v30h347v-30l-313 -607h320v-30z" />
    <glyph glyph-name="zcaron" unicode="&#x17e;" horiz-adv-x="371" 
d="M200 556h-36l-86 144h26l78 -118l76 118h25zM320 0h-269v27l232 429h-232v27h265v-27l-232 -429h236v-27z" />
    <glyph glyph-name="longs" unicode="&#x17f;" horiz-adv-x="224" 
d="M119 0h-30v456h-65v27h65v79q0 53 27 84t73 31q41 0 69 -28l-19 -24q-21 25 -50 25q-70 0 -70 -88v-562z" />
    <glyph glyph-name="florin" unicode="&#x192;" horiz-adv-x="374" 
d="M67 -161h-32l95 428h-65v30h71l59 265q12 54 45.5 84.5t80.5 30.5q40 0 63 -28l-24 -22q-14 20 -41 20q-35 0 -59 -23t-33 -63l-58 -264h131v-30h-138z" />
    <glyph glyph-name="Ohorn" unicode="&#x1a0;" horiz-adv-x="580" 
d="M290 -12q-110 0 -170.5 98t-60.5 247t60.5 247t170.5 98q116 0 177 -110q43 40 43 84q-5 -1 -7 -1q-14 0 -23 9.5t-9 23.5q0 13 9 22.5t23 9.5q16 0 27 -14t11 -39q0 -35 -18 -68t-43 -52q41 -90 41 -210q0 -149 -60.5 -247t-170.5 -98zM290 18q92 0 144 89.5t52 225.5
q0 137 -52 226t-144 89t-144 -89t-52 -226q0 -136 52 -225.5t144 -89.5z" />
    <glyph glyph-name="ohorn" unicode="&#x1a1;" horiz-adv-x="461" 
d="M420 529q0 -68 -54 -115q42 -68 42 -172q0 -109 -46.5 -181.5t-130.5 -72.5t-130.5 72.5t-46.5 181.5q0 108 46.5 180.5t130.5 72.5q72 0 119 -57q39 37 39 80q-6 -1 -8 -1q-14 0 -23 9.5t-9 23.5q0 13 9 22.5t23 9.5q16 0 27.5 -14t11.5 -39zM231 15q71 0 107.5 66.5
t36.5 160.5q0 93 -36.5 159.5t-107.5 66.5q-70 0 -107 -66.5t-37 -159.5t37 -160t107 -67z" />
    <glyph glyph-name="Uhorn" unicode="&#x1af;" horiz-adv-x="534" 
d="M560 730q0 -45 -29 -85t-77 -63v-378q0 -106 -48 -161t-139 -55q-90 0 -138.5 55.5t-48.5 160.5v463h32v-463q0 -92 40 -139t115 -47t115 47t40 139v463h32v-54q32 17 53.5 47.5t21.5 58.5q-6 -1 -8 -1q-14 0 -23 9.5t-9 23.5q0 13 9 22.5t23 9.5q16 0 27.5 -14t11.5 -39
z" />
    <glyph glyph-name="uhorn" unicode="&#x1b0;" horiz-adv-x="435" 
d="M360 0h-30v72q-58 -84 -139 -84q-59 0 -87 30t-28 99v366h30v-366q0 -102 89 -102q39 0 77 26t58 64v378h30v-63q27 19 44 46t17 52q-5 -1 -7 -1q-14 0 -23 9.5t-9 23.5q0 13 9 22.5t23 9.5q16 0 27 -14t11 -39q0 -42 -24.5 -79.5t-67.5 -61.5v-388z" />
    <glyph glyph-name="AEacute" unicode="&#x1fc;" horiz-adv-x="720" 
d="M490 867l-135 -144h-27l119 144h43zM661 0h-309v179h-211l-84 -179h-35l318 667h321v-30h-277v-279h270v-30h-270v-298h277v-30zM352 209v416l-198 -416h198z" />
    <glyph glyph-name="aeacute" unicode="&#x1fd;" horiz-adv-x="724" 
d="M460 700l-135 -144h-27l119 144h43zM674 232h-305q2 -96 41.5 -156.5t107.5 -60.5q70 0 116 71l23 -17q-56 -81 -140 -81q-113 0 -159 126q-17 -58 -56 -92t-94 -34q-70 0 -113 44t-43 117q0 72 42.5 116.5t108.5 44.5q87 0 136 -66v104q0 58 -29 89t-85 31
q-77 0 -133 -65l-20 22q61 70 155 70q55 0 93 -27t44 -84q18 48 55 79.5t84 31.5q85 0 128 -72t43 -181v-10zM369 259h272q0 82 -33.5 145.5t-102.5 63.5q-45 0 -76.5 -35t-45 -80t-14.5 -94zM339 186v22q-42 75 -132 75q-56 0 -89 -37t-33 -97t33 -97t89 -37
q61 0 96.5 47.5t35.5 123.5z" />
    <glyph glyph-name="Oslashacute" unicode="&#x1fe;" horiz-adv-x="580" 
d="M412 867l-135 -144h-27l119 144h43zM290 -12q-74 0 -126 46l-16 -34h-34l27 57q-82 94 -82 276q0 149 60.5 247t170.5 98q71 0 125 -46l17 35h35l-28 -59q82 -96 82 -275q0 -149 -60.5 -247t-170.5 -98zM290 18q92 0 144 89.5t52 225.5q0 153 -63 242l-244 -510
q45 -47 111 -47zM94 333q0 -155 63 -242l244 510q-47 47 -111 47q-92 0 -144 -89t-52 -226z" />
    <glyph glyph-name="oslashacute" unicode="&#x1ff;" horiz-adv-x="461" 
d="M352 700l-135 -144h-27l119 144h43zM102 0h-31l33 56q-50 71 -50 186q0 108 46.5 180.5t130.5 72.5q61 0 105 -42l18 30h31l-30 -52q53 -71 53 -189q0 -109 -46.5 -181.5t-130.5 -72.5q-65 0 -109 46zM231 15q71 0 107.5 66.5t36.5 160.5q0 96 -37 160l-200 -341
q38 -46 93 -46zM87 242q0 -94 34 -156l200 340q-37 42 -90 42q-70 0 -107 -66.5t-37 -159.5z" />
    <glyph glyph-name="Scommaaccent" unicode="&#x218;" horiz-adv-x="447" 
d="M262 -137q0 -36 -18 -69.5t-44 -51.5l-22 18q24 18 38.5 43.5t14.5 48.5q-6 -1 -8 -1q-14 0 -23 9.5t-9 23.5q0 13 9 22.5t23 9.5q16 0 27.5 -14t11.5 -39zM216 -12q-111 0 -176 82l25 24q25 -33 64.5 -54.5t86.5 -21.5q74 0 111 40.5t37 99.5q0 41 -17 72.5t-43.5 51.5
t-59 37.5l-65 35.5t-59 38.5t-43.5 53t-17 73.5q0 72 49 115t118 43q100 0 156 -67l-22 -24q-49 61 -134 61q-56 0 -95 -35.5t-39 -92.5q0 -47 31.5 -81.5t76 -57t89 -48t76 -69.5t31.5 -106q0 -69 -45.5 -119.5t-135.5 -50.5z" />
    <glyph glyph-name="scommaaccent" unicode="&#x219;" horiz-adv-x="366" 
d="M227 -137q0 -36 -18 -69.5t-44 -51.5l-22 18q24 18 38.5 43.5t14.5 48.5q-6 -1 -8 -1q-14 0 -23 9.5t-9 23.5q0 13 9 22.5t23 9.5q16 0 27.5 -14t11.5 -39zM179 -12q-89 0 -143 68l23 22q46 -63 120 -63q49 0 80 28t31 73q0 39 -25 65.5t-60.5 43l-71 33.5t-60.5 47
t-25 74q0 50 37.5 83t97.5 33q84 0 129 -62l-21 -20q-36 55 -108 55q-48 0 -76.5 -25.5t-28.5 -63.5q0 -36 25 -61t60.5 -40.5t71 -33t60.5 -50t25 -78.5q0 -56 -38.5 -92t-102.5 -36z" />
    <glyph glyph-name="uni021A" unicode="&#x21a;" horiz-adv-x="423" 
d="M256 -137q0 -36 -18 -69.5t-44 -51.5l-22 18q24 18 38.5 43.5t14.5 48.5q-6 -1 -8 -1q-14 0 -23 9.5t-9 23.5q0 13 9 22.5t23 9.5q16 0 27.5 -14t11.5 -39zM227 0h-32v637h-167v30h367v-30h-168v-637z" />
    <glyph glyph-name="uni021B" unicode="&#x21b;" horiz-adv-x="234" 
d="M162 -137q0 -36 -18 -69.5t-44 -51.5l-22 18q24 18 38.5 43.5t14.5 48.5q-6 -1 -8 -1q-14 0 -23 9.5t-9 23.5q0 13 9 22.5t23 9.5q16 0 27.5 -14t11.5 -39zM158 -12q-73 0 -73 93v375h-66v27h66v132h30v-132h84v-27h-84v-375q0 -66 43 -66q28 0 47 24l19 -21
q-28 -30 -66 -30z" />
    <glyph glyph-name="uni0237" unicode="&#x237;" horiz-adv-x="181" 
d="M14 -196q-47 0 -75 38l23 19q21 -30 52 -30q62 0 62 83v569h30v-569q0 -110 -92 -110z" />
    <glyph glyph-name="hsuperior" unicode="&#x2b0;" horiz-adv-x="327" 
d="M267 326h-28v231q0 68 -61 68q-26 0 -50.5 -17.5t-38.5 -40.5v-241h-28v434h28v-167q15 22 42 38.5t54 16.5q42 0 62 -21t20 -69v-232z" />
    <glyph glyph-name="uni02BC" unicode="&#x2bc;" horiz-adv-x="208" 
d="M142 624q0 -36 -18 -69.5t-44 -51.5l-22 18q24 18 38.5 43.5t14.5 48.5q-6 -1 -8 -1q-14 0 -23 9.5t-9 23.5q0 13 9 22.5t23 9.5q16 0 27.5 -14t11.5 -39z" />
    <glyph glyph-name="circumflex" unicode="&#x2c6;" horiz-adv-x="205" 
d="M205 556h-25l-79 118l-75 -118h-26l83 144h36z" />
    <glyph glyph-name="caron" unicode="&#x2c7;" horiz-adv-x="205" 
d="M122 556h-36l-86 144h26l78 -118l76 118h25z" />
    <glyph glyph-name="uni02C9" unicode="&#x2c9;" horiz-adv-x="302" 
d="M302 591h-302v27h302v-27z" />
    <glyph glyph-name="uni02CB" unicode="&#x2cb;" horiz-adv-x="162" 
d="M162 556h-27l-135 144h43z" />
    <glyph glyph-name="breve" unicode="&#x2d8;" horiz-adv-x="291" 
d="M291 625q-54 -73 -145 -73t-146 73l22 18q20 -29 53.5 -46.5t70.5 -17.5t70.5 17.5t53.5 46.5z" />
    <glyph glyph-name="dotaccent" unicode="&#x2d9;" horiz-adv-x="58" 
d="M29 566q-11 0 -20 8.5t-9 20.5t9 20.5t20 8.5q12 0 20.5 -8.5t8.5 -20.5t-8.5 -20.5t-20.5 -8.5z" />
    <glyph glyph-name="ring" unicode="&#x2da;" horiz-adv-x="170" 
d="M86 553q-35 0 -60.5 25.5t-25.5 60.5t25.5 60t60.5 25t59.5 -25t24.5 -60t-24.5 -60.5t-59.5 -25.5zM86 577q25 0 43 18t18 44q0 25 -17.5 43t-43.5 18t-44 -18t-18 -43t18 -43.5t44 -18.5z" />
    <glyph glyph-name="ogonek" unicode="&#x2db;" horiz-adv-x="144" 
d="M119 -117l25 -11q-18 -58 -73 -58q-31 0 -51 19.5t-20 57.5t23.5 71t59.5 55l23 -17q-77 -44 -77 -109q0 -50 42 -50q37 0 48 42z" />
    <glyph glyph-name="tilde" unicode="&#x2dc;" horiz-adv-x="251" 
d="M176 554q-23 0 -38 17.5t-21 39t-17.5 39t-26.5 17.5q-49 0 -49 -107h-24q0 58 19.5 96t56.5 38q23 0 38 -17.5t21 -39t17.5 -39t26.5 -17.5q48 0 48 107h24q0 -57 -19 -95.5t-56 -38.5z" />
    <glyph glyph-name="hungarumlaut" unicode="&#x2dd;" horiz-adv-x="239" 
d="M118 700l-95 -144h-23l79 144h39zM239 700l-95 -144h-23l79 144h39z" />
    <glyph glyph-name="hookabovecomb" unicode="&#x309;" horiz-adv-x="144" 
d="M36 737l-21 6q12 47 58 47q25 0 41 -15.5t16 -46.5q0 -32 -22 -61h-26q25 29 25 61q0 40 -34 40q-28 0 -37 -31z" />
    <glyph glyph-name="uni037E" unicode="&#x37e;" horiz-adv-x="208" 
d="M104 425q-13 0 -23 9.5t-10 22.5t9.5 23t23.5 10t23.5 -10t9.5 -23t-10 -22.5t-23 -9.5zM142 3q0 -36 -18 -69.5t-44 -51.5l-22 18q24 18 38.5 43.5t14.5 48.5q-6 -1 -8 -1q-14 0 -23 9.5t-9 23.5q0 13 9 22.5t23 9.5q16 0 27.5 -14t11.5 -39z" />
    <glyph glyph-name="tonos" unicode="&#x384;" horiz-adv-x="176" 
d="M117 575h-22l17 190h52z" />
    <glyph glyph-name="dieresistonos" unicode="&#x385;" horiz-adv-x="435" 
d="M221 575h-22l17 190h52zM355 598q0 -11 -8.5 -19.5t-19.5 -8.5t-19.5 8.5t-8.5 19.5t8.5 19.5t19.5 8.5t19.5 -8.5t8.5 -19.5zM136 598q0 -11 -8.5 -19.5t-19.5 -8.5t-19.5 8.5t-8.5 19.5t8.5 19.5t19.5 8.5t19.5 -8.5t8.5 -19.5z" />
    <glyph glyph-name="Alphatonos" unicode="&#x386;" horiz-adv-x="474" 
d="M133 575h-22l17 190h52zM458 0h-35l-53 179h-265l-53 -179h-35l201 667h38zM361 209l-124 416l-124 -416h248z" />
    <glyph glyph-name="Epsilontonos" unicode="&#x388;" horiz-adv-x="444" 
d="M13 575h-22l17 190h52zM389 0h-309v667h309v-30h-277v-279h270v-30h-270v-298h277v-30z" />
    <glyph glyph-name="Etatonos" unicode="&#x389;" horiz-adv-x="545" 
d="M13 575h-22l17 190h52zM465 0h-32v328h-321v-328h-32v667h32v-309h321v309h32v-667z" />
    <glyph glyph-name="Iotatonos" unicode="&#x38a;" horiz-adv-x="192" 
d="M13 575h-22l17 190h52zM112 0h-32v667h32v-667z" />
    <glyph glyph-name="Omicrontonos" unicode="&#x38c;" horiz-adv-x="580" 
d="M51 575h-22l17 190h52zM290 -12q-110 0 -170.5 98t-60.5 247t60.5 247t170.5 98t170.5 -98t60.5 -247t-60.5 -247t-170.5 -98zM290 18q92 0 144 89.5t52 225.5q0 137 -52 226t-144 89t-144 -89t-52 -226q0 -136 52 -225.5t144 -89.5z" />
    <glyph glyph-name="Upsilontonos" unicode="&#x38e;" horiz-adv-x="503" 
d="M8 575h-22l17 190h52zM286 0h-32v289l-205 378h38l183 -342l184 342h38l-206 -378v-289z" />
    <glyph glyph-name="Omegatonos" unicode="&#x38f;" horiz-adv-x="570" 
d="M51 575h-22l17 190h52zM68 30h109q-55 40 -89 115.5t-34 187.5q0 155 61.5 250t169.5 95t169.5 -95t61.5 -250q0 -214 -122 -303h109v-30h-158v30q54 22 95 97.5t41 205.5q0 145 -52 229.5t-144 84.5t-144 -85t-52 -229q0 -130 41.5 -205.5t95.5 -97.5v-30h-158v30z" />
    <glyph glyph-name="iotadieresistonos" unicode="&#x390;" horiz-adv-x="192" 
d="M99 575h-22l17 190h52zM233 598q0 -11 -8.5 -19.5t-19.5 -8.5t-19.5 8.5t-8.5 19.5t8.5 19.5t19.5 8.5t19.5 -8.5t8.5 -19.5zM14 598q0 -11 -8.5 -19.5t-19.5 -8.5t-19.5 8.5t-8.5 19.5t8.5 19.5t19.5 8.5t19.5 -8.5t8.5 -19.5zM149 -12q-73 0 -73 93v402h30v-402
q0 -66 43 -66q7 0 17 2l3 -27q-10 -2 -20 -2z" />
    <glyph glyph-name="Alpha" unicode="&#x391;" horiz-adv-x="474" 
d="M458 0h-35l-53 179h-265l-53 -179h-35l201 667h38zM361 209l-124 416l-124 -416h248z" />
    <glyph glyph-name="Beta" unicode="&#x392;" horiz-adv-x="480" 
d="M258 0h-178v667h174q71 0 113.5 -44.5t42.5 -125.5q0 -60 -27.5 -99.5t-70.5 -53.5q46 -7 77.5 -56t31.5 -108q0 -86 -42.5 -133t-120.5 -47zM254 358q61 0 91 38.5t30 100.5q0 61 -30.5 100.5t-90.5 39.5h-142v-279h142zM258 30q63 0 95.5 39.5t32.5 109.5
q0 62 -32.5 105.5t-95.5 43.5h-146v-298h146z" />
    <glyph glyph-name="Gamma" unicode="&#x393;" horiz-adv-x="432" 
d="M112 0h-32v667h309v-30h-277v-637z" />
    <glyph glyph-name="uni0394" unicode="&#x394;" horiz-adv-x="494" 
d="M478 0h-461l211 667h38zM434 30l-187 595l-187 -595h374z" />
    <glyph glyph-name="Epsilon" unicode="&#x395;" horiz-adv-x="444" 
d="M389 0h-309v667h309v-30h-277v-279h270v-30h-270v-298h277v-30z" />
    <glyph glyph-name="Zeta" unicode="&#x396;" horiz-adv-x="444" 
d="M399 0h-354v31l312 606h-312v30h347v-30l-313 -607h320v-30z" />
    <glyph glyph-name="Eta" unicode="&#x397;" horiz-adv-x="545" 
d="M465 0h-32v328h-321v-328h-32v667h32v-309h321v309h32v-667z" />
    <glyph glyph-name="Theta" unicode="&#x398;" horiz-adv-x="580" 
d="M438 328h-295v30h295v-30zM290 -12q-110 0 -170.5 98t-60.5 247t60.5 247t170.5 98t170.5 -98t60.5 -247t-60.5 -247t-170.5 -98zM290 18q92 0 144 89.5t52 225.5q0 137 -52 226t-144 89t-144 -89t-52 -226q0 -136 52 -225.5t144 -89.5z" />
    <glyph glyph-name="Iota" unicode="&#x399;" horiz-adv-x="192" 
d="M112 0h-32v667h32v-667z" />
    <glyph glyph-name="Kappa" unicode="&#x39a;" horiz-adv-x="472" 
d="M447 0h-41l-230 324l-64 -88v-236h-32v667h32v-382l273 382h41l-232 -319z" />
    <glyph glyph-name="Lambda" unicode="&#x39b;" horiz-adv-x="474" 
d="M458 0h-35l-186 625l-185 -625h-35l201 667h38z" />
    <glyph glyph-name="Mu" unicode="&#x39c;" horiz-adv-x="639" 
d="M559 0h-32v619l-200 -619h-14l-201 619v-619h-32v667h52l188 -577l188 577h51v-667z" />
    <glyph glyph-name="Nu" unicode="&#x39d;" horiz-adv-x="543" 
d="M463 0h-32l-319 595v-595h-32v667h32l319 -589v589h32v-667z" />
    <glyph glyph-name="Xi" unicode="&#x39e;" horiz-adv-x="478" 
d="M423 637h-367v30h367v-30zM422 0h-367v30h367v-30zM416 328h-353v30h353v-30z" />
    <glyph glyph-name="Omicron" unicode="&#x39f;" horiz-adv-x="580" 
d="M290 -12q-110 0 -170.5 98t-60.5 247t60.5 247t170.5 98t170.5 -98t60.5 -247t-60.5 -247t-170.5 -98zM290 18q92 0 144 89.5t52 225.5q0 137 -52 226t-144 89t-144 -89t-52 -226q0 -136 52 -225.5t144 -89.5z" />
    <glyph glyph-name="Pi" unicode="&#x3a0;" horiz-adv-x="545" 
d="M465 0h-32v637h-321v-637h-32v667h385v-667z" />
    <glyph glyph-name="Rho" unicode="&#x3a1;" horiz-adv-x="448" 
d="M112 0h-32v667h166q78 0 121.5 -54t43.5 -135t-43.5 -135t-121.5 -54h-134v-289zM245 319q62 0 96.5 44t34.5 115t-34.5 115t-96.5 44h-133v-318h133z" />
    <glyph glyph-name="Sigma" unicode="&#x3a3;" horiz-adv-x="431" 
d="M91 637l186 -292l-187 -315h292v-30h-327v31l187 313l-186 293v30h326v-30h-291z" />
    <glyph glyph-name="Tau" unicode="&#x3a4;" horiz-adv-x="423" 
d="M227 0h-32v637h-167v30h367v-30h-168v-637z" />
    <glyph glyph-name="Upsilon" unicode="&#x3a5;" horiz-adv-x="466" 
d="M249 0h-32v289l-205 378h38l183 -342l184 342h38l-206 -378v-289z" />
    <glyph glyph-name="Phi" unicode="&#x3a6;" horiz-adv-x="644" 
d="M338 0h-32v64q-118 5 -182.5 81.5t-64.5 187.5q0 110 64.5 186.5t182.5 82.5v65h32v-65q118 -6 182.5 -82.5t64.5 -186.5q0 -111 -64.5 -187.5t-182.5 -81.5v-64zM94 333q0 -99 55 -166t157 -73v477q-102 -5 -157 -71.5t-55 -166.5zM550 333q0 100 -55.5 166.5
t-156.5 71.5v-477q101 6 156.5 73t55.5 166z" />
    <glyph glyph-name="Chi" unicode="&#x3a7;" horiz-adv-x="473" 
d="M457 0h-39l-181 310l-181 -310h-39l202 340l-191 327h40l169 -295l169 295h40l-191 -326z" />
    <glyph glyph-name="Psi" unicode="&#x3a8;" horiz-adv-x="627" 
d="M330 0h-32v124q-105 4 -161.5 64.5t-56.5 172.5v306h32v-306q0 -99 48.5 -150.5t137.5 -56.5v513h32v-513q89 5 137 56.5t48 150.5v306h32v-306q0 -112 -56 -172.5t-161 -64.5v-124z" />
    <glyph glyph-name="uni03A9" unicode="&#x3a9;" horiz-adv-x="570" 
d="M68 30h109q-55 40 -89 115.5t-34 187.5q0 155 61.5 250t169.5 95t169.5 -95t61.5 -250q0 -214 -122 -303h109v-30h-158v30q54 22 95 97.5t41 205.5q0 145 -52 229.5t-144 84.5t-144 -85t-52 -229q0 -130 41.5 -205.5t95.5 -97.5v-30h-158v30z" />
    <glyph glyph-name="Iotadieresis" unicode="&#x3aa;" horiz-adv-x="192" 
d="M112 0h-32v667h32v-667zM205 782q0 -11 -8.5 -19.5t-19.5 -8.5t-19.5 8.5t-8.5 19.5t8.5 19.5t19.5 8.5t19.5 -8.5t8.5 -19.5zM43 782q0 -11 -8.5 -19.5t-19.5 -8.5t-19.5 8.5t-8.5 19.5t8.5 19.5t19.5 8.5t19.5 -8.5t8.5 -19.5z" />
    <glyph glyph-name="Upsilondieresis" unicode="&#x3ab;" horiz-adv-x="466" 
d="M249 0h-32v289l-205 378h38l183 -342l184 342h38l-206 -378v-289zM342 782q0 -11 -8.5 -19.5t-19.5 -8.5t-19.5 8.5t-8.5 19.5t8.5 19.5t19.5 8.5t19.5 -8.5t8.5 -19.5zM180 782q0 -11 -8.5 -19.5t-19.5 -8.5t-19.5 8.5t-8.5 19.5t8.5 19.5t19.5 8.5t19.5 -8.5t8.5 -19.5
z" />
    <glyph glyph-name="alphatonos" unicode="&#x3ac;" horiz-adv-x="469" 
d="M240 575h-22l17 190h52zM443 17l3 -27q-10 -2 -20 -2q-71 0 -73 88q-20 -39 -55.5 -63.5t-75.5 -24.5q-80 0 -124 70t-44 183q0 114 44 184t124 70q40 0 75 -23.5t56 -65.5v77h30v-402q0 -66 43 -66q7 0 17 2zM222 15q41 0 77.5 29t53.5 69v255q-17 41 -53.5 70.5
t-77.5 29.5q-67 0 -101 -64.5t-34 -162.5t34 -162t101 -64z" />
    <glyph glyph-name="epsilontonos" unicode="&#x3ad;" horiz-adv-x="425" 
d="M218 575h-22l17 190h52zM224 -12q-81 0 -125.5 39.5t-44.5 99.5q0 51 35.5 82t80.5 37q-43 8 -76 41.5t-33 79.5q0 58 49 93t121 35q100 0 154 -78l-25 -16q-44 67 -129 67q-60 0 -98.5 -27.5t-38.5 -73.5q0 -51 39 -79.5t96 -28.5h90v-27h-90q-142 0 -142 -104
q0 -51 37.5 -82t99.5 -31q93 0 145 71l23 -17q-59 -81 -168 -81z" />
    <glyph glyph-name="etatonos" unicode="&#x3ae;" horiz-adv-x="435" 
d="M223 575h-22l17 190h52zM360 -184h-30v550q0 102 -89 102q-39 0 -76.5 -27t-58.5 -65v-376h-30v483h30v-74q23 36 61.5 61t77.5 25q115 0 115 -129v-550z" />
    <glyph glyph-name="iotatonos" unicode="&#x3af;" horiz-adv-x="192" 
d="M101 575h-22l17 190h52zM149 -12q-73 0 -73 93v402h30v-402q0 -66 43 -66q7 0 17 2l3 -27q-10 -2 -20 -2z" />
    <glyph glyph-name="upsilondieresistonos" unicode="&#x3b0;" horiz-adv-x="448" 
d="M227 575h-22l17 190h52zM361 598q0 -11 -8.5 -19.5t-19.5 -8.5t-19.5 8.5t-8.5 19.5t8.5 19.5t19.5 8.5t19.5 -8.5t8.5 -19.5zM142 598q0 -11 -8.5 -19.5t-19.5 -8.5t-19.5 8.5t-8.5 19.5t8.5 19.5t19.5 8.5t19.5 -8.5t8.5 -19.5zM218 -12q-142 0 -142 188v307h30v-307
q0 -161 112 -161q71 0 107.5 66.5t36.5 160.5q0 134 -72 236l25 17q80 -112 80 -253q0 -109 -46.5 -181.5t-130.5 -72.5z" />
    <glyph glyph-name="alpha" unicode="&#x3b1;" horiz-adv-x="469" 
d="M443 17l3 -27q-10 -2 -20 -2q-71 0 -73 88q-20 -39 -55.5 -63.5t-75.5 -24.5q-80 0 -124 70t-44 183q0 114 44 184t124 70q40 0 75 -23.5t56 -65.5v77h30v-402q0 -66 43 -66q7 0 17 2zM222 15q41 0 77.5 29t53.5 69v255q-17 41 -53.5 70.5t-77.5 29.5q-67 0 -101 -64.5
t-34 -162.5t34 -162t101 -64z" />
    <glyph glyph-name="beta" unicode="&#x3b2;" 
d="M106 461v-348q17 -40 54 -69t79 -29q64 0 98.5 44.5t34.5 113.5q0 78 -41.5 118t-103.5 40h-25v27h25q57 0 94.5 37.5t37.5 107.5t-32.5 108.5t-83.5 38.5q-60 0 -98.5 -45.5t-38.5 -143.5zM106 76v-260h-30v645q0 112 47 164t120 52q65 0 107 -45t42 -129
q0 -62 -32 -104t-76 -54q45 -7 83 -53t38 -119q0 -85 -44.5 -135t-119.5 -50q-42 0 -78.5 24.5t-56.5 63.5z" />
    <glyph glyph-name="gamma" unicode="&#x3b3;" horiz-adv-x="375" 
d="M203 -184h-30v164q0 143 -46 274.5t-123 228.5h37q64 -86 107.5 -201.5t50.5 -229.5q52 89 84 205t32 226h30q0 -117 -37.5 -243t-104.5 -237v-187z" />
    <glyph glyph-name="delta" unicode="&#x3b4;" horiz-adv-x="461" 
d="M231 -12q-83 0 -130 62t-47 149q0 79 37.5 141t97.5 96q-44 26 -67.5 55t-23.5 72q0 50 37.5 83t97.5 33q84 0 129 -62l-21 -20q-36 55 -108 55q-48 0 -76.5 -25.5t-28.5 -63.5q0 -28 15.5 -50t40 -38t54.5 -32t60 -36.5t54.5 -46.5t40 -67.5t15.5 -93.5q0 -87 -47 -149
t-130 -62zM378 199q0 46 -12.5 81.5t-39.5 62t-47 40t-58 35.5q-63 -29 -98.5 -85.5t-35.5 -133.5q0 -72 37 -128t107 -56t108.5 56t38.5 128z" />
    <glyph glyph-name="epsilon" unicode="&#x3b5;" horiz-adv-x="425" 
d="M224 -12q-81 0 -125.5 39.5t-44.5 99.5q0 51 35.5 82t80.5 37q-43 8 -76 41.5t-33 79.5q0 58 49 93t121 35q100 0 154 -78l-25 -16q-44 67 -129 67q-60 0 -98.5 -27.5t-38.5 -73.5q0 -51 39 -79.5t96 -28.5h90v-27h-90q-142 0 -142 -104q0 -51 37.5 -82t99.5 -31
q93 0 145 71l23 -17q-59 -81 -168 -81z" />
    <glyph glyph-name="zeta" unicode="&#x3b6;" horiz-adv-x="394" 
d="M318 -54q0 24 -13.5 33t-44.5 9q-94 0 -150 59.5t-56 148.5q0 243 261 444h-249v27h285v-27q-137 -109 -200.5 -215.5t-63.5 -228.5q0 -75 46.5 -128t127.5 -53q46 0 68 -16t22 -53q0 -42 -38 -103h-37q42 63 42 103z" />
    <glyph glyph-name="eta" unicode="&#x3b7;" horiz-adv-x="435" 
d="M360 -184h-30v550q0 102 -89 102q-39 0 -76.5 -27t-58.5 -65v-376h-30v483h30v-74q23 36 61.5 61t77.5 25q115 0 115 -129v-550z" />
    <glyph glyph-name="theta" unicode="&#x3b8;" horiz-adv-x="461" 
d="M231 -12q-177 0 -177 346q0 345 177 345t177 -345q0 -346 -177 -346zM231 15q140 0 144 307h-288q2 -307 144 -307zM231 652q-140 0 -144 -303h288q-4 303 -144 303z" />
    <glyph glyph-name="iota" unicode="&#x3b9;" horiz-adv-x="192" 
d="M149 -12q-73 0 -73 93v402h30v-402q0 -66 43 -66q7 0 17 2l3 -27q-10 -2 -20 -2z" />
    <glyph glyph-name="kappa" unicode="&#x3ba;" horiz-adv-x="411" 
d="M386 0h-37l-160 243l-83 -101v-142h-30v483h30v-299l247 299h37l-182 -218z" />
    <glyph glyph-name="lambda" unicode="&#x3bb;" horiz-adv-x="375" 
d="M45 645l-6 27q16 7 39 7q61 0 87 -77l197 -602h-34l-140 446l-140 -446h-34l158 494l-34 98q-12 34 -25 47t-35 13q-20 0 -33 -7z" />
    <glyph glyph-name="uni03BC" unicode="&#x3bc;" horiz-adv-x="446" 
d="M106 34v-218h-30v667h30v-366q0 -104 92 -104q38 0 74.5 27t57.5 65v378h30v-402q0 -66 43 -66q7 0 17 2l3 -27q-10 -2 -20 -2q-68 0 -73 84q-55 -84 -132 -84q-68 0 -92 46z" />
    <glyph glyph-name="nu" unicode="&#x3bd;" horiz-adv-x="375" 
d="M201 0h-31l-156 483h34l141 -449q59 101 92.5 219.5t33.5 229.5h30q0 -117 -38.5 -244.5t-105.5 -238.5z" />
    <glyph glyph-name="xi" unicode="&#x3be;" horiz-adv-x="394" 
d="M260 -12q-98 0 -152 53.5t-54 135.5q0 70 38.5 115.5t82.5 53.5q-45 13 -79 53t-34 98q0 44 26 83t67 60h-89v27h273v-27h-143q-44 -18 -72.5 -58t-28.5 -85q0 -65 40 -101.5t97 -36.5h100v-27h-100q-64 0 -104.5 -38.5t-40.5 -116.5q0 -66 45 -114t129 -48q46 0 68 -16
t22 -53q0 -42 -38 -103h-37q42 63 42 103q0 24 -13.5 33t-44.5 9z" />
    <glyph glyph-name="omicron" unicode="&#x3bf;" horiz-adv-x="461" 
d="M231 -12q-84 0 -130.5 72.5t-46.5 181.5q0 108 46.5 180.5t130.5 72.5t130.5 -72.5t46.5 -180.5q0 -109 -46.5 -181.5t-130.5 -72.5zM231 15q71 0 107.5 66.5t36.5 160.5q0 93 -36.5 159.5t-107.5 66.5q-70 0 -107 -66.5t-37 -159.5t37 -160t107 -67z" />
    <glyph glyph-name="pi" unicode="&#x3c0;" horiz-adv-x="454" 
d="M369 0h-30v456h-224v-456h-30v456h-66v27h416v-27h-66v-456z" />
    <glyph glyph-name="rho" unicode="&#x3c1;" horiz-adv-x="457" 
d="M237 -12q-39 0 -74 24t-57 66v-262h-30v426q0 108 42.5 180.5t120.5 72.5q79 0 122.5 -71t43.5 -182q0 -113 -44 -183.5t-124 -70.5zM237 15q67 0 101 64.5t34 162.5q0 96 -33.5 161t-99.5 65q-65 0 -99 -66.5t-34 -159.5v-127q17 -41 53.5 -70.5t77.5 -29.5z" />
    <glyph glyph-name="sigma1" unicode="&#x3c2;" horiz-adv-x="380" 
d="M256 -12q-95 0 -148.5 70t-53.5 184q0 109 48.5 181t133.5 72q42 0 70 -15.5t54 -47.5l-21 -19q-41 55 -103 55q-72 0 -110.5 -65t-38.5 -161q0 -101 44.5 -164t124.5 -63q48 0 69.5 -15.5t21.5 -53.5q0 -41 -39 -103h-31q42 66 42 103q0 23 -15 32.5t-48 9.5z" />
    <glyph glyph-name="sigma" unicode="&#x3c3;" horiz-adv-x="461" 
d="M408 233q0 -102 -46.5 -173.5t-130.5 -71.5t-130.5 72.5t-46.5 181.5q0 103 49.5 172t144.5 69h191v-27h-117q86 -86 86 -223zM375 233q0 157 -98 223h-29q-81 0 -121 -63.5t-40 -150.5q0 -93 37 -160t107 -67t107 65.5t37 152.5z" />
    <glyph glyph-name="tau" unicode="&#x3c4;" horiz-adv-x="347" 
d="M231 -12q-73 0 -73 93v375h-135v27h301v-27h-136v-375q0 -66 43 -66q28 0 47 24l19 -21q-28 -30 -66 -30z" />
    <glyph glyph-name="upsilon" unicode="&#x3c5;" horiz-adv-x="448" 
d="M218 -12q-142 0 -142 188v307h30v-307q0 -161 112 -161q71 0 107.5 66.5t36.5 160.5q0 134 -72 236l25 17q80 -112 80 -253q0 -109 -46.5 -181.5t-130.5 -72.5z" />
    <glyph glyph-name="phi" unicode="&#x3c6;" horiz-adv-x="582" 
d="M529 242q0 -108 -55 -178.5t-168 -75.5v-172h-30v172q-112 5 -167 76.5t-55 183.5q0 89 38.5 151.5t105.5 95.5l14 -23q-125 -66 -125 -224q0 -97 44.5 -162t144.5 -71v480h15q120 0 179 -71t59 -182zM496 242q0 93 -45.5 156.5t-144.5 69.5v-453q52 2 90 22t59 53
t31 70.5t10 81.5z" />
    <glyph glyph-name="chi" unicode="&#x3c7;" horiz-adv-x="379" 
d="M358 -184h-32l-136 310l-136 -310h-33l152 341l-143 326h32l128 -295l127 295h33l-143 -326z" />
    <glyph glyph-name="psi" unicode="&#x3c8;" horiz-adv-x="582" 
d="M306 -184h-30v172q-200 7 -200 222v273h30v-273q0 -98 42 -144.5t128 -50.5v652h30v-652q85 4 128 51t43 144v273h30v-273q0 -215 -201 -222v-172z" />
    <glyph glyph-name="omega" unicode="&#x3c9;" horiz-adv-x="647" 
d="M594 242q0 -109 -37.5 -181.5t-105.5 -72.5q-51 0 -83 38t-44 95q-12 -57 -44 -95t-84 -38q-68 0 -105 72.5t-37 181.5q0 80 26 151t77 102l17 -23q-87 -59 -87 -230q0 -60 11 -109.5t37 -83.5t63 -34q55 0 83 66.5t28 160.5v124h30v-124q0 -94 28 -160.5t83 -66.5
q37 0 63 34t37 83.5t11 109.5q0 171 -87 230l16 23q51 -31 77.5 -102t26.5 -151z" />
    <glyph glyph-name="iotadieresis" unicode="&#x3ca;" horiz-adv-x="192" 
d="M205 598q0 -11 -8.5 -19.5t-19.5 -8.5t-19.5 8.5t-8.5 19.5t8.5 19.5t19.5 8.5t19.5 -8.5t8.5 -19.5zM43 598q0 -11 -8.5 -19.5t-19.5 -8.5t-19.5 8.5t-8.5 19.5t8.5 19.5t19.5 8.5t19.5 -8.5t8.5 -19.5zM149 -12q-73 0 -73 93v402h30v-402q0 -66 43 -66q7 0 17 2l3 -27
q-10 -2 -20 -2z" />
    <glyph glyph-name="upsilondieresis" unicode="&#x3cb;" horiz-adv-x="448" 
d="M333 598q0 -11 -8.5 -19.5t-19.5 -8.5t-19.5 8.5t-8.5 19.5t8.5 19.5t19.5 8.5t19.5 -8.5t8.5 -19.5zM171 598q0 -11 -8.5 -19.5t-19.5 -8.5t-19.5 8.5t-8.5 19.5t8.5 19.5t19.5 8.5t19.5 -8.5t8.5 -19.5zM218 -12q-142 0 -142 188v307h30v-307q0 -161 112 -161
q71 0 107.5 66.5t36.5 160.5q0 134 -72 236l25 17q80 -112 80 -253q0 -109 -46.5 -181.5t-130.5 -72.5z" />
    <glyph glyph-name="omicrontonos" unicode="&#x3cc;" horiz-adv-x="461" 
d="M236 575h-22l17 190h52zM231 -12q-84 0 -130.5 72.5t-46.5 181.5q0 108 46.5 180.5t130.5 72.5t130.5 -72.5t46.5 -180.5q0 -109 -46.5 -181.5t-130.5 -72.5zM231 15q71 0 107.5 66.5t36.5 160.5q0 93 -36.5 159.5t-107.5 66.5q-70 0 -107 -66.5t-37 -159.5t37 -160
t107 -67z" />
    <glyph glyph-name="upsilontonos" unicode="&#x3cd;" horiz-adv-x="448" 
d="M230 575h-22l17 190h52zM218 -12q-142 0 -142 188v307h30v-307q0 -161 112 -161q71 0 107.5 66.5t36.5 160.5q0 134 -72 236l25 17q80 -112 80 -253q0 -109 -46.5 -181.5t-130.5 -72.5z" />
    <glyph glyph-name="omegatonos" unicode="&#x3ce;" horiz-adv-x="647" 
d="M329 575h-22l17 190h52zM594 242q0 -109 -37.5 -181.5t-105.5 -72.5q-51 0 -83 38t-44 95q-12 -57 -44 -95t-84 -38q-68 0 -105 72.5t-37 181.5q0 80 26 151t77 102l17 -23q-87 -59 -87 -230q0 -60 11 -109.5t37 -83.5t63 -34q55 0 83 66.5t28 160.5v124h30v-124
q0 -94 28 -160.5t83 -66.5q37 0 63 34t37 83.5t11 109.5q0 171 -87 230l16 23q51 -31 77.5 -102t26.5 -151z" />
    <glyph glyph-name="afii10023" unicode="&#x401;" horiz-adv-x="444" 
d="M344 765q0 -11 -8.5 -19.5t-19.5 -8.5t-19.5 8.5t-8.5 19.5t8.5 19.5t19.5 8.5t19.5 -8.5t8.5 -19.5zM182 765q0 -11 -8.5 -19.5t-19.5 -8.5t-19.5 8.5t-8.5 19.5t8.5 19.5t19.5 8.5t19.5 -8.5t8.5 -19.5zM389 0h-309v667h309v-30h-277v-279h270v-30h-270v-298h277v-30z
" />
    <glyph glyph-name="afii10051" unicode="&#x402;" horiz-adv-x="597" 
d="M371 -12v30q123 0 123 164v53q0 86 -37.5 133t-110.5 47q-62 0 -119 -15v-400h-32v637h-167v30h367v-30h-168v-207q64 15 119 15q89 0 134.5 -57t45.5 -153v-53q0 -100 -42.5 -147t-112.5 -47z" />
    <glyph glyph-name="afii10052" unicode="&#x403;" horiz-adv-x="432" 
d="M356 867l-135 -144h-27l119 144h43zM112 0h-32v667h309v-30h-277v-637z" />
    <glyph glyph-name="afii10053" unicode="&#x404;" horiz-adv-x="512" 
d="M298 -12q-108 0 -173.5 97.5t-65.5 247.5q0 151 65.5 248t173.5 97q107 0 173 -104l-28 -17q-52 91 -145 91q-87 0 -143 -81t-61 -209h285v-30h-285q1 -135 57.5 -222.5t146.5 -87.5q94 0 147 101l28 -16q-66 -115 -175 -115z" />
    <glyph glyph-name="afii10054" unicode="&#x405;" horiz-adv-x="447" 
d="M216 -12q-111 0 -176 82l25 24q25 -33 64.5 -54.5t86.5 -21.5q74 0 111 40.5t37 99.5q0 41 -17 72.5t-43.5 51.5t-59 37.5l-65 35.5t-59 38.5t-43.5 53t-17 73.5q0 72 49 115t118 43q100 0 156 -67l-22 -24q-49 61 -134 61q-56 0 -95 -35.5t-39 -92.5q0 -47 31.5 -81.5
t76 -57t89 -48t76 -69.5t31.5 -106q0 -69 -45.5 -119.5t-135.5 -50.5z" />
    <glyph glyph-name="afii10055" unicode="&#x406;" horiz-adv-x="192" 
d="M112 0h-32v667h32v-667z" />
    <glyph glyph-name="afii10056" unicode="&#x407;" horiz-adv-x="192" 
d="M112 0h-32v667h32v-667zM205 765q0 -11 -8.5 -19.5t-19.5 -8.5t-19.5 8.5t-8.5 19.5t8.5 19.5t19.5 8.5t19.5 -8.5t8.5 -19.5zM43 765q0 -11 -8.5 -19.5t-19.5 -8.5t-19.5 8.5t-8.5 19.5t8.5 19.5t19.5 8.5t19.5 -8.5t8.5 -19.5z" />
    <glyph glyph-name="afii10057" unicode="&#x408;" horiz-adv-x="382" 
d="M147 -12q-83 0 -136 71l26 23q44 -64 110 -64q58 0 90.5 35.5t32.5 99.5v514h32v-514q0 -81 -43 -123t-112 -42z" />
    <glyph glyph-name="afii10058" unicode="&#x409;" horiz-adv-x="801" 
d="M28 -12v30q40 0 65 22t46 89.5t33 190.5l33 347h260v-289h134q78 0 121.5 -54t43.5 -135t-43.5 -135t-121.5 -54h-166v637h-199l-31 -321q-11 -105 -27 -172t-39.5 -100.5t-48 -44.5t-60.5 -11zM598 348h-133v-318h133q62 0 96.5 44t34.5 115t-34.5 115t-96.5 44z" />
    <glyph glyph-name="afii10059" unicode="&#x40a;" horiz-adv-x="801" 
d="M80 0v667h32v-309h321v309h32v-309h139q76 0 118 -51t42 -128t-42 -128t-118 -51h-171v328h-321v-328h-32zM465 30h138q59 0 92.5 41.5t33.5 107.5t-33.5 107.5t-92.5 41.5h-138v-298z" />
    <glyph glyph-name="afii10060" unicode="&#x40b;" horiz-adv-x="597" 
d="M494 0v246q0 78 -38 123.5t-110 45.5q-62 0 -119 -15v-400h-32v637h-167v30h367v-30h-168v-207q64 15 119 15q88 0 134 -55t46 -144v-246h-32z" />
    <glyph glyph-name="afii10061" unicode="&#x40c;" horiz-adv-x="472" 
d="M359 867l-135 -144h-27l119 144h43zM447 0h-41l-230 324l-64 -88v-236h-32v667h32v-382l273 382h41l-232 -319z" />
    <glyph glyph-name="afii10062" unicode="&#x40e;" horiz-adv-x="466" 
d="M100 -12q-55 0 -91 40l20 25q30 -35 71 -35q31 0 47.5 17t38.5 63l29 74l-203 495h35l186 -449l187 449h35l-239 -580q-23 -51 -49 -75t-67 -24zM379 792q-54 -73 -145 -73t-146 73l22 18q20 -29 53.5 -46.5t70.5 -17.5t70.5 17.5t53.5 46.5z" />
    <glyph glyph-name="afii10145" unicode="&#x40f;" horiz-adv-x="545" 
d="M80 0v667h32v-637h321v637h32v-667h-176v-128h-32v128h-177z" />
    <glyph glyph-name="afii10017" unicode="&#x410;" horiz-adv-x="474" 
d="M458 0h-35l-53 179h-265l-53 -179h-35l201 667h38zM361 209l-124 416l-124 -416h248z" />
    <glyph glyph-name="afii10018" unicode="&#x411;" horiz-adv-x="448" 
d="M80 667h299v-30h-267v-259h134q78 0 121.5 -54t43.5 -135t-43.5 -135t-121.5 -54h-166v667zM245 348h-133v-318h133q62 0 96.5 44t34.5 115t-34.5 115t-96.5 44z" />
    <glyph glyph-name="afii10019" unicode="&#x412;" horiz-adv-x="480" 
d="M258 0h-178v667h174q71 0 113.5 -44.5t42.5 -125.5q0 -60 -27.5 -99.5t-70.5 -53.5q46 -7 77.5 -56t31.5 -108q0 -86 -42.5 -133t-120.5 -47zM254 358q61 0 91 38.5t30 100.5q0 61 -30.5 100.5t-90.5 39.5h-142v-279h142zM258 30q63 0 95.5 39.5t32.5 109.5
q0 62 -32.5 105.5t-95.5 43.5h-146v-298h146z" />
    <glyph glyph-name="afii10020" unicode="&#x413;" horiz-adv-x="432" 
d="M112 0h-32v667h309v-30h-277v-637z" />
    <glyph glyph-name="afii10021" unicode="&#x414;" horiz-adv-x="567" 
d="M28 -123v152q41 2 65.5 20.5t45.5 83.5t33 187l33 347h260v-637h62v-153h-32v123h-435v-123h-32zM203 316q-24 -237 -95 -286h325v607h-199z" />
    <glyph glyph-name="afii10022" unicode="&#x415;" horiz-adv-x="444" 
d="M389 0h-309v667h309v-30h-277v-279h270v-30h-270v-298h277v-30z" />
    <glyph glyph-name="afii10024" unicode="&#x416;" horiz-adv-x="691" 
d="M61 0h-41l253 348l-232 319h41l248 -352v352h32v-352l247 352h41l-232 -319l254 -348h-41l-231 324l-38 -57v-267h-32v267l-39 57z" />
    <glyph glyph-name="afii10025" unicode="&#x417;" horiz-adv-x="455" 
d="M216 -12q-62 0 -109 32t-71 82l30 15q50 -99 151 -99q70 0 106.5 42t36.5 118q0 80 -41 116t-102 36h-107v30h107q58 0 96.5 36.5t38.5 104.5q0 71 -37 108.5t-97 37.5q-48 0 -80.5 -22.5t-62.5 -67.5l-28 17q27 47 71.5 75t99.5 28q73 0 121 -45t48 -129q0 -61 -34 -103
t-79 -55q44 -7 82.5 -52.5t38.5 -115.5q0 -84 -46 -136.5t-133 -52.5z" />
    <glyph glyph-name="afii10026" unicode="&#x418;" horiz-adv-x="543" 
d="M112 0h-32v667h32v-589l319 589h32v-667h-32v595z" />
    <glyph glyph-name="afii10027" unicode="&#x419;" horiz-adv-x="543" 
d="M112 0h-32v667h32v-589l319 589h32v-667h-32v595zM417 792q-54 -73 -145 -73t-146 73l22 18q20 -29 53.5 -46.5t70.5 -17.5t70.5 17.5t53.5 46.5z" />
    <glyph glyph-name="afii10028" unicode="&#x41a;" horiz-adv-x="472" 
d="M447 0h-41l-230 324l-64 -88v-236h-32v667h32v-382l273 382h41l-232 -319z" />
    <glyph glyph-name="afii10029" unicode="&#x41b;" horiz-adv-x="545" 
d="M28 -12v30q40 0 65 22t46 89.5t33 190.5l33 347h260v-667h-32v637h-199l-31 -321q-11 -105 -27 -172t-39.5 -100.5t-48 -44.5t-60.5 -11z" />
    <glyph glyph-name="afii10030" unicode="&#x41c;" horiz-adv-x="639" 
d="M559 0h-32v619l-200 -619h-14l-201 619v-619h-32v667h52l188 -577l188 577h51v-667z" />
    <glyph glyph-name="afii10031" unicode="&#x41d;" horiz-adv-x="545" 
d="M465 0h-32v328h-321v-328h-32v667h32v-309h321v309h32v-667z" />
    <glyph glyph-name="afii10032" unicode="&#x41e;" horiz-adv-x="580" 
d="M290 -12q-110 0 -170.5 98t-60.5 247t60.5 247t170.5 98t170.5 -98t60.5 -247t-60.5 -247t-170.5 -98zM290 18q92 0 144 89.5t52 225.5q0 137 -52 226t-144 89t-144 -89t-52 -226q0 -136 52 -225.5t144 -89.5z" />
    <glyph glyph-name="afii10033" unicode="&#x41f;" horiz-adv-x="545" 
d="M465 0h-32v637h-321v-637h-32v667h385v-667z" />
    <glyph glyph-name="afii10034" unicode="&#x420;" horiz-adv-x="448" 
d="M112 0h-32v667h166q78 0 121.5 -54t43.5 -135t-43.5 -135t-121.5 -54h-134v-289zM245 319q62 0 96.5 44t34.5 115t-34.5 115t-96.5 44h-133v-318h133z" />
    <glyph glyph-name="afii10035" unicode="&#x421;" horiz-adv-x="512" 
d="M298 -12q-108 0 -173.5 97.5t-65.5 247.5q0 151 65.5 248t173.5 97q107 0 173 -104l-28 -17q-52 91 -145 91q-91 0 -147.5 -88.5t-56.5 -226.5q0 -137 56.5 -226t147.5 -89q94 0 147 101l28 -16q-66 -115 -175 -115z" />
    <glyph glyph-name="afii10036" unicode="&#x422;" horiz-adv-x="423" 
d="M227 0h-32v637h-167v30h367v-30h-168v-637z" />
    <glyph glyph-name="afii10037" unicode="&#x423;" horiz-adv-x="466" 
d="M100 -12q-55 0 -91 40l20 25q30 -35 71 -35q31 0 47.5 17t38.5 63l29 74l-203 495h35l186 -449l187 449h35l-239 -580q-23 -51 -49 -75t-67 -24z" />
    <glyph glyph-name="afii10038" unicode="&#x424;" horiz-adv-x="644" 
d="M338 0h-32v64q-118 5 -182.5 81.5t-64.5 187.5q0 110 64.5 186.5t182.5 82.5v65h32v-65q118 -6 182.5 -82.5t64.5 -186.5q0 -111 -64.5 -187.5t-182.5 -81.5v-64zM94 333q0 -99 55 -166t157 -73v477q-102 -5 -157 -71.5t-55 -166.5zM550 333q0 100 -55.5 166.5
t-156.5 71.5v-477q101 6 156.5 73t55.5 166z" />
    <glyph glyph-name="afii10039" unicode="&#x425;" horiz-adv-x="473" 
d="M457 0h-39l-181 310l-181 -310h-39l202 340l-191 327h40l169 -295l169 295h40l-191 -326z" />
    <glyph glyph-name="afii10040" unicode="&#x426;" horiz-adv-x="567" 
d="M495 -123v123h-415v667h32v-637h321v637h32v-637h62v-153h-32z" />
    <glyph glyph-name="afii10041" unicode="&#x427;" horiz-adv-x="471" 
d="M93 667v-179q0 -78 38 -123.5t109 -45.5q62 0 119 15v333h32v-667h-32v304q-62 -15 -119 -15q-88 0 -133.5 55.5t-45.5 144.5v178h32z" />
    <glyph glyph-name="afii10042" unicode="&#x428;" horiz-adv-x="776" 
d="M664 667h32v-667h-614v667h32v-637h259v637h32v-637h259v637z" />
    <glyph glyph-name="afii10043" unicode="&#x429;" horiz-adv-x="804" 
d="M670 667h32v-637h62v-153h-32v123h-644v667h32v-637h259v637h32v-637h259v637z" />
    <glyph glyph-name="afii10044" unicode="&#x42a;" horiz-adv-x="563" 
d="M361 0h-166v637h-167v30h199v-289h134q78 0 121.5 -54t43.5 -135t-43.5 -135t-121.5 -54zM360 348h-133v-318h133q62 0 96.5 44t34.5 115t-34.5 115t-96.5 44z" />
    <glyph glyph-name="afii10045" unicode="&#x42b;" horiz-adv-x="607" 
d="M80 667h32v-289h134q78 0 121.5 -54t43.5 -135t-43.5 -135t-121.5 -54h-166v667zM245 348h-133v-318h133q62 0 96.5 44t34.5 115t-34.5 115t-96.5 44zM527 0h-32v667h32v-667z" />
    <glyph glyph-name="afii10046" unicode="&#x42c;" horiz-adv-x="448" 
d="M80 667h32v-289h134q78 0 121.5 -54t43.5 -135t-43.5 -135t-121.5 -54h-166v667zM245 348h-133v-318h133q62 0 96.5 44t34.5 115t-34.5 115t-96.5 44z" />
    <glyph glyph-name="afii10047" unicode="&#x42d;" horiz-adv-x="512" 
d="M214 -12q-110 0 -174 115l28 16q53 -101 146 -101q90 0 146 87.5t58 222.5h-284v30h283q-5 128 -60.5 209t-142.5 81q-91 0 -145 -91l-27 17q65 104 172 104q109 0 174 -97t65 -248q0 -150 -65.5 -247.5t-173.5 -97.5z" />
    <glyph glyph-name="afii10048" unicode="&#x42e;" horiz-adv-x="749" 
d="M459 -12q-109 0 -169.5 96.5t-61.5 243.5h-116v-328h-32v667h32v-309h116q6 139 66 229.5t165 90.5q109 0 170 -98t61 -247t-61 -247t-170 -98zM459 18q91 0 143.5 90t52.5 225q0 136 -52 225.5t-144 89.5q-93 0 -144.5 -89t-51.5 -226q0 -136 52 -225.5t144 -89.5z" />
    <glyph glyph-name="afii10049" unicode="&#x42f;" horiz-adv-x="473" 
d="M93 0h-39l155 291q-62 5 -104.5 53t-42.5 134q0 89 46.5 139t119.5 50h165v-667h-32v289h-117zM228 319h133v318h-133q-62 0 -96.5 -44t-34.5 -115t34.5 -115t96.5 -44z" />
    <glyph glyph-name="afii10065" unicode="&#x430;" horiz-adv-x="428" 
d="M353 0h-30v56q-47 -68 -128 -68q-61 0 -102 44.5t-41 116.5t41 116.5t102 44.5q82 0 128 -67v105q0 58 -28 89t-79 31q-71 0 -124 -65l-20 22q61 70 144 70q137 0 137 -146v-349zM199 15q84 0 124 74v120q-40 74 -124 74q-53 0 -83.5 -38.5t-30.5 -95.5t30.5 -95.5
t83.5 -38.5z" />
    <glyph glyph-name="afii10066" unicode="&#x431;" horiz-adv-x="465" 
d="M231 15q70 0 107 66t37 162q0 94 -37 159.5t-107 65.5t-107 -65.5t-37 -159.5q0 -96 37 -162t107 -66zM231 -12q-84 0 -130.5 76t-46.5 200q0 175 44 251.5t159 98.5q110 21 110 53h28q0 -31 -32.5 -49t-99.5 -33q-96 -20 -130.5 -65t-48.5 -140q49 115 149 115
q82 0 128.5 -72.5t46.5 -179.5q0 -108 -47.5 -181.5t-129.5 -73.5z" />
    <glyph glyph-name="afii10067" unicode="&#x432;" horiz-adv-x="429" 
d="M244 0h-168v483h166q53 0 85.5 -32.5t32.5 -91.5q0 -42 -19 -70t-49 -39q33 -10 54.5 -44.5t21.5 -74.5q0 -62 -32.5 -96.5t-91.5 -34.5zM242 26q46 0 69.5 27.5t23.5 76.5q0 44 -23.5 75t-69.5 31h-136v-210h136zM239 263q44 0 66 26.5t22 69.5q0 44 -21.5 71t-66.5 27
h-133v-194h133z" />
    <glyph glyph-name="afii10068" unicode="&#x433;" horiz-adv-x="344" 
d="M315 483v-27h-209v-456h-30v483h239z" />
    <glyph glyph-name="afii10069" unicode="&#x434;" horiz-adv-x="457" 
d="M20 -123v148q37 4 59.5 48t35.5 164l27 246h218v-456h60v-150h-30v123h-340v-123h-30zM169 456l-25 -224q-19 -169 -66 -205h252v429h-161z" />
    <glyph glyph-name="afii10070" unicode="&#x435;" 
d="M245 -12q-89 0 -140 71t-51 183q0 109 48 181t130 72q87 0 131.5 -72t44.5 -181v-10h-321q2 -95 44 -156t114 -61q73 0 124 71l23 -17q-61 -81 -147 -81zM376 259q0 50 -14 95.5t-48 79.5t-83 34q-47 0 -80.5 -34.5t-48 -80t-15.5 -94.5h289z" />
    <glyph glyph-name="afii10072" unicode="&#x436;" horiz-adv-x="550" 
d="M62 0h-37l178 265l-182 218h37l202 -244v244h30v-245l202 245h37l-181 -218l178 -265h-38l-160 243l-38 -47v-196h-30v197l-38 46z" />
    <glyph glyph-name="afii10073" unicode="&#x437;" horiz-adv-x="425" 
d="M202 -12q-109 0 -168 81l23 17q52 -71 145 -71q61 0 99 31t38 82q0 104 -143 104h-90v27h90q57 0 96.5 28.5t39.5 79.5q0 46 -39 73.5t-99 27.5q-85 0 -129 -67l-24 16q52 78 153 78q72 0 121 -35t49 -93q0 -46 -32.5 -79.5t-75.5 -41.5q44 -6 80 -37t36 -82
q0 -60 -44.5 -99.5t-125.5 -39.5z" />
    <glyph glyph-name="afii10074" unicode="&#x438;" horiz-adv-x="435" 
d="M108 0h-32v483h30v-423l221 423h33v-483h-30v428z" />
    <glyph glyph-name="afii10075" unicode="&#x439;" horiz-adv-x="435" 
d="M108 0h-32v483h30v-423l221 423h33v-483h-30v428zM363 625q-54 -73 -145 -73t-146 73l22 18q20 -29 53.5 -46.5t70.5 -17.5t70.5 17.5t53.5 46.5z" />
    <glyph glyph-name="afii10076" unicode="&#x43a;" horiz-adv-x="411" 
d="M386 0h-37l-160 243l-83 -101v-142h-30v483h30v-299l247 299h37l-182 -218z" />
    <glyph glyph-name="afii10077" unicode="&#x43b;" horiz-adv-x="435" 
d="M20 -12v27q35 0 58 49.5t37 172.5l27 246h218v-483h-30v456h-161l-25 -224q-15 -138 -44 -191t-80 -53z" />
    <glyph glyph-name="afii10078" unicode="&#x43c;" horiz-adv-x="514" 
d="M438 0h-30v438l-144 -438h-14l-144 438v-438h-30v483h44l137 -414l137 414h44v-483z" />
    <glyph glyph-name="afii10079" unicode="&#x43d;" horiz-adv-x="435" 
d="M106 0h-30v483h30v-218h224v218h30v-483h-30v238h-224v-238z" />
    <glyph glyph-name="afii10080" unicode="&#x43e;" horiz-adv-x="461" 
d="M231 -12q-84 0 -130.5 72.5t-46.5 181.5q0 108 46.5 180.5t130.5 72.5t130.5 -72.5t46.5 -180.5q0 -109 -46.5 -181.5t-130.5 -72.5zM231 15q71 0 107.5 66.5t36.5 160.5q0 93 -36.5 159.5t-107.5 66.5q-70 0 -107 -66.5t-37 -159.5t37 -160t107 -67z" />
    <glyph glyph-name="afii10081" unicode="&#x43f;" horiz-adv-x="435" 
d="M360 0h-30v456h-224v-456h-30v483h284v-483z" />
    <glyph glyph-name="afii10082" unicode="&#x440;" horiz-adv-x="457" 
d="M237 -12q-39 0 -74 24t-57 66v-262h-30v667h30v-75q20 38 55.5 62.5t75.5 24.5q80 0 124 -69.5t44 -183.5q0 -113 -44 -183.5t-124 -70.5zM237 15q67 0 101 64.5t34 162.5t-34 162t-101 64q-41 0 -77.5 -29t-53.5 -69v-255q17 -41 53.5 -70.5t77.5 -29.5z" />
    <glyph glyph-name="afii10083" unicode="&#x441;" horiz-adv-x="394" 
d="M236 -12q-85 0 -133.5 72.5t-48.5 181.5t48.5 181t133.5 72q42 0 70 -15.5t54 -47.5l-21 -19q-41 55 -103 55q-72 0 -110.5 -65t-38.5 -161q0 -95 38.5 -161t110.5 -66q62 0 103 56l21 -20q-25 -33 -53.5 -48t-70.5 -15z" />
    <glyph glyph-name="afii10084" unicode="&#x442;" horiz-adv-x="319" 
d="M174 0h-30v456h-114v27h259v-27h-115v-456z" />
    <glyph glyph-name="afii10085" unicode="&#x443;" horiz-adv-x="375" 
d="M39 -189l6 27q13 -7 33 -7q22 0 35 13t25 47l34 98l-158 494h34l140 -445l140 445h34l-197 -602q-26 -77 -87 -77q-23 0 -39 7z" />
    <glyph glyph-name="afii10086" unicode="&#x444;" horiz-adv-x="615" 
d="M188 495q68 0 105 -87v259h30v-257q16 38 44 61.5t60 23.5q64 0 99.5 -69.5t35.5 -183.5q0 -113 -35.5 -183.5t-99.5 -70.5q-32 0 -59.5 22.5t-44.5 64.5v-259h-30v257q-16 -38 -44.5 -61.5t-60.5 -23.5q-64 0 -99 70t-35 183q0 114 35 184t99 70zM190 468
q-53 0 -79.5 -64t-26.5 -163q0 -98 26.5 -162t79.5 -64q32 0 61 29t42 69v255q-14 41 -42.5 70.5t-60.5 29.5zM426 15q52 0 78.5 64.5t26.5 162.5q0 99 -26 162.5t-79 63.5q-32 0 -61 -29t-42 -69v-255q13 -40 42 -70t61 -30z" />
    <glyph glyph-name="afii10087" unicode="&#x445;" horiz-adv-x="379" 
d="M358 0h-36l-132 223l-133 -223h-36l152 247l-143 236h36l124 -211l124 211h36l-143 -236z" />
    <glyph glyph-name="afii10088" unicode="&#x446;" horiz-adv-x="457" 
d="M390 -123v123h-314v483h30v-456h224v456h30v-456h60v-150h-30z" />
    <glyph glyph-name="afii10089" unicode="&#x447;" horiz-adv-x="431" 
d="M71 483h30v-170q0 -59 24.5 -83t74.5 -24q33 0 69 11t56 26v240h30v-483h-30v217q-56 -38 -127 -38q-66 0 -96.5 31t-30.5 103v170z" />
    <glyph glyph-name="afii10090" unicode="&#x448;" horiz-adv-x="633" 
d="M527 483h30v-483h-481v483h30v-456h195v456h30v-456h196v456z" />
    <glyph glyph-name="afii10091" unicode="&#x449;" horiz-adv-x="655" 
d="M527 483h30v-456h60v-150h-30v123h-511v483h30v-456h195v456h30v-456h196v456z" />
    <glyph glyph-name="afii10092" unicode="&#x44a;" horiz-adv-x="482" 
d="M309 0h-165v456h-114v27h144v-206h135q61 0 94 -39t33 -99q0 -59 -33 -99t-94 -40zM308 251h-134v-224h134q47 0 71.5 30.5t24.5 81.5t-24 81.5t-72 30.5z" />
    <glyph glyph-name="afii10093" unicode="&#x44b;" horiz-adv-x="558" 
d="M76 483h30v-206h134q61 0 94.5 -39.5t33.5 -98.5t-33.5 -99t-94.5 -40h-164v483zM240 251h-134v-224h134q46 0 70.5 30.5t24.5 81.5t-24 81.5t-71 30.5zM482 0h-30v483h30v-483z" />
    <glyph glyph-name="afii10094" unicode="&#x44c;" horiz-adv-x="413" 
d="M76 483h30v-206h134q61 0 94.5 -39.5t33.5 -98.5t-33.5 -99t-94.5 -40h-164v483zM240 251h-134v-224h134q46 0 70.5 30.5t24.5 81.5t-24 81.5t-71 30.5z" />
    <glyph glyph-name="afii10095" unicode="&#x44d;" horiz-adv-x="394" 
d="M158 -12q-42 0 -70.5 15t-53.5 48l21 20q41 -56 103 -56q70 0 108.5 62.5t40.5 154.5h-215v28h214q-3 89 -41.5 148.5t-106.5 59.5q-62 0 -103 -55l-21 19q26 32 54 47.5t70 15.5q85 0 133.5 -72t48.5 -181t-48.5 -181.5t-133.5 -72.5z" />
    <glyph glyph-name="afii10096" unicode="&#x44e;" horiz-adv-x="605" 
d="M374 -12q-83 0 -129.5 71.5t-47.5 178.5h-91v-238h-30v483h30v-218h91q6 100 52 165t125 65q85 0 131 -72t46 -181t-46 -181.5t-131 -72.5zM374 15q71 0 107.5 66.5t36.5 160.5q0 93 -36.5 159.5t-107.5 66.5q-70 0 -107 -66.5t-37 -159.5t37 -160t107 -67z" />
    <glyph glyph-name="afii10097" unicode="&#x44f;" horiz-adv-x="435" 
d="M99 0h-36l114 209q-49 4 -79.5 40.5t-30.5 95.5q0 61 34.5 99.5t93.5 38.5h164v-483h-30v206h-121zM196 233h133v223h-133q-47 0 -71.5 -30.5t-24.5 -80.5q0 -52 24 -82t72 -30z" />
    <glyph glyph-name="afii10071" unicode="&#x451;" 
d="M341 598q0 -11 -8.5 -19.5t-19.5 -8.5t-19.5 8.5t-8.5 19.5t8.5 19.5t19.5 8.5t19.5 -8.5t8.5 -19.5zM179 598q0 -11 -8.5 -19.5t-19.5 -8.5t-19.5 8.5t-8.5 19.5t8.5 19.5t19.5 8.5t19.5 -8.5t8.5 -19.5zM245 -12q-89 0 -140 71t-51 183q0 109 48 181t130 72
q87 0 131.5 -72t44.5 -181v-10h-321q2 -95 44 -156t114 -61q73 0 124 71l23 -17q-61 -81 -147 -81zM376 259q0 50 -14 95.5t-48 79.5t-83 34q-47 0 -80.5 -34.5t-48 -80t-15.5 -94.5h289z" />
    <glyph glyph-name="afii10099" unicode="&#x452;" horiz-adv-x="443" 
d="M256 541h-142v-132q23 36 61.5 61t77.5 25q58 0 86.5 -30t28.5 -98v-453q0 -110 -92 -110q-46 0 -74 38l23 19q21 -30 51 -30q62 0 62 83v453q0 101 -89 101q-39 0 -76.5 -27t-58.5 -65v-376h-30v541h-66v27h66v99h30v-99h142v-27z" />
    <glyph glyph-name="afii10100" unicode="&#x453;" horiz-adv-x="344" 
d="M317 700l-135 -144h-27l119 144h43zM315 483v-27h-209v-456h-30v483h239z" />
    <glyph glyph-name="afii10101" unicode="&#x454;" horiz-adv-x="394" 
d="M236 -12q-85 0 -133.5 72.5t-48.5 181.5t48.5 181t133.5 72q42 0 70 -15.5t54 -47.5l-21 -19q-41 55 -103 55q-68 0 -106.5 -59.5t-42.5 -148.5h215v-28h-215q2 -92 40.5 -154.5t108.5 -62.5q62 0 103 56l21 -20q-25 -33 -53.5 -48t-70.5 -15z" />
    <glyph glyph-name="afii10102" unicode="&#x455;" horiz-adv-x="366" 
d="M179 -12q-89 0 -143 68l23 22q46 -63 120 -63q49 0 80 28t31 73q0 39 -25 65.5t-60.5 43l-71 33.5t-60.5 47t-25 74q0 50 37.5 83t97.5 33q84 0 129 -62l-21 -20q-36 55 -108 55q-48 0 -76.5 -25.5t-28.5 -63.5q0 -36 25 -61t60.5 -40.5t71 -33t60.5 -50t25 -78.5
q0 -56 -38.5 -92t-102.5 -36z" />
    <glyph glyph-name="afii10103" unicode="&#x456;" horiz-adv-x="181" 
d="M91 566q-11 0 -20 8.5t-9 20.5t9 20.5t20 8.5q12 0 20.5 -8.5t8.5 -20.5t-8.5 -20.5t-20.5 -8.5zM106 0h-30v483h30v-483z" />
    <glyph glyph-name="afii10104" unicode="&#x457;" horiz-adv-x="181" 
d="M199 598q0 -11 -8.5 -19.5t-19.5 -8.5t-19.5 8.5t-8.5 19.5t8.5 19.5t19.5 8.5t19.5 -8.5t8.5 -19.5zM37 598q0 -11 -8.5 -19.5t-19.5 -8.5t-19.5 8.5t-8.5 19.5t8.5 19.5t19.5 8.5t19.5 -8.5t8.5 -19.5zM106 0h-30v483h30v-483z" />
    <glyph glyph-name="afii10105" unicode="&#x458;" horiz-adv-x="181" 
d="M91 566q-11 0 -20 8.5t-9 20.5t9 20.5t20 8.5q12 0 20.5 -8.5t8.5 -20.5t-8.5 -20.5t-20.5 -8.5zM14 -196q-47 0 -75 38l23 19q21 -30 52 -30q62 0 62 83v569h30v-569q0 -110 -92 -110z" />
    <glyph glyph-name="afii10106" unicode="&#x459;" horiz-adv-x="667" 
d="M20 -12v27q35 0 58 49.5t37 172.5l27 246h218v-206h134q61 0 94.5 -39.5t33.5 -98.5t-33.5 -99t-94.5 -40h-164v456h-161l-25 -224q-15 -138 -44 -191t-80 -53zM494 251h-134v-224h134q46 0 70.5 30.5t24.5 81.5t-24 81.5t-71 30.5z" />
    <glyph glyph-name="afii10107" unicode="&#x45a;" horiz-adv-x="667" 
d="M106 0h-30v483h30v-218h224v218h30v-218h138q60 0 92 -37.5t32 -94.5t-32.5 -95t-91.5 -38h-168v238h-224v-238zM497 238h-137v-211h137q45 0 68.5 29t23.5 77t-23 76.5t-69 28.5z" />
    <glyph glyph-name="afii10108" unicode="&#x45b;" horiz-adv-x="443" 
d="M260 541h-146v-132q23 36 61.5 61t77.5 25q58 0 86.5 -30t28.5 -98v-367h-30v367q0 101 -89 101q-39 0 -76.5 -27t-58.5 -65v-376h-30v541h-66v27h66v99h30v-99h146v-27z" />
    <glyph glyph-name="afii10109" unicode="&#x45c;" horiz-adv-x="411" 
d="M327 700l-135 -144h-27l119 144h43zM386 0h-37l-160 243l-83 -101v-142h-30v483h30v-299l247 299h37l-182 -218z" />
    <glyph glyph-name="afii10110" unicode="&#x45e;" horiz-adv-x="375" 
d="M39 -189l6 27q13 -7 33 -7q22 0 35 13t25 47l34 98l-158 494h34l140 -445l140 445h34l-197 -602q-26 -77 -87 -77q-23 0 -39 7zM333 625q-54 -73 -145 -73t-146 73l22 18q20 -29 53.5 -46.5t70.5 -17.5t70.5 17.5t53.5 46.5z" />
    <glyph glyph-name="afii10193" unicode="&#x45f;" horiz-adv-x="435" 
d="M203 -122v122h-127v483h30v-456h224v456h30v-483h-127v-122h-30z" />
    <glyph glyph-name="afii10050" unicode="&#x490;" horiz-adv-x="432" 
d="M112 637v-637h-32v667h277v124h32v-154h-277z" />
    <glyph glyph-name="afii10098" unicode="&#x491;" horiz-adv-x="344" 
d="M106 456v-456h-30v483h209v122h30v-149h-209z" />
    <glyph glyph-name="uni1E02" unicode="&#x1e02;" horiz-adv-x="480" 
d="M258 0h-178v667h174q71 0 113.5 -44.5t42.5 -125.5q0 -60 -27.5 -99.5t-70.5 -53.5q46 -7 77.5 -56t31.5 -108q0 -86 -42.5 -133t-120.5 -47zM254 358q61 0 91 38.5t30 100.5q0 61 -30.5 100.5t-90.5 39.5h-142v-279h142zM258 30q63 0 95.5 39.5t32.5 109.5
q0 62 -32.5 105.5t-95.5 43.5h-146v-298h146zM240 733q-11 0 -20 8.5t-9 20.5t9 20.5t20 8.5q12 0 20.5 -8.5t8.5 -20.5t-8.5 -20.5t-20.5 -8.5z" />
    <glyph glyph-name="uni1E03" unicode="&#x1e03;" 
d="M106 113q17 -40 53.5 -69t77.5 -29q67 0 101 64t34 162t-34 162.5t-101 64.5q-41 0 -77.5 -29.5t-53.5 -70.5v-255zM106 0h-30v667h30v-261q21 42 56 65.5t75 23.5q80 0 124 -70t44 -184q0 -113 -44 -183t-124 -70q-40 0 -75.5 24.5t-55.5 63.5v-76zM238 733
q-11 0 -20 8.5t-9 20.5t9 20.5t20 8.5q12 0 20.5 -8.5t8.5 -20.5t-8.5 -20.5t-20.5 -8.5z" />
    <glyph glyph-name="uni1E0A" unicode="&#x1e0a;" horiz-adv-x="535" 
d="M226 0h-146v667h146q118 0 184 -94.5t66 -239.5q0 -146 -66 -239.5t-184 -93.5zM226 30q104 0 159.5 85t55.5 218q0 132 -55.5 218t-159.5 86h-114v-607h114zM268 733q-11 0 -20 8.5t-9 20.5t9 20.5t20 8.5q12 0 20.5 -8.5t8.5 -20.5t-8.5 -20.5t-20.5 -8.5z" />
    <glyph glyph-name="uni1E0B" unicode="&#x1e0b;" 
d="M383 0h-30v76q-20 -39 -55.5 -63.5t-75.5 -24.5q-80 0 -124 70t-44 183q0 114 44 184t124 70q40 0 75 -23.5t56 -65.5v261h30v-667zM222 15q41 0 77.5 29t53.5 69v255q-17 41 -53.5 70.5t-77.5 29.5q-67 0 -101 -64.5t-34 -162.5t34 -162t101 -64zM222 733q-11 0 -20 8.5
t-9 20.5t9 20.5t20 8.5q12 0 20.5 -8.5t8.5 -20.5t-8.5 -20.5t-20.5 -8.5z" />
    <glyph glyph-name="uni1E1E" unicode="&#x1e1e;" horiz-adv-x="432" 
d="M237 733q-11 0 -20 8.5t-9 20.5t9 20.5t20 8.5q12 0 20.5 -8.5t8.5 -20.5t-8.5 -20.5t-20.5 -8.5zM112 0h-32v667h309v-30h-277v-279h270v-30h-270v-328z" />
    <glyph glyph-name="uni1E1F" unicode="&#x1e1f;" horiz-adv-x="224" 
d="M189 733q-11 0 -20 8.5t-9 20.5t9 20.5t20 8.5q12 0 20.5 -8.5t8.5 -20.5t-8.5 -20.5t-20.5 -8.5zM119 0h-30v456h-65v27h65v79q0 53 27 84t73 31q41 0 69 -28l-19 -24q-21 25 -50 25q-70 0 -70 -88v-79h84v-27h-84v-456z" />
    <glyph glyph-name="uni1E22" unicode="&#x1e22;" horiz-adv-x="545" 
d="M465 0h-32v328h-321v-328h-32v667h32v-309h321v309h32v-667zM272 733q-11 0 -20 8.5t-9 20.5t9 20.5t20 8.5q12 0 20.5 -8.5t8.5 -20.5t-8.5 -20.5t-20.5 -8.5z" />
    <glyph glyph-name="uni1E23" unicode="&#x1e23;" horiz-adv-x="435" 
d="M360 0h-30v367q0 101 -89 101q-39 0 -76.5 -27t-58.5 -65v-376h-30v667h30v-258q23 36 61.5 61t77.5 25q58 0 86.5 -30t28.5 -98v-367zM218 733q-11 0 -20 8.5t-9 20.5t9 20.5t20 8.5q12 0 20.5 -8.5t8.5 -20.5t-8.5 -20.5t-20.5 -8.5z" />
    <glyph glyph-name="uni1E56" unicode="&#x1e56;" horiz-adv-x="448" 
d="M112 0h-32v667h166q78 0 121.5 -54t43.5 -135t-43.5 -135t-121.5 -54h-134v-289zM245 319q62 0 96.5 44t34.5 115t-34.5 115t-96.5 44h-133v-318h133zM224 733q-11 0 -20 8.5t-9 20.5t9 20.5t20 8.5q12 0 20.5 -8.5t8.5 -20.5t-8.5 -20.5t-20.5 -8.5z" />
    <glyph glyph-name="uni1E57" unicode="&#x1e57;" horiz-adv-x="457" 
d="M237 -12q-39 0 -74 24t-57 66v-262h-30v667h30v-75q20 38 55.5 62.5t75.5 24.5q80 0 124 -69.5t44 -183.5q0 -113 -44 -183.5t-124 -70.5zM237 15q67 0 101 64.5t34 162.5t-34 162t-101 64q-41 0 -77.5 -29t-53.5 -69v-255q17 -41 53.5 -70.5t77.5 -29.5zM237 566
q-11 0 -20 8.5t-9 20.5t9 20.5t20 8.5q12 0 20.5 -8.5t8.5 -20.5t-8.5 -20.5t-20.5 -8.5z" />
    <glyph glyph-name="uni1E60" unicode="&#x1e60;" horiz-adv-x="447" 
d="M216 -12q-111 0 -176 82l25 24q25 -33 64.5 -54.5t86.5 -21.5q74 0 111 40.5t37 99.5q0 41 -17 72.5t-43.5 51.5t-59 37.5l-65 35.5t-59 38.5t-43.5 53t-17 73.5q0 72 49 115t118 43q100 0 156 -67l-22 -24q-49 61 -134 61q-56 0 -95 -35.5t-39 -92.5q0 -47 31.5 -81.5
t76 -57t89 -48t76 -69.5t31.5 -106q0 -69 -45.5 -119.5t-135.5 -50.5zM223 733q-11 0 -20 8.5t-9 20.5t9 20.5t20 8.5q12 0 20.5 -8.5t8.5 -20.5t-8.5 -20.5t-20.5 -8.5z" />
    <glyph glyph-name="uni1E61" unicode="&#x1e61;" horiz-adv-x="366" 
d="M179 -12q-89 0 -143 68l23 22q46 -63 120 -63q49 0 80 28t31 73q0 39 -25 65.5t-60.5 43l-71 33.5t-60.5 47t-25 74q0 50 37.5 83t97.5 33q84 0 129 -62l-21 -20q-36 55 -108 55q-48 0 -76.5 -25.5t-28.5 -63.5q0 -36 25 -61t60.5 -40.5t71 -33t60.5 -50t25 -78.5
q0 -56 -38.5 -92t-102.5 -36zM183 566q-11 0 -20 8.5t-9 20.5t9 20.5t20 8.5q12 0 20.5 -8.5t8.5 -20.5t-8.5 -20.5t-20.5 -8.5z" />
    <glyph glyph-name="uni1E6A" unicode="&#x1e6a;" horiz-adv-x="423" 
d="M227 0h-32v637h-167v30h367v-30h-168v-637zM211 733q-11 0 -20 8.5t-9 20.5t9 20.5t20 8.5q12 0 20.5 -8.5t8.5 -20.5t-8.5 -20.5t-20.5 -8.5z" />
    <glyph glyph-name="uni1E6B" unicode="&#x1e6b;" horiz-adv-x="234" 
d="M158 -12q-73 0 -73 93v375h-66v27h66v132h30v-132h84v-27h-84v-375q0 -66 43 -66q28 0 47 24l19 -21q-28 -30 -66 -30zM104 733q-11 0 -20 8.5t-9 20.5t9 20.5t20 8.5q12 0 20.5 -8.5t8.5 -20.5t-8.5 -20.5t-20.5 -8.5z" />
    <glyph glyph-name="Wgrave" unicode="&#x1e80;" horiz-adv-x="671" 
d="M502 0h-38l-128 597l-128 -597h-38l-145 667h35l129 -611l130 611h34l130 -611l129 611h35zM376 723h-27l-135 144h43z" />
    <glyph glyph-name="wgrave" unicode="&#x1e81;" horiz-adv-x="594" 
d="M443 0h-27l-119 439l-119 -439h-27l-130 483h33l111 -436l117 436h30l117 -436l111 436h33zM338 556h-27l-135 144h43z" />
    <glyph glyph-name="Wacute" unicode="&#x1e82;" horiz-adv-x="671" 
d="M463 867l-135 -144h-27l119 144h43zM502 0h-38l-128 597l-128 -597h-38l-145 667h35l129 -611l130 611h34l130 -611l129 611h35z" />
    <glyph glyph-name="wacute" unicode="&#x1e83;" horiz-adv-x="594" 
d="M419 700l-135 -144h-27l119 144h43zM443 0h-27l-119 439l-119 -439h-27l-130 483h33l111 -436l117 436h30l117 -436l111 436h33z" />
    <glyph glyph-name="Wdieresis" unicode="&#x1e84;" horiz-adv-x="671" 
d="M445 765q0 -11 -8.5 -19.5t-19.5 -8.5t-19.5 8.5t-8.5 19.5t8.5 19.5t19.5 8.5t19.5 -8.5t8.5 -19.5zM283 765q0 -11 -8.5 -19.5t-19.5 -8.5t-19.5 8.5t-8.5 19.5t8.5 19.5t19.5 8.5t19.5 -8.5t8.5 -19.5zM502 0h-38l-128 597l-128 -597h-38l-145 667h35l129 -611
l130 611h34l130 -611l129 611h35z" />
    <glyph glyph-name="wdieresis" unicode="&#x1e85;" horiz-adv-x="594" 
d="M406 598q0 -11 -8.5 -19.5t-19.5 -8.5t-19.5 8.5t-8.5 19.5t8.5 19.5t19.5 8.5t19.5 -8.5t8.5 -19.5zM244 598q0 -11 -8.5 -19.5t-19.5 -8.5t-19.5 8.5t-8.5 19.5t8.5 19.5t19.5 8.5t19.5 -8.5t8.5 -19.5zM443 0h-27l-119 439l-119 -439h-27l-130 483h33l111 -436
l117 436h30l117 -436l111 436h33z" />
    <glyph glyph-name="uni1EA0" unicode="&#x1ea0;" horiz-adv-x="474" 
d="M458 0h-35l-53 179h-265l-53 -179h-35l201 667h38zM361 209l-124 416l-124 -416h248zM237 -173q-11 0 -20 8.5t-9 20.5t9 20.5t20 8.5q12 0 20.5 -8.5t8.5 -20.5t-8.5 -20.5t-20.5 -8.5z" />
    <glyph glyph-name="uni1EA1" unicode="&#x1ea1;" horiz-adv-x="428" 
d="M353 0h-30v56q-47 -68 -128 -68q-61 0 -102 44.5t-41 116.5t41 116.5t102 44.5q82 0 128 -67v105q0 58 -28 89t-79 31q-71 0 -124 -65l-20 22q61 70 144 70q137 0 137 -146v-349zM199 15q84 0 124 74v120q-40 74 -124 74q-53 0 -83.5 -38.5t-30.5 -95.5t30.5 -95.5
t83.5 -38.5zM214 -173q-11 0 -20 8.5t-9 20.5t9 20.5t20 8.5q12 0 20.5 -8.5t8.5 -20.5t-8.5 -20.5t-20.5 -8.5z" />
    <glyph glyph-name="uni1EA2" unicode="&#x1ea2;" horiz-adv-x="474" 
d="M458 0h-35l-53 179h-265l-53 -179h-35l201 667h38zM361 209l-124 416l-124 -416h248zM201 767l-21 6q12 47 58 47q25 0 41 -15.5t16 -46.5q0 -32 -22 -61h-26q25 29 25 61q0 40 -34 40q-28 0 -37 -31z" />
    <glyph glyph-name="uni1EA3" unicode="&#x1ea3;" horiz-adv-x="428" 
d="M353 0h-30v56q-47 -68 -128 -68q-61 0 -102 44.5t-41 116.5t41 116.5t102 44.5q82 0 128 -67v105q0 58 -28 89t-79 31q-71 0 -124 -65l-20 22q61 70 144 70q137 0 137 -146v-349zM199 15q84 0 124 74v120q-40 74 -124 74q-53 0 -83.5 -38.5t-30.5 -95.5t30.5 -95.5
t83.5 -38.5zM178 597l-21 6q12 47 58 47q25 0 41 -15.5t16 -46.5q0 -32 -22 -61h-26q25 29 25 61q0 40 -34 40q-28 0 -37 -31z" />
    <glyph glyph-name="uni1EA4" unicode="&#x1ea4;" horiz-adv-x="474" 
d="M341 682h-25l-79 88l-75 -88h-26l83 108h36zM458 0h-35l-53 179h-265l-53 -179h-35l201 667h38zM361 209l-124 416l-124 -416h248zM475 844l-135 -108h-27l119 108h43z" />
    <glyph glyph-name="uni1EA5" unicode="&#x1ea5;" horiz-adv-x="428" 
d="M353 0h-30v56q-47 -68 -128 -68q-61 0 -102 44.5t-41 116.5t41 116.5t102 44.5q82 0 128 -67v105q0 58 -28 89t-79 31q-71 0 -124 -65l-20 22q61 70 144 70q137 0 137 -146v-349zM199 15q84 0 124 74v120q-40 74 -124 74q-53 0 -83.5 -38.5t-30.5 -95.5t30.5 -95.5
t83.5 -38.5zM321 556h-25l-79 118l-75 -118h-26l83 144h36zM450 771l-135 -144h-27l119 144h43z" />
    <glyph glyph-name="uni1EA6" unicode="&#x1ea6;" horiz-adv-x="474" 
d="M341 682h-25l-79 88l-75 -88h-26l83 108h36zM458 0h-35l-53 179h-265l-53 -179h-35l201 667h38zM361 209l-124 416l-124 -416h248zM161 736h-27l-135 108h43z" />
    <glyph glyph-name="uni1EA7" unicode="&#x1ea7;" horiz-adv-x="428" 
d="M353 0h-30v56q-47 -68 -128 -68q-61 0 -102 44.5t-41 116.5t41 116.5t102 44.5q82 0 128 -67v105q0 58 -28 89t-79 31q-71 0 -124 -65l-20 22q61 70 144 70q137 0 137 -146v-349zM199 15q84 0 124 74v120q-40 74 -124 74q-53 0 -83.5 -38.5t-30.5 -95.5t30.5 -95.5
t83.5 -38.5zM321 556h-25l-79 118l-75 -118h-26l83 144h36zM145 627h-27l-135 144h43z" />
    <glyph glyph-name="uni1EA8" unicode="&#x1ea8;" horiz-adv-x="474" 
d="M341 682h-25l-79 88l-75 -88h-26l83 108h36zM458 0h-35l-53 179h-265l-53 -179h-35l201 667h38zM361 209l-124 416l-124 -416h248zM302 796l-21 4q12 35 58 35q57 0 57 -46q0 -24 -22 -46h-26q25 22 25 46q0 30 -34 30q-28 0 -37 -23z" />
    <glyph glyph-name="uni1EA9" unicode="&#x1ea9;" horiz-adv-x="428" 
d="M353 0h-30v56q-47 -68 -128 -68q-61 0 -102 44.5t-41 116.5t41 116.5t102 44.5q82 0 128 -67v105q0 58 -28 89t-79 31q-71 0 -124 -65l-20 22q61 70 144 70q137 0 137 -146v-349zM199 15q84 0 124 74v120q-40 74 -124 74q-53 0 -83.5 -38.5t-30.5 -95.5t30.5 -95.5
t83.5 -38.5zM321 556h-25l-79 118l-75 -118h-26l83 144h36zM247 737l-21 6q12 47 58 47q25 0 41 -15.5t16 -46.5q0 -32 -22 -61h-26q25 29 25 61q0 40 -34 40q-28 0 -37 -31z" />
    <glyph glyph-name="uni1EAA" unicode="&#x1eaa;" horiz-adv-x="474" 
d="M341 678h-25l-79 59l-75 -59h-26l83 72h36zM458 0h-35l-53 179h-265l-53 -179h-35l201 667h38zM361 209l-124 416l-124 -416h248zM287 757q-23 0 -38 8.5t-21 19.5t-17.5 19.5t-26.5 8.5q-49 0 -49 -53h-24q0 29 19.5 48t56.5 19q23 0 38 -9t21 -19.5t17.5 -19.5t26.5 -9
q48 0 48 54h24q0 -29 -19 -48t-56 -19z" />
    <glyph glyph-name="uni1EAB" unicode="&#x1eab;" horiz-adv-x="428" 
d="M353 0h-30v56q-47 -68 -128 -68q-61 0 -102 44.5t-41 116.5t41 116.5t102 44.5q82 0 128 -67v105q0 58 -28 89t-79 31q-71 0 -124 -65l-20 22q61 70 144 70q137 0 137 -146v-349zM199 15q84 0 124 74v120q-40 74 -124 74q-53 0 -83.5 -38.5t-30.5 -95.5t30.5 -95.5
t83.5 -38.5zM321 523h-25l-79 118l-75 -118h-26l83 144h36zM264 682q-23 0 -38 17.5t-21 39t-17.5 39t-26.5 17.5q-49 0 -49 -107h-24q0 58 19.5 96t56.5 38q23 0 38 -17.5t21 -39t17.5 -39t26.5 -17.5q48 0 48 107h24q0 -57 -19 -95.5t-56 -38.5z" />
    <glyph glyph-name="uni1EAC" unicode="&#x1eac;" horiz-adv-x="474" 
d="M458 0h-35l-53 179h-265l-53 -179h-35l201 667h38zM361 209l-124 416l-124 -416h248zM340 723h-25l-79 118l-75 -118h-26l83 144h36zM237 -173q-11 0 -20 8.5t-9 20.5t9 20.5t20 8.5q12 0 20.5 -8.5t8.5 -20.5t-8.5 -20.5t-20.5 -8.5z" />
    <glyph glyph-name="uni1EAD" unicode="&#x1ead;" horiz-adv-x="428" 
d="M353 0h-30v56q-47 -68 -128 -68q-61 0 -102 44.5t-41 116.5t41 116.5t102 44.5q82 0 128 -67v105q0 58 -28 89t-79 31q-71 0 -124 -65l-20 22q61 70 144 70q137 0 137 -146v-349zM199 15q84 0 124 74v120q-40 74 -124 74q-53 0 -83.5 -38.5t-30.5 -95.5t30.5 -95.5
t83.5 -38.5zM316 556h-25l-79 118l-75 -118h-26l83 144h36zM214 -173q-11 0 -20 8.5t-9 20.5t9 20.5t20 8.5q12 0 20.5 -8.5t8.5 -20.5t-8.5 -20.5t-20.5 -8.5z" />
    <glyph glyph-name="uni1EAE" unicode="&#x1eae;" horiz-adv-x="474" 
d="M458 0h-35l-53 179h-265l-53 -179h-35l201 667h38zM361 209l-124 416l-124 -416h248zM357 844l-135 -108h-27l119 108h43zM383 763q-54 -73 -145 -73t-146 73l22 18q20 -29 53.5 -46.5t70.5 -17.5t70.5 17.5t53.5 46.5z" />
    <glyph glyph-name="uni1EAF" unicode="&#x1eaf;" horiz-adv-x="428" 
d="M353 0h-30v56q-47 -68 -128 -68q-61 0 -102 44.5t-41 116.5t41 116.5t102 44.5q82 0 128 -67v105q0 58 -28 89t-79 31q-71 0 -124 -65l-20 22q61 70 144 70q137 0 137 -146v-349zM199 15q84 0 124 74v120q-40 74 -124 74q-53 0 -83.5 -38.5t-30.5 -95.5t30.5 -95.5
t83.5 -38.5zM337 756l-135 -144h-27l119 144h43zM362 602q-54 -73 -145 -73t-146 73l22 18q20 -29 53.5 -46.5t70.5 -17.5t70.5 17.5t53.5 46.5z" />
    <glyph glyph-name="uni1EB0" unicode="&#x1eb0;" horiz-adv-x="474" 
d="M458 0h-35l-53 179h-265l-53 -179h-35l201 667h38zM361 209l-124 416l-124 -416h248zM282 736h-27l-135 108h43zM383 762q-54 -73 -145 -73t-146 73l22 18q20 -29 53.5 -46.5t70.5 -17.5t70.5 17.5t53.5 46.5z" />
    <glyph glyph-name="uni1EB1" unicode="&#x1eb1;" horiz-adv-x="428" 
d="M353 0h-30v56q-47 -68 -128 -68q-61 0 -102 44.5t-41 116.5t41 116.5t102 44.5q82 0 128 -67v105q0 58 -28 89t-79 31q-71 0 -124 -65l-20 22q61 70 144 70q137 0 137 -146v-349zM199 15q84 0 124 74v120q-40 74 -124 74q-53 0 -83.5 -38.5t-30.5 -95.5t30.5 -95.5
t83.5 -38.5zM255 612h-27l-135 144h43zM362 604q-54 -73 -145 -73t-146 73l22 18q20 -29 53.5 -46.5t70.5 -17.5t70.5 17.5t53.5 46.5z" />
    <glyph glyph-name="uni1EB2" unicode="&#x1eb2;" horiz-adv-x="474" 
d="M458 0h-35l-53 179h-265l-53 -179h-35l201 667h38zM361 209l-124 416l-124 -416h248zM201 793l-21 4q12 35 58 35q57 0 57 -46q0 -24 -22 -46h-26q25 22 25 46q0 30 -34 30q-28 0 -37 -23zM383 763q-54 -73 -145 -73t-146 73l22 18q20 -29 53.5 -46.5t70.5 -17.5
t70.5 17.5t53.5 46.5z" />
    <glyph glyph-name="uni1EB3" unicode="&#x1eb3;" horiz-adv-x="428" 
d="M353 0h-30v56q-47 -68 -128 -68q-61 0 -102 44.5t-41 116.5t41 116.5t102 44.5q82 0 128 -67v105q0 58 -28 89t-79 31q-71 0 -124 -65l-20 22q61 70 144 70q137 0 137 -146v-349zM199 15q84 0 124 74v120q-40 74 -124 74q-53 0 -83.5 -38.5t-30.5 -95.5t30.5 -95.5
t83.5 -38.5zM180 677l-21 6q12 47 58 47q25 0 41 -15.5t16 -46.5q0 -32 -22 -61h-26q25 29 25 61q0 40 -34 40q-28 0 -37 -31zM362 604q-54 -73 -145 -73t-146 73l22 18q20 -29 53.5 -46.5t70.5 -17.5t70.5 17.5t53.5 46.5z" />
    <glyph glyph-name="uni1EB4" unicode="&#x1eb4;" horiz-adv-x="474" 
d="M458 0h-35l-53 179h-265l-53 -179h-35l201 667h38zM361 209l-124 416l-124 -416h248zM383 737q-54 -52 -145 -52t-146 52l22 12q45 -45 124 -45t124 45zM287 757q-23 0 -38 8.5t-21 19.5t-17.5 19.5t-26.5 8.5q-49 0 -49 -53h-24q0 29 19.5 48t56.5 19q23 0 38 -9
t21 -19.5t17.5 -19.5t26.5 -9q48 0 48 54h24q0 -29 -19 -48t-56 -19z" />
    <glyph glyph-name="uni1EB5" unicode="&#x1eb5;" horiz-adv-x="428" 
d="M353 0h-30v56q-47 -68 -128 -68q-61 0 -102 44.5t-41 116.5t41 116.5t102 44.5q82 0 128 -67v105q0 58 -28 89t-79 31q-71 0 -124 -65l-20 22q61 70 144 70q137 0 137 -146v-349zM199 15q84 0 124 74v120q-40 74 -124 74q-53 0 -83.5 -38.5t-30.5 -95.5t30.5 -95.5
t83.5 -38.5zM362 604q-54 -73 -145 -73t-146 73l22 18q20 -29 53.5 -46.5t70.5 -17.5t70.5 17.5t53.5 46.5zM262 646q-23 0 -38 17.5t-21 39t-17.5 39t-26.5 17.5q-49 0 -49 -107h-24q0 58 19.5 96t56.5 38q23 0 38 -17.5t21 -39t17.5 -39t26.5 -17.5q48 0 48 107h24
q0 -57 -19 -95.5t-56 -38.5z" />
    <glyph glyph-name="uni1EB6" unicode="&#x1eb6;" horiz-adv-x="474" 
d="M458 0h-35l-53 179h-265l-53 -179h-35l201 667h38zM361 209l-124 416l-124 -416h248zM237 -173q-11 0 -20 8.5t-9 20.5t9 20.5t20 8.5q12 0 20.5 -8.5t8.5 -20.5t-8.5 -20.5t-20.5 -8.5zM383 792q-54 -73 -145 -73t-146 73l22 18q20 -29 53.5 -46.5t70.5 -17.5t70.5 17.5
t53.5 46.5z" />
    <glyph glyph-name="uni1EB7" unicode="&#x1eb7;" horiz-adv-x="428" 
d="M353 0h-30v56q-47 -68 -128 -68q-61 0 -102 44.5t-41 116.5t41 116.5t102 44.5q82 0 128 -67v105q0 58 -28 89t-79 31q-71 0 -124 -65l-20 22q61 70 144 70q137 0 137 -146v-349zM199 15q84 0 124 74v120q-40 74 -124 74q-53 0 -83.5 -38.5t-30.5 -95.5t30.5 -95.5
t83.5 -38.5zM214 -173q-11 0 -20 8.5t-9 20.5t9 20.5t20 8.5q12 0 20.5 -8.5t8.5 -20.5t-8.5 -20.5t-20.5 -8.5zM360 625q-54 -73 -145 -73t-146 73l22 18q20 -29 53.5 -46.5t70.5 -17.5t70.5 17.5t53.5 46.5z" />
    <glyph glyph-name="uni1EB8" unicode="&#x1eb8;" horiz-adv-x="444" 
d="M389 0h-309v667h309v-30h-277v-279h270v-30h-270v-298h277v-30zM243 -173q-11 0 -20 8.5t-9 20.5t9 20.5t20 8.5q12 0 20.5 -8.5t8.5 -20.5t-8.5 -20.5t-20.5 -8.5z" />
    <glyph glyph-name="uni1EB9" unicode="&#x1eb9;" 
d="M245 -12q-89 0 -140 71t-51 183q0 109 48 181t130 72q87 0 131.5 -72t44.5 -181v-10h-321q2 -95 44 -156t114 -61q73 0 124 71l23 -17q-61 -81 -147 -81zM376 259q0 50 -14 95.5t-48 79.5t-83 34q-47 0 -80.5 -34.5t-48 -80t-15.5 -94.5h289zM232 -173q-11 0 -20 8.5
t-9 20.5t9 20.5t20 8.5q12 0 20.5 -8.5t8.5 -20.5t-8.5 -20.5t-20.5 -8.5z" />
    <glyph glyph-name="uni1EBA" unicode="&#x1eba;" horiz-adv-x="444" 
d="M389 0h-309v667h309v-30h-277v-279h270v-30h-270v-298h277v-30zM186 767l-21 6q12 47 58 47q25 0 41 -15.5t16 -46.5q0 -32 -22 -61h-26q25 29 25 61q0 40 -34 40q-28 0 -37 -31z" />
    <glyph glyph-name="uni1EBB" unicode="&#x1ebb;" 
d="M245 -12q-89 0 -140 71t-51 183q0 109 48 181t130 72q87 0 131.5 -72t44.5 -181v-10h-321q2 -95 44 -156t114 -61q73 0 124 71l23 -17q-61 -81 -147 -81zM376 259q0 50 -14 95.5t-48 79.5t-83 34q-47 0 -80.5 -34.5t-48 -80t-15.5 -94.5h289zM193 597l-21 6q12 47 58 47
q25 0 41 -15.5t16 -46.5q0 -32 -22 -61h-26q25 29 25 61q0 40 -34 40q-28 0 -37 -31z" />
    <glyph glyph-name="uni1EBC" unicode="&#x1ebc;" horiz-adv-x="444" 
d="M389 0h-309v667h309v-30h-277v-279h270v-30h-270v-298h277v-30zM285 721q-23 0 -38 17.5t-21 39t-17.5 39t-26.5 17.5q-49 0 -49 -107h-24q0 58 19.5 96t56.5 38q23 0 38 -17.5t21 -39t17.5 -39t26.5 -17.5q48 0 48 107h24q0 -57 -19 -95.5t-56 -38.5z" />
    <glyph glyph-name="uni1EBD" unicode="&#x1ebd;" 
d="M245 -12q-89 0 -140 71t-51 183q0 109 48 181t130 72q87 0 131.5 -72t44.5 -181v-10h-321q2 -95 44 -156t114 -61q73 0 124 71l23 -17q-61 -81 -147 -81zM376 259q0 50 -14 95.5t-48 79.5t-83 34q-47 0 -80.5 -34.5t-48 -80t-15.5 -94.5h289zM282 554q-23 0 -38 17.5
t-21 39t-17.5 39t-26.5 17.5q-49 0 -49 -107h-24q0 58 19.5 96t56.5 38q23 0 38 -17.5t21 -39t17.5 -39t26.5 -17.5q48 0 48 107h24q0 -57 -19 -95.5t-56 -38.5z" />
    <glyph glyph-name="uni1EBE" unicode="&#x1ebe;" horiz-adv-x="444" 
d="M341 682h-25l-79 88l-75 -88h-26l83 108h36zM475 844l-135 -108h-27l119 108h43zM389 0h-309v667h309v-30h-277v-279h270v-30h-270v-298h277v-30z" />
    <glyph glyph-name="uni1EBF" unicode="&#x1ebf;" 
d="M333 556h-25l-79 118l-75 -118h-26l83 144h36zM462 771l-135 -144h-27l119 144h43zM245 -12q-89 0 -140 71t-51 183q0 109 48 181t130 72q87 0 131.5 -72t44.5 -181v-10h-321q2 -95 44 -156t114 -61q73 0 124 71l23 -17q-61 -81 -147 -81zM376 259q0 50 -14 95.5
t-48 79.5t-83 34q-47 0 -80.5 -34.5t-48 -80t-15.5 -94.5h289z" />
    <glyph glyph-name="uni1EC0" unicode="&#x1ec0;" horiz-adv-x="444" 
d="M338 682h-25l-79 88l-75 -88h-26l83 108h36zM389 0h-309v667h309v-30h-277v-279h270v-30h-270v-298h277v-30zM158 736h-27l-135 108h43z" />
    <glyph glyph-name="uni1EC1" unicode="&#x1ec1;" 
d="M332 556h-25l-79 118l-75 -118h-26l83 144h36zM245 -12q-89 0 -140 71t-51 183q0 109 48 181t130 72q87 0 131.5 -72t44.5 -181v-10h-321q2 -95 44 -156t114 -61q73 0 124 71l23 -17q-61 -81 -147 -81zM376 259q0 50 -14 95.5t-48 79.5t-83 34q-47 0 -80.5 -34.5t-48 -80
t-15.5 -94.5h289zM156 627h-27l-135 144h43z" />
    <glyph glyph-name="uni1EC2" unicode="&#x1ec2;" horiz-adv-x="444" 
d="M340 682h-25l-79 88l-75 -88h-26l83 108h36zM389 0h-309v667h309v-30h-277v-279h270v-30h-270v-298h277v-30zM301 796l-21 4q12 35 58 35q57 0 57 -46q0 -24 -22 -46h-26q25 22 25 46q0 30 -34 30q-28 0 -37 -23z" />
    <glyph glyph-name="uni1EC3" unicode="&#x1ec3;" 
d="M331 556h-25l-79 118l-75 -118h-26l83 144h36zM245 -12q-89 0 -140 71t-51 183q0 109 48 181t130 72q87 0 131.5 -72t44.5 -181v-10h-321q2 -95 44 -156t114 -61q73 0 124 71l23 -17q-61 -81 -147 -81zM376 259q0 50 -14 95.5t-48 79.5t-83 34q-47 0 -80.5 -34.5t-48 -80
t-15.5 -94.5h289zM258 737l-21 6q12 47 58 47q25 0 41 -15.5t16 -46.5q0 -32 -22 -61h-26q25 29 25 61q0 40 -34 40q-28 0 -37 -31z" />
    <glyph glyph-name="uni1EC4" unicode="&#x1ec4;" horiz-adv-x="444" 
d="M339 678h-25l-79 59l-75 -59h-26l83 72h36zM389 0h-309v667h309v-30h-277v-279h270v-30h-270v-298h277v-30zM285 757q-23 0 -38 8.5t-21 19.5t-17.5 19.5t-26.5 8.5q-49 0 -49 -53h-24q0 29 19.5 48t56.5 19q23 0 38 -9t21 -19.5t17.5 -19.5t26.5 -9q48 0 48 54h24
q0 -29 -19 -48t-56 -19z" />
    <glyph glyph-name="uni1EC5" unicode="&#x1ec5;" 
d="M330 523h-25l-79 118l-75 -118h-26l83 144h36zM245 -12q-89 0 -140 71t-51 183q0 109 48 181t130 72q87 0 131.5 -72t44.5 -181v-10h-321q2 -95 44 -156t114 -61q73 0 124 71l23 -17q-61 -81 -147 -81zM376 259q0 50 -14 95.5t-48 79.5t-83 34q-47 0 -80.5 -34.5t-48 -80
t-15.5 -94.5h289zM274 682q-23 0 -38 17.5t-21 39t-17.5 39t-26.5 17.5q-49 0 -49 -107h-24q0 58 19.5 96t56.5 38q23 0 38 -17.5t21 -39t17.5 -39t26.5 -17.5q48 0 48 107h24q0 -57 -19 -95.5t-56 -38.5z" />
    <glyph glyph-name="uni1EC6" unicode="&#x1ec6;" horiz-adv-x="444" 
d="M338 723h-25l-79 118l-75 -118h-26l83 144h36zM389 0h-309v667h309v-30h-277v-279h270v-30h-270v-298h277v-30zM243 -173q-11 0 -20 8.5t-9 20.5t9 20.5t20 8.5q12 0 20.5 -8.5t8.5 -20.5t-8.5 -20.5t-20.5 -8.5z" />
    <glyph glyph-name="uni1EC7" unicode="&#x1ec7;" 
d="M335 556h-25l-79 118l-75 -118h-26l83 144h36zM245 -12q-89 0 -140 71t-51 183q0 109 48 181t130 72q87 0 131.5 -72t44.5 -181v-10h-321q2 -95 44 -156t114 -61q73 0 124 71l23 -17q-61 -81 -147 -81zM376 259q0 50 -14 95.5t-48 79.5t-83 34q-47 0 -80.5 -34.5t-48 -80
t-15.5 -94.5h289zM232 -173q-11 0 -20 8.5t-9 20.5t9 20.5t20 8.5q12 0 20.5 -8.5t8.5 -20.5t-8.5 -20.5t-20.5 -8.5z" />
    <glyph glyph-name="uni1EC8" unicode="&#x1ec8;" horiz-adv-x="192" 
d="M112 0h-32v667h32v-667zM60 767l-21 6q12 47 58 47q25 0 41 -15.5t16 -46.5q0 -32 -22 -61h-26q25 29 25 61q0 40 -34 40q-28 0 -37 -31z" />
    <glyph glyph-name="uni1EC9" unicode="&#x1ec9;" horiz-adv-x="181" 
d="M106 0h-30v483h30v-483zM54 597l-21 6q12 47 58 47q25 0 41 -15.5t16 -46.5q0 -32 -22 -61h-26q25 29 25 61q0 40 -34 40q-28 0 -37 -31z" />
    <glyph glyph-name="uni1ECA" unicode="&#x1eca;" horiz-adv-x="192" 
d="M112 0h-32v667h32v-667zM96 -173q-11 0 -20 8.5t-9 20.5t9 20.5t20 8.5q12 0 20.5 -8.5t8.5 -20.5t-8.5 -20.5t-20.5 -8.5z" />
    <glyph glyph-name="uni1ECB" unicode="&#x1ecb;" horiz-adv-x="181" 
d="M91 566q-11 0 -20 8.5t-9 20.5t9 20.5t20 8.5q12 0 20.5 -8.5t8.5 -20.5t-8.5 -20.5t-20.5 -8.5zM106 0h-30v483h30v-483zM91 -173q-11 0 -20 8.5t-9 20.5t9 20.5t20 8.5q12 0 20.5 -8.5t8.5 -20.5t-8.5 -20.5t-20.5 -8.5z" />
    <glyph glyph-name="uni1ECC" unicode="&#x1ecc;" horiz-adv-x="580" 
d="M290 -12q-110 0 -170.5 98t-60.5 247t60.5 247t170.5 98t170.5 -98t60.5 -247t-60.5 -247t-170.5 -98zM290 18q92 0 144 89.5t52 225.5q0 137 -52 226t-144 89t-144 -89t-52 -226q0 -136 52 -225.5t144 -89.5zM292 -173q-11 0 -20 8.5t-9 20.5t9 20.5t20 8.5
q12 0 20.5 -8.5t8.5 -20.5t-8.5 -20.5t-20.5 -8.5z" />
    <glyph glyph-name="uni1ECD" unicode="&#x1ecd;" horiz-adv-x="461" 
d="M231 -12q-84 0 -130.5 72.5t-46.5 181.5q0 108 46.5 180.5t130.5 72.5t130.5 -72.5t46.5 -180.5q0 -109 -46.5 -181.5t-130.5 -72.5zM231 15q71 0 107.5 66.5t36.5 160.5q0 93 -36.5 159.5t-107.5 66.5q-70 0 -107 -66.5t-37 -159.5t37 -160t107 -67zM232 -173
q-11 0 -20 8.5t-9 20.5t9 20.5t20 8.5q12 0 20.5 -8.5t8.5 -20.5t-8.5 -20.5t-20.5 -8.5z" />
    <glyph glyph-name="uni1ECE" unicode="&#x1ece;" horiz-adv-x="580" 
d="M290 -12q-110 0 -170.5 98t-60.5 247t60.5 247t170.5 98t170.5 -98t60.5 -247t-60.5 -247t-170.5 -98zM290 18q92 0 144 89.5t52 225.5q0 137 -52 226t-144 89t-144 -89t-52 -226q0 -136 52 -225.5t144 -89.5zM255 767l-21 6q12 47 58 47q25 0 41 -15.5t16 -46.5
q0 -32 -22 -61h-26q25 29 25 61q0 40 -34 40q-28 0 -37 -31z" />
    <glyph glyph-name="uni1ECF" unicode="&#x1ecf;" horiz-adv-x="461" 
d="M231 -12q-84 0 -130.5 72.5t-46.5 181.5q0 108 46.5 180.5t130.5 72.5t130.5 -72.5t46.5 -180.5q0 -109 -46.5 -181.5t-130.5 -72.5zM231 15q71 0 107.5 66.5t36.5 160.5q0 93 -36.5 159.5t-107.5 66.5q-70 0 -107 -66.5t-37 -159.5t37 -160t107 -67zM195 597l-21 6
q12 47 58 47q25 0 41 -15.5t16 -46.5q0 -32 -22 -61h-26q25 29 25 61q0 40 -34 40q-28 0 -37 -31z" />
    <glyph glyph-name="uni1ED0" unicode="&#x1ed0;" horiz-adv-x="580" 
d="M392 682h-25l-79 88l-75 -88h-26l83 108h36zM527 844l-135 -108h-27l119 108h43zM290 -12q-110 0 -170.5 98t-60.5 247t60.5 247t170.5 98t170.5 -98t60.5 -247t-60.5 -247t-170.5 -98zM290 18q92 0 144 89.5t52 225.5q0 137 -52 226t-144 89t-144 -89t-52 -226
q0 -136 52 -225.5t144 -89.5z" />
    <glyph glyph-name="uni1ED1" unicode="&#x1ed1;" horiz-adv-x="461" 
d="M333 556h-25l-79 118l-75 -118h-26l83 144h36zM462 771l-135 -144h-27l119 144h43zM231 -12q-84 0 -130.5 72.5t-46.5 181.5q0 108 46.5 180.5t130.5 72.5t130.5 -72.5t46.5 -180.5q0 -109 -46.5 -181.5t-130.5 -72.5zM231 15q71 0 107.5 66.5t36.5 160.5
q0 93 -36.5 159.5t-107.5 66.5q-70 0 -107 -66.5t-37 -159.5t37 -160t107 -67z" />
    <glyph glyph-name="uni1ED2" unicode="&#x1ed2;" horiz-adv-x="580" 
d="M391 682h-25l-79 88l-75 -88h-26l83 108h36zM290 -12q-110 0 -170.5 98t-60.5 247t60.5 247t170.5 98t170.5 -98t60.5 -247t-60.5 -247t-170.5 -98zM290 18q92 0 144 89.5t52 225.5q0 137 -52 226t-144 89t-144 -89t-52 -226q0 -136 52 -225.5t144 -89.5zM212 736h-27
l-135 108h43z" />
    <glyph glyph-name="uni1ED3" unicode="&#x1ed3;" horiz-adv-x="461" 
d="M332 556h-25l-79 118l-75 -118h-26l83 144h36zM231 -12q-84 0 -130.5 72.5t-46.5 181.5q0 108 46.5 180.5t130.5 72.5t130.5 -72.5t46.5 -180.5q0 -109 -46.5 -181.5t-130.5 -72.5zM231 15q71 0 107.5 66.5t36.5 160.5q0 93 -36.5 159.5t-107.5 66.5q-70 0 -107 -66.5
t-37 -159.5t37 -160t107 -67zM156 627h-27l-135 144h43z" />
    <glyph glyph-name="uni1ED4" unicode="&#x1ed4;" horiz-adv-x="580" 
d="M392 682h-25l-79 88l-75 -88h-26l83 108h36zM290 -12q-110 0 -170.5 98t-60.5 247t60.5 247t170.5 98t170.5 -98t60.5 -247t-60.5 -247t-170.5 -98zM290 18q92 0 144 89.5t52 225.5q0 137 -52 226t-144 89t-144 -89t-52 -226q0 -136 52 -225.5t144 -89.5zM353 796l-21 4
q12 35 58 35q57 0 57 -46q0 -24 -22 -46h-26q25 22 25 46q0 30 -34 30q-28 0 -37 -23z" />
    <glyph glyph-name="uni1ED5" unicode="&#x1ed5;" horiz-adv-x="461" 
d="M332 556h-25l-79 118l-75 -118h-26l83 144h36zM231 -12q-84 0 -130.5 72.5t-46.5 181.5q0 108 46.5 180.5t130.5 72.5t130.5 -72.5t46.5 -180.5q0 -109 -46.5 -181.5t-130.5 -72.5zM231 15q71 0 107.5 66.5t36.5 160.5q0 93 -36.5 159.5t-107.5 66.5q-70 0 -107 -66.5
t-37 -159.5t37 -160t107 -67zM258 737l-21 6q12 47 58 47q25 0 41 -15.5t16 -46.5q0 -32 -22 -61h-26q25 29 25 61q0 40 -34 40q-28 0 -37 -31z" />
    <glyph glyph-name="uni1ED6" unicode="&#x1ed6;" horiz-adv-x="580" 
d="M394 678h-25l-79 59l-75 -59h-26l83 72h36zM290 -12q-110 0 -170.5 98t-60.5 247t60.5 247t170.5 98t170.5 -98t60.5 -247t-60.5 -247t-170.5 -98zM290 18q92 0 144 89.5t52 225.5q0 137 -52 226t-144 89t-144 -89t-52 -226q0 -136 52 -225.5t144 -89.5zM340 757
q-23 0 -38 8.5t-21 19.5t-17.5 19.5t-26.5 8.5q-49 0 -49 -53h-24q0 29 19.5 48t56.5 19q23 0 38 -9t21 -19.5t17.5 -19.5t26.5 -9q48 0 48 54h24q0 -29 -19 -48t-56 -19z" />
    <glyph glyph-name="uni1ED7" unicode="&#x1ed7;" horiz-adv-x="461" 
d="M333 523h-25l-79 118l-75 -118h-26l83 144h36zM231 -12q-84 0 -130.5 72.5t-46.5 181.5q0 108 46.5 180.5t130.5 72.5t130.5 -72.5t46.5 -180.5q0 -109 -46.5 -181.5t-130.5 -72.5zM231 15q71 0 107.5 66.5t36.5 160.5q0 93 -36.5 159.5t-107.5 66.5q-70 0 -107 -66.5
t-37 -159.5t37 -160t107 -67zM277 682q-23 0 -38 17.5t-21 39t-17.5 39t-26.5 17.5q-49 0 -49 -107h-24q0 58 19.5 96t56.5 38q23 0 38 -17.5t21 -39t17.5 -39t26.5 -17.5q48 0 48 107h24q0 -57 -19 -95.5t-56 -38.5z" />
    <glyph glyph-name="uni1ED8" unicode="&#x1ed8;" horiz-adv-x="580" 
d="M394 723h-25l-79 118l-75 -118h-26l83 144h36zM290 -12q-110 0 -170.5 98t-60.5 247t60.5 247t170.5 98t170.5 -98t60.5 -247t-60.5 -247t-170.5 -98zM290 18q92 0 144 89.5t52 225.5q0 137 -52 226t-144 89t-144 -89t-52 -226q0 -136 52 -225.5t144 -89.5zM293 -173
q-11 0 -20 8.5t-9 20.5t9 20.5t20 8.5q12 0 20.5 -8.5t8.5 -20.5t-8.5 -20.5t-20.5 -8.5z" />
    <glyph glyph-name="uni1ED9" unicode="&#x1ed9;" horiz-adv-x="461" 
d="M333 556h-25l-79 118l-75 -118h-26l83 144h36zM231 -12q-84 0 -130.5 72.5t-46.5 181.5q0 108 46.5 180.5t130.5 72.5t130.5 -72.5t46.5 -180.5q0 -109 -46.5 -181.5t-130.5 -72.5zM231 15q71 0 107.5 66.5t36.5 160.5q0 93 -36.5 159.5t-107.5 66.5q-70 0 -107 -66.5
t-37 -159.5t37 -160t107 -67zM232 -173q-11 0 -20 8.5t-9 20.5t9 20.5t20 8.5q12 0 20.5 -8.5t8.5 -20.5t-8.5 -20.5t-20.5 -8.5z" />
    <glyph glyph-name="uni1EDA" unicode="&#x1eda;" horiz-adv-x="580" 
d="M412 867l-135 -144h-27l119 144h43zM290 -12q-110 0 -170.5 98t-60.5 247t60.5 247t170.5 98q116 0 177 -110q43 40 43 84q-5 -1 -7 -1q-14 0 -23 9.5t-9 23.5q0 13 9 22.5t23 9.5q16 0 27 -14t11 -39q0 -35 -18 -68t-43 -52q41 -90 41 -210q0 -149 -60.5 -247
t-170.5 -98zM290 18q92 0 144 89.5t52 225.5q0 137 -52 226t-144 89t-144 -89t-52 -226q0 -136 52 -225.5t144 -89.5z" />
    <glyph glyph-name="uni1EDB" unicode="&#x1edb;" horiz-adv-x="461" 
d="M352 700l-135 -144h-27l119 144h43zM420 529q0 -68 -54 -115q42 -68 42 -172q0 -109 -46.5 -181.5t-130.5 -72.5t-130.5 72.5t-46.5 181.5q0 108 46.5 180.5t130.5 72.5q72 0 119 -57q39 37 39 80q-6 -1 -8 -1q-14 0 -23 9.5t-9 23.5q0 13 9 22.5t23 9.5q16 0 27.5 -14
t11.5 -39zM231 15q71 0 107.5 66.5t36.5 160.5q0 93 -36.5 159.5t-107.5 66.5q-70 0 -107 -66.5t-37 -159.5t37 -160t107 -67z" />
    <glyph glyph-name="uni1EDC" unicode="&#x1edc;" horiz-adv-x="580" 
d="M290 -12q-110 0 -170.5 98t-60.5 247t60.5 247t170.5 98q116 0 177 -110q43 40 43 84q-5 -1 -7 -1q-14 0 -23 9.5t-9 23.5q0 13 9 22.5t23 9.5q16 0 27 -14t11 -39q0 -35 -18 -68t-43 -52q41 -90 41 -210q0 -149 -60.5 -247t-170.5 -98zM290 18q92 0 144 89.5t52 225.5
q0 137 -52 226t-144 89t-144 -89t-52 -226q0 -136 52 -225.5t144 -89.5zM331 723h-27l-135 144h43z" />
    <glyph glyph-name="uni1EDD" unicode="&#x1edd;" horiz-adv-x="461" 
d="M420 529q0 -68 -54 -115q42 -68 42 -172q0 -109 -46.5 -181.5t-130.5 -72.5t-130.5 72.5t-46.5 181.5q0 108 46.5 180.5t130.5 72.5q72 0 119 -57q39 37 39 80q-6 -1 -8 -1q-14 0 -23 9.5t-9 23.5q0 13 9 22.5t23 9.5q16 0 27.5 -14t11.5 -39zM231 15q71 0 107.5 66.5
t36.5 160.5q0 93 -36.5 159.5t-107.5 66.5q-70 0 -107 -66.5t-37 -159.5t37 -160t107 -67zM272 556h-27l-135 144h43z" />
    <glyph glyph-name="uni1EDE" unicode="&#x1ede;" horiz-adv-x="580" 
d="M290 -12q-110 0 -170.5 98t-60.5 247t60.5 247t170.5 98q116 0 177 -110q43 40 43 84q-5 -1 -7 -1q-14 0 -23 9.5t-9 23.5q0 13 9 22.5t23 9.5q16 0 27 -14t11 -39q0 -35 -18 -68t-43 -52q41 -90 41 -210q0 -149 -60.5 -247t-170.5 -98zM290 18q92 0 144 89.5t52 225.5
q0 137 -52 226t-144 89t-144 -89t-52 -226q0 -136 52 -225.5t144 -89.5zM254 767l-21 6q12 47 58 47q25 0 41 -15.5t16 -46.5q0 -32 -22 -61h-26q25 29 25 61q0 40 -34 40q-28 0 -37 -31z" />
    <glyph glyph-name="uni1EDF" unicode="&#x1edf;" horiz-adv-x="461" 
d="M420 529q0 -68 -54 -115q42 -68 42 -172q0 -109 -46.5 -181.5t-130.5 -72.5t-130.5 72.5t-46.5 181.5q0 108 46.5 180.5t130.5 72.5q72 0 119 -57q39 37 39 80q-6 -1 -8 -1q-14 0 -23 9.5t-9 23.5q0 13 9 22.5t23 9.5q16 0 27.5 -14t11.5 -39zM231 15q71 0 107.5 66.5
t36.5 160.5q0 93 -36.5 159.5t-107.5 66.5q-70 0 -107 -66.5t-37 -159.5t37 -160t107 -67zM194 597l-21 6q12 47 58 47q25 0 41 -15.5t16 -46.5q0 -32 -22 -61h-26q25 29 25 61q0 40 -34 40q-28 0 -37 -31z" />
    <glyph glyph-name="uni1EE0" unicode="&#x1ee0;" horiz-adv-x="580" 
d="M290 -12q-110 0 -170.5 98t-60.5 247t60.5 247t170.5 98q116 0 177 -110q43 40 43 84q-5 -1 -7 -1q-14 0 -23 9.5t-9 23.5q0 13 9 22.5t23 9.5q16 0 27 -14t11 -39q0 -35 -18 -68t-43 -52q41 -90 41 -210q0 -149 -60.5 -247t-170.5 -98zM290 18q92 0 144 89.5t52 225.5
q0 137 -52 226t-144 89t-144 -89t-52 -226q0 -136 52 -225.5t144 -89.5zM341 721q-23 0 -38 17.5t-21 39t-17.5 39t-26.5 17.5q-49 0 -49 -107h-24q0 58 19.5 96t56.5 38q23 0 38 -17.5t21 -39t17.5 -39t26.5 -17.5q48 0 48 107h24q0 -57 -19 -95.5t-56 -38.5z" />
    <glyph glyph-name="uni1EE1" unicode="&#x1ee1;" horiz-adv-x="461" 
d="M420 529q0 -68 -54 -115q42 -68 42 -172q0 -109 -46.5 -181.5t-130.5 -72.5t-130.5 72.5t-46.5 181.5q0 108 46.5 180.5t130.5 72.5q72 0 119 -57q39 37 39 80q-6 -1 -8 -1q-14 0 -23 9.5t-9 23.5q0 13 9 22.5t23 9.5q16 0 27.5 -14t11.5 -39zM231 15q71 0 107.5 66.5
t36.5 160.5q0 93 -36.5 159.5t-107.5 66.5q-70 0 -107 -66.5t-37 -159.5t37 -160t107 -67zM281 554q-23 0 -38 17.5t-21 39t-17.5 39t-26.5 17.5q-49 0 -49 -107h-24q0 58 19.5 96t56.5 38q23 0 38 -17.5t21 -39t17.5 -39t26.5 -17.5q48 0 48 107h24q0 -57 -19 -95.5
t-56 -38.5z" />
    <glyph glyph-name="uni1EE2" unicode="&#x1ee2;" horiz-adv-x="580" 
d="M290 -12q-110 0 -170.5 98t-60.5 247t60.5 247t170.5 98q116 0 177 -110q43 40 43 84q-5 -1 -7 -1q-14 0 -23 9.5t-9 23.5q0 13 9 22.5t23 9.5q16 0 27 -14t11 -39q0 -35 -18 -68t-43 -52q41 -90 41 -210q0 -149 -60.5 -247t-170.5 -98zM290 18q92 0 144 89.5t52 225.5
q0 137 -52 226t-144 89t-144 -89t-52 -226q0 -136 52 -225.5t144 -89.5zM292 -173q-11 0 -20 8.5t-9 20.5t9 20.5t20 8.5q12 0 20.5 -8.5t8.5 -20.5t-8.5 -20.5t-20.5 -8.5z" />
    <glyph glyph-name="uni1EE3" unicode="&#x1ee3;" horiz-adv-x="461" 
d="M420 529q0 -68 -54 -115q42 -68 42 -172q0 -109 -46.5 -181.5t-130.5 -72.5t-130.5 72.5t-46.5 181.5q0 108 46.5 180.5t130.5 72.5q72 0 119 -57q39 37 39 80q-6 -1 -8 -1q-14 0 -23 9.5t-9 23.5q0 13 9 22.5t23 9.5q16 0 27.5 -14t11.5 -39zM231 15q71 0 107.5 66.5
t36.5 160.5q0 93 -36.5 159.5t-107.5 66.5q-70 0 -107 -66.5t-37 -159.5t37 -160t107 -67zM232 -173q-11 0 -20 8.5t-9 20.5t9 20.5t20 8.5q12 0 20.5 -8.5t8.5 -20.5t-8.5 -20.5t-20.5 -8.5z" />
    <glyph glyph-name="uni1EE4" unicode="&#x1ee4;" horiz-adv-x="534" 
d="M267 -12q-90 0 -138.5 55.5t-48.5 160.5v463h32v-463q0 -92 40 -139t115 -47t115 47t40 139v463h32v-463q0 -106 -48 -161t-139 -55zM271 -173q-11 0 -20 8.5t-9 20.5t9 20.5t20 8.5q12 0 20.5 -8.5t8.5 -20.5t-8.5 -20.5t-20.5 -8.5z" />
    <glyph glyph-name="uni1EE5" unicode="&#x1ee5;" horiz-adv-x="435" 
d="M360 0h-30v72q-58 -84 -139 -84q-59 0 -87 30t-28 99v366h30v-366q0 -102 89 -102q39 0 77 26t58 64v378h30v-483zM220 -173q-11 0 -20 8.5t-9 20.5t9 20.5t20 8.5q12 0 20.5 -8.5t8.5 -20.5t-8.5 -20.5t-20.5 -8.5z" />
    <glyph glyph-name="uni1EE6" unicode="&#x1ee6;" horiz-adv-x="534" 
d="M267 -12q-90 0 -138.5 55.5t-48.5 160.5v463h32v-463q0 -92 40 -139t115 -47t115 47t40 139v463h32v-463q0 -106 -48 -161t-139 -55zM231 767l-21 6q12 47 58 47q25 0 41 -15.5t16 -46.5q0 -32 -22 -61h-26q25 29 25 61q0 40 -34 40q-28 0 -37 -31z" />
    <glyph glyph-name="uni1EE7" unicode="&#x1ee7;" horiz-adv-x="435" 
d="M360 0h-30v72q-58 -84 -139 -84q-59 0 -87 30t-28 99v366h30v-366q0 -102 89 -102q39 0 77 26t58 64v378h30v-483zM181 597l-21 6q12 47 58 47q25 0 41 -15.5t16 -46.5q0 -32 -22 -61h-26q25 29 25 61q0 40 -34 40q-28 0 -37 -31z" />
    <glyph glyph-name="uni1EE8" unicode="&#x1ee8;" horiz-adv-x="534" 
d="M389 867l-135 -144h-27l119 144h43zM560 730q0 -45 -29 -85t-77 -63v-378q0 -106 -48 -161t-139 -55q-90 0 -138.5 55.5t-48.5 160.5v463h32v-463q0 -92 40 -139t115 -47t115 47t40 139v463h32v-54q32 17 53.5 47.5t21.5 58.5q-6 -1 -8 -1q-14 0 -23 9.5t-9 23.5
q0 13 9 22.5t23 9.5q16 0 27.5 -14t11.5 -39z" />
    <glyph glyph-name="uni1EE9" unicode="&#x1ee9;" horiz-adv-x="435" 
d="M339 700l-135 -144h-27l119 144h43zM360 0h-30v72q-58 -84 -139 -84q-59 0 -87 30t-28 99v366h30v-366q0 -102 89 -102q39 0 77 26t58 64v378h30v-63q27 19 44 46t17 52q-5 -1 -7 -1q-14 0 -23 9.5t-9 23.5q0 13 9 22.5t23 9.5q16 0 27 -14t11 -39q0 -42 -24.5 -79.5
t-67.5 -61.5v-388z" />
    <glyph glyph-name="uni1EEA" unicode="&#x1eea;" horiz-adv-x="534" 
d="M308 723h-27l-135 144h43zM560 730q0 -45 -29 -85t-77 -63v-378q0 -106 -48 -161t-139 -55q-90 0 -138.5 55.5t-48.5 160.5v463h32v-463q0 -92 40 -139t115 -47t115 47t40 139v463h32v-54q32 17 53.5 47.5t21.5 58.5q-6 -1 -8 -1q-14 0 -23 9.5t-9 23.5q0 13 9 22.5
t23 9.5q16 0 27.5 -14t11.5 -39z" />
    <glyph glyph-name="uni1EEB" unicode="&#x1eeb;" horiz-adv-x="435" 
d="M258 556h-27l-135 144h43zM360 0h-30v72q-58 -84 -139 -84q-59 0 -87 30t-28 99v366h30v-366q0 -102 89 -102q39 0 77 26t58 64v378h30v-63q27 19 44 46t17 52q-5 -1 -7 -1q-14 0 -23 9.5t-9 23.5q0 13 9 22.5t23 9.5q16 0 27 -14t11 -39q0 -42 -24.5 -79.5t-67.5 -61.5
v-388z" />
    <glyph glyph-name="uni1EEC" unicode="&#x1eec;" horiz-adv-x="534" 
d="M231 767l-21 6q12 47 58 47q25 0 41 -15.5t16 -46.5q0 -32 -22 -61h-26q25 29 25 61q0 40 -34 40q-28 0 -37 -31zM560 730q0 -45 -29 -85t-77 -63v-378q0 -106 -48 -161t-139 -55q-90 0 -138.5 55.5t-48.5 160.5v463h32v-463q0 -92 40 -139t115 -47t115 47t40 139v463h32
v-54q32 17 53.5 47.5t21.5 58.5q-6 -1 -8 -1q-14 0 -23 9.5t-9 23.5q0 13 9 22.5t23 9.5q16 0 27.5 -14t11.5 -39z" />
    <glyph glyph-name="uni1EED" unicode="&#x1eed;" horiz-adv-x="435" 
d="M181 597l-21 6q12 47 58 47q25 0 41 -15.5t16 -46.5q0 -32 -22 -61h-26q25 29 25 61q0 40 -34 40q-28 0 -37 -31zM360 0h-30v72q-58 -84 -139 -84q-59 0 -87 30t-28 99v366h30v-366q0 -102 89 -102q39 0 77 26t58 64v378h30v-63q27 19 44 46t17 52q-5 -1 -7 -1
q-14 0 -23 9.5t-9 23.5q0 13 9 22.5t23 9.5q16 0 27 -14t11 -39q0 -42 -24.5 -79.5t-67.5 -61.5v-388z" />
    <glyph glyph-name="uni1EEE" unicode="&#x1eee;" horiz-adv-x="534" 
d="M560 730q0 -45 -29 -85t-77 -63v-378q0 -106 -48 -161t-139 -55q-90 0 -138.5 55.5t-48.5 160.5v463h32v-463q0 -92 40 -139t115 -47t115 47t40 139v463h32v-54q32 17 53.5 47.5t21.5 58.5q-6 -1 -8 -1q-14 0 -23 9.5t-9 23.5q0 13 9 22.5t23 9.5q16 0 27.5 -14t11.5 -39
zM317 721q-23 0 -38 17.5t-21 39t-17.5 39t-26.5 17.5q-49 0 -49 -107h-24q0 58 19.5 96t56.5 38q23 0 38 -17.5t21 -39t17.5 -39t26.5 -17.5q48 0 48 107h24q0 -57 -19 -95.5t-56 -38.5z" />
    <glyph glyph-name="uni1EEF" unicode="&#x1eef;" horiz-adv-x="435" 
d="M360 0h-30v72q-58 -84 -139 -84q-59 0 -87 30t-28 99v366h30v-366q0 -102 89 -102q39 0 77 26t58 64v378h30v-63q27 19 44 46t17 52q-5 -1 -7 -1q-14 0 -23 9.5t-9 23.5q0 13 9 22.5t23 9.5q16 0 27 -14t11 -39q0 -42 -24.5 -79.5t-67.5 -61.5v-388zM268 554
q-23 0 -38 17.5t-21 39t-17.5 39t-26.5 17.5q-49 0 -49 -107h-24q0 58 19.5 96t56.5 38q23 0 38 -17.5t21 -39t17.5 -39t26.5 -17.5q48 0 48 107h24q0 -57 -19 -95.5t-56 -38.5z" />
    <glyph glyph-name="uni1EF0" unicode="&#x1ef0;" horiz-adv-x="534" 
d="M271 -173q-11 0 -20 8.5t-9 20.5t9 20.5t20 8.5q12 0 20.5 -8.5t8.5 -20.5t-8.5 -20.5t-20.5 -8.5zM560 730q0 -45 -29 -85t-77 -63v-378q0 -106 -48 -161t-139 -55q-90 0 -138.5 55.5t-48.5 160.5v463h32v-463q0 -92 40 -139t115 -47t115 47t40 139v463h32v-54
q32 17 53.5 47.5t21.5 58.5q-6 -1 -8 -1q-14 0 -23 9.5t-9 23.5q0 13 9 22.5t23 9.5q16 0 27.5 -14t11.5 -39z" />
    <glyph glyph-name="uni1EF1" unicode="&#x1ef1;" horiz-adv-x="435" 
d="M220 -173q-11 0 -20 8.5t-9 20.5t9 20.5t20 8.5q12 0 20.5 -8.5t8.5 -20.5t-8.5 -20.5t-20.5 -8.5zM360 0h-30v72q-58 -84 -139 -84q-59 0 -87 30t-28 99v366h30v-366q0 -102 89 -102q39 0 77 26t58 64v378h30v-63q27 19 44 46t17 52q-5 -1 -7 -1q-14 0 -23 9.5t-9 23.5
q0 13 9 22.5t23 9.5q16 0 27 -14t11 -39q0 -42 -24.5 -79.5t-67.5 -61.5v-388z" />
    <glyph glyph-name="Ygrave" unicode="&#x1ef2;" horiz-adv-x="466" 
d="M249 0h-32v289l-205 378h38l183 -342l184 342h38l-206 -378v-289zM274 723h-27l-135 144h43z" />
    <glyph glyph-name="ygrave" unicode="&#x1ef3;" horiz-adv-x="375" 
d="M39 -189l6 27q13 -7 33 -7q22 0 35 13t25 47l34 98l-158 494h34l140 -445l140 445h34l-197 -602q-26 -77 -87 -77q-23 0 -39 7zM228 556h-27l-135 144h43z" />
    <glyph glyph-name="thinspace" unicode="&#x2009;" horiz-adv-x="44" 
 />
    <glyph glyph-name="endash" unicode="&#x2013;" horiz-adv-x="527" 
d="M497 227h-467v30h467v-30z" />
    <glyph glyph-name="emdash" unicode="&#x2014;" horiz-adv-x="737" 
d="M707 227h-677v30h677v-30z" />
    <glyph glyph-name="afii00208" unicode="&#x2015;" horiz-adv-x="527" 
d="M497 227h-467v30h467v-30z" />
    <glyph glyph-name="quoteleft" unicode="&#x2018;" horiz-adv-x="208" 
d="M62 556q0 36 18 69.5t44 51.5l22 -18q-24 -18 -38.5 -43.5t-14.5 -48.5q6 1 8 1q14 0 23 -9.5t9 -23.5q0 -13 -9 -22.5t-23 -9.5q-16 0 -27.5 14t-11.5 39z" />
    <glyph glyph-name="quoteright" unicode="&#x2019;" horiz-adv-x="208" 
d="M142 624q0 -36 -18 -69.5t-44 -51.5l-22 18q24 18 38.5 43.5t14.5 48.5q-6 -1 -8 -1q-14 0 -23 9.5t-9 23.5q0 13 9 22.5t23 9.5q16 0 27.5 -14t11.5 -39z" />
    <glyph glyph-name="quotesinglbase" unicode="&#x201a;" horiz-adv-x="208" 
d="M142 3q0 -36 -18 -69.5t-44 -51.5l-22 18q24 18 38.5 43.5t14.5 48.5q-6 -1 -8 -1q-14 0 -23 9.5t-9 23.5q0 13 9 22.5t23 9.5q16 0 27.5 -14t11.5 -39z" />
    <glyph glyph-name="quotereversed" unicode="&#x201b;" horiz-adv-x="208" 
d="M67 624q0 25 11 39t27 14q14 0 23 -9.5t9 -22.5q0 -14 -9 -23.5t-23 -9.5l-7 1q0 -23 14.5 -48.5t38.5 -43.5l-22 -18q-26 18 -44 51.5t-18 69.5z" />
    <glyph glyph-name="quotedblleft" unicode="&#x201c;" horiz-adv-x="331" 
d="M67 556q0 36 18 69.5t44 51.5l22 -18q-24 -18 -38.5 -43.5t-14.5 -48.5q5 1 7 1q14 0 23 -9.5t9 -23.5q0 -13 -9 -22.5t-23 -9.5q-16 0 -27 14t-11 39zM190 556q0 36 18 69.5t44 51.5l22 -18q-24 -18 -38.5 -43.5t-14.5 -48.5q5 1 7 1q14 0 23 -9.5t9 -23.5
q0 -13 -9 -22.5t-23 -9.5q-16 0 -27 14t-11 39z" />
    <glyph glyph-name="quotedblright" unicode="&#x201d;" horiz-adv-x="331" 
d="M265 624q0 -36 -18 -69.5t-44 -51.5l-22 18q24 18 38.5 43.5t14.5 48.5q-6 -1 -8 -1q-14 0 -23 9.5t-9 23.5q0 13 9 22.5t23 9.5q16 0 27.5 -14t11.5 -39zM142 624q0 -36 -18 -69.5t-44 -51.5l-22 18q24 18 38.5 43.5t14.5 48.5q-6 -1 -8 -1q-14 0 -23 9.5t-9 23.5
q0 13 9 22.5t23 9.5q16 0 27.5 -14t11.5 -39z" />
    <glyph glyph-name="quotedblbase" unicode="&#x201e;" horiz-adv-x="331" 
d="M142 3q0 -36 -18 -69.5t-44 -51.5l-22 18q24 18 38.5 43.5t14.5 48.5q-6 -1 -8 -1q-14 0 -23 9.5t-9 23.5q0 13 9 22.5t23 9.5q16 0 27.5 -14t11.5 -39zM265 3q0 -36 -18 -69.5t-44 -51.5l-22 18q24 18 38.5 43.5t14.5 48.5q-6 -1 -8 -1q-14 0 -23 9.5t-9 23.5
q0 13 9 22.5t23 9.5q16 0 27.5 -14t11.5 -39z" />
    <glyph glyph-name="dagger" unicode="&#x2020;" horiz-adv-x="251" 
d="M226 539l-89 4l4 -216h-31l4 216l-89 -4v27l89 -3l-4 114h31l-4 -114l89 3v-27z" />
    <glyph glyph-name="daggerdbl" unicode="&#x2021;" horiz-adv-x="251" 
d="M226 566v-27l-89 4v-229l89 4v-27l-89 3l4 -114h-31l4 114l-89 -3v27l89 -4v229l-89 -4v27l89 -3l-4 114h31l-4 -114z" />
    <glyph glyph-name="bullet" unicode="&#x2022;" horiz-adv-x="358" 
d="M278 242q0 -40 -29 -68.5t-69 -28.5t-69 28.5t-29 68.5t29 69t69 29t69 -29t29 -69z" />
    <glyph glyph-name="ellipsis" unicode="&#x2026;" horiz-adv-x="624" 
d="M137 24q0 -14 -9.5 -23.5t-23.5 -9.5t-23.5 9.5t-9.5 23.5q0 13 10 22.5t23 9.5t23 -9.5t10 -22.5zM345 24q0 -14 -9.5 -23.5t-23.5 -9.5t-23.5 9.5t-9.5 23.5q0 13 10 22.5t23 9.5t23 -9.5t10 -22.5zM553 24q0 -14 -9.5 -23.5t-23.5 -9.5t-23.5 9.5t-9.5 23.5
q0 13 10 22.5t23 9.5t23 -9.5t10 -22.5z" />
    <glyph glyph-name="perthousand" unicode="&#x2030;" horiz-adv-x="934" 
d="M302 513q0 -71 -37 -116.5t-96 -45.5t-96 46t-37 116q0 71 37 117.5t96 46.5t96 -46.5t37 -117.5zM510 667l-349 -667h-34l348 667h35zM596 150q0 -70 -37 -116t-96 -46t-96 46t-37 116q0 71 37 117.5t96 46.5t96 -46.5t37 -117.5zM269 513q0 57 -27.5 97t-72.5 40
t-72.5 -40t-27.5 -97q0 -56 28 -95.5t72 -39.5q45 0 72.5 39.5t27.5 95.5zM563 150q0 57 -27.5 97t-72.5 40t-72.5 -40t-27.5 -97q0 -56 27.5 -95.5t72.5 -39.5t72.5 39.5t27.5 95.5zM898 150q0 -70 -37 -116t-96 -46t-96 46t-37 116q0 71 37 117.5t96 46.5t96 -46.5
t37 -117.5zM865 150q0 57 -27.5 97t-72.5 40t-72.5 -40t-27.5 -97q0 -56 27.5 -95.5t72.5 -39.5t72.5 39.5t27.5 95.5z" />
    <glyph glyph-name="guilsinglleft" unicode="&#x2039;" horiz-adv-x="221" 
d="M191 63h-36l-125 180l125 177h36l-125 -177z" />
    <glyph glyph-name="guilsinglright" unicode="&#x203a;" horiz-adv-x="221" 
d="M191 243l-125 -180h-36l125 180l-125 177h36z" />
    <glyph glyph-name="uni203E" unicode="&#x203e;" horiz-adv-x="302" 
d="M302 581h-302v27h302v-27z" />
    <glyph glyph-name="fraction" unicode="&#x2044;" horiz-adv-x="111" 
d="M247 667l-349 -667h-34l348 667h35z" />
    <glyph glyph-name="zerosuperior" unicode="&#x2070;" horiz-adv-x="310" 
d="M281 621q0 -51 -10.5 -95t-40 -78t-74.5 -34t-75 34t-41 78t-11 95q0 52 11 96t41 77t75 33t74.5 -33t40 -77t10.5 -96zM249 621q0 74 -21.5 127t-71.5 53q-36 0 -58 -29.5t-29.5 -67t-7.5 -83.5q0 -33 4.5 -63t14.5 -57.5t29.5 -44t46.5 -16.5q50 0 71.5 53.5
t21.5 127.5z" />
    <glyph glyph-name="foursuperior" unicode="&#x2074;" horiz-adv-x="310" 
d="M278 534h-50v-113h-29v113h-165v27l156 260h38v-261h50v-26zM199 560v227l-136 -227h136z" />
    <glyph glyph-name="fivesuperior" unicode="&#x2075;" horiz-adv-x="310" 
d="M270 542q0 -55 -33.5 -91.5t-81.5 -36.5q-77 0 -116 67l22 17q33 -58 94 -58q37 0 61 29.5t24 72.5q0 48 -23 75t-61 27q-46 0 -82 -41l-23 11v207h197v-26h-168v-163q31 37 82 37q46 0 77 -33.5t31 -93.5z" />
    <glyph glyph-name="sixsuperior" unicode="&#x2076;" horiz-adv-x="310" 
d="M274 540q0 -50 -30.5 -88t-83.5 -38q-45 0 -74 31t-39.5 75t-10.5 101q0 55 11.5 99t42 75.5t76.5 31.5q60 0 94 -52l-19 -20q-28 46 -75 46q-53 0 -76.5 -53.5t-23.5 -126.5v-19q12 25 39 45.5t60 20.5q49 0 79 -33t30 -95zM244 540q0 52 -23 77t-61 25q-28 0 -53 -20.5
t-40 -51.5q4 -51 25.5 -90.5t66.5 -39.5q41 0 63 30.5t22 69.5z" />
    <glyph glyph-name="sevensuperior" unicode="&#x2077;" horiz-adv-x="284" 
d="M250 801l-143 -380h-31l142 374h-189v26h221v-20z" />
    <glyph glyph-name="eightsuperior" unicode="&#x2078;" horiz-adv-x="310" 
d="M271 519q0 -47 -32.5 -76t-83.5 -29q-52 0 -84 28.5t-32 76.5q0 39 26 67.5t62 40.5q-34 11 -58 36.5t-24 62.5q0 49 32 75t78 26t78 -26t32 -75q0 -37 -24 -62.5t-58 -36.5q36 -12 62 -40.5t26 -67.5zM236 724q0 36 -22.5 56.5t-58.5 20.5q-35 0 -57.5 -20.5
t-22.5 -56.5q0 -27 17.5 -47t33 -27.5t29.5 -10.5q14 3 30 10.5t33.5 27.5t17.5 47zM241 520q0 42 -31.5 67.5t-54.5 27.5q-23 -2 -54.5 -27.5t-31.5 -67.5q0 -37 25 -59t61 -22q35 0 60.5 22t25.5 59z" />
    <glyph glyph-name="ninesuperior" unicode="&#x2079;" horiz-adv-x="310" 
d="M37 701q0 51 30.5 88.5t84.5 37.5q45 0 74 -31t39.5 -75t10.5 -101q0 -55 -11.5 -99t-42 -75.5t-76.5 -31.5q-63 0 -94 53l19 19q26 -46 75 -46q36 0 59 29t31.5 67.5t8.5 84.5v18q-12 -25 -39 -45.5t-59 -20.5q-49 0 -79.5 33t-30.5 95zM67 701q0 -52 23 -77t61 -25
q29 0 54 21t39 52q-2 31 -10 57.5t-29 49t-53 22.5q-41 0 -63 -30t-22 -70z" />
    <glyph glyph-name="parenleftsuperior" unicode="&#x207d;" horiz-adv-x="122" 
d="M112 363l-14 -7q-70 120 -70 265q0 143 70 265l14 -7q-56 -132 -56 -258t56 -258z" />
    <glyph glyph-name="parenrightsuperior" unicode="&#x207e;" horiz-adv-x="122" 
d="M103 621q0 -143 -70 -265l-14 7q56 128 56 258t-56 258l14 7q70 -122 70 -265z" />
    <glyph glyph-name="nsuperior" unicode="&#x207f;" horiz-adv-x="327" 
d="M267 326h-28v230q0 69 -61 69q-26 0 -50.5 -17.5t-38.5 -40.5v-241h-28v314h28v-47q15 22 42 38.5t53 16.5q49 0 66 -23t17 -69v-230z" />
    <glyph glyph-name="zeroinferior" unicode="&#x2080;" horiz-adv-x="310" 
d="M281 54q0 -51 -10.5 -95t-40 -78t-74.5 -34t-75 34t-41 78t-11 95q0 52 11 96t41 77t75 33t74.5 -33t40 -77t10.5 -96zM249 54q0 74 -21.5 127t-71.5 53q-36 0 -58 -29.5t-29.5 -67t-7.5 -83.5q0 -33 4.5 -63t14.5 -57.5t29.5 -44t46.5 -16.5q50 0 71.5 53.5t21.5 127.5z
" />
    <glyph glyph-name="oneinferior" unicode="&#x2081;" horiz-adv-x="191" 
d="M131 -146h-30v360l-62 -68l-19 20l84 88h27v-400z" />
    <glyph glyph-name="twoinferior" unicode="&#x2082;" horiz-adv-x="310" 
d="M268 -146h-224v24l35.5 40l33 36.5l28 31.5t26 30.5l21 26.5t18 25.5l13 22.5t10.5 22.5t5.5 20.5t2.5 22q0 37 -23 57.5t-56 20.5q-62 0 -91 -53l-22 17q38 62 114 62q44 0 76 -27t32 -77q0 -48 -34.5 -98.5t-118.5 -144.5q-20 -21 -30 -33h184v-26z" />
    <glyph glyph-name="threeinferior" unicode="&#x2083;" horiz-adv-x="310" 
d="M270 -39q0 -51 -30.5 -82.5t-85.5 -31.5q-40 0 -70.5 19t-45.5 48l22 16q31 -57 93 -57q42 0 64.5 23.5t22.5 65.5q0 45 -26.5 65.5t-65.5 20.5q-25 0 -30 -1v27q5 -1 29 -1q38 0 63 20.5t25 59.5t-23 60t-59 21q-54 0 -89 -52l-22 17q39 61 112 61q48 0 79 -27.5
t31 -77.5q0 -38 -22.5 -62.5t-51.5 -31.5q29 -4 54.5 -31t25.5 -69z" />
    <glyph glyph-name="fourinferior" unicode="&#x2084;" horiz-adv-x="310" 
d="M278 -33h-50v-113h-29v113h-165v27l156 260h38v-261h50v-26zM199 -7v227l-136 -227h136z" />
    <glyph glyph-name="fiveinferior" unicode="&#x2085;" horiz-adv-x="310" 
d="M270 -25q0 -55 -33.5 -91.5t-81.5 -36.5q-77 0 -116 67l22 17q33 -58 94 -58q37 0 61 29.5t24 72.5q0 48 -23 75t-61 27q-46 0 -82 -41l-23 11v207h197v-26h-168v-163q31 37 82 37q46 0 77 -33.5t31 -93.5z" />
    <glyph glyph-name="sixinferior" unicode="&#x2086;" horiz-adv-x="310" 
d="M274 -27q0 -50 -30.5 -88t-83.5 -38q-45 0 -74 31t-39.5 75t-10.5 101q0 55 11.5 99t42 75.5t76.5 31.5q60 0 94 -52l-19 -20q-28 46 -75 46q-53 0 -76.5 -53.5t-23.5 -126.5v-19q12 25 39 45.5t60 20.5q49 0 79 -33t30 -95zM244 -27q0 52 -23 77t-61 25q-28 0 -53 -20.5
t-40 -51.5q4 -51 25.5 -90.5t66.5 -39.5q41 0 63 30.5t22 69.5z" />
    <glyph glyph-name="seveninferior" unicode="&#x2087;" horiz-adv-x="284" 
d="M250 234l-143 -380h-31l142 374h-189v26h221v-20z" />
    <glyph glyph-name="eightinferior" unicode="&#x2088;" horiz-adv-x="310" 
d="M271 -48q0 -47 -32.5 -76t-83.5 -29q-52 0 -84 28.5t-32 76.5q0 39 26 67.5t62 40.5q-34 11 -58 36.5t-24 62.5q0 49 32 75t78 26t78 -26t32 -75q0 -37 -24 -62.5t-58 -36.5q36 -12 62 -40.5t26 -67.5zM236 157q0 36 -22.5 56.5t-58.5 20.5q-35 0 -57.5 -20.5
t-22.5 -56.5q0 -27 17.5 -47t33 -27.5t29.5 -10.5q14 3 30 10.5t33.5 27.5t17.5 47zM241 -47q0 42 -31.5 67.5t-54.5 27.5q-23 -2 -54.5 -27.5t-31.5 -67.5q0 -37 25 -59t61 -22q35 0 60.5 22t25.5 59z" />
    <glyph glyph-name="nineinferior" unicode="&#x2089;" horiz-adv-x="310" 
d="M37 134q0 51 30.5 88.5t84.5 37.5q45 0 74 -31t39.5 -75t10.5 -101q0 -55 -11.5 -99t-42 -75.5t-76.5 -31.5q-63 0 -94 53l19 19q26 -46 75 -46q36 0 59 29t31.5 67.5t8.5 84.5v18q-12 -25 -39 -45.5t-59 -20.5q-49 0 -79.5 33t-30.5 95zM67 134q0 -52 23 -77t61 -25
q29 0 54 21t39 52q-2 31 -10 57.5t-29 49t-53 22.5q-41 0 -63 -30t-22 -70z" />
    <glyph glyph-name="parenleftinferior" unicode="&#x208d;" horiz-adv-x="122" 
d="M112 -204l-14 -7q-70 120 -70 265q0 143 70 265l14 -7q-56 -132 -56 -258t56 -258z" />
    <glyph glyph-name="parenrightinferior" unicode="&#x208e;" horiz-adv-x="122" 
d="M103 54q0 -143 -70 -265l-14 7q56 128 56 258t-56 258l14 7q70 -122 70 -265z" />
    <glyph glyph-name="colonmonetary" unicode="&#x20a1;" horiz-adv-x="495" 
d="M94 -100l44 161q-84 96 -84 272q0 151 65.5 248t173.5 97q2 0 6 -0.5t6 -0.5l25 91h31l-26 -95q34 -7 65 -28l34 123h31l-40 -144q23 -21 41 -50l-28 -17q-14 22 -22 32l-155 -568q15 -3 32 -3q94 0 147 101l28 -16q-66 -115 -175 -115q-14 0 -40 4l-25 -92h-30l27 100
q-33 11 -64 37l-37 -137h-30zM89 333q0 -143 60 -231l148 546h-4q-91 0 -147.5 -88.5t-56.5 -226.5zM171 73q27 -29 62 -44l159 584q-30 24 -65 31z" />
    <glyph glyph-name="frenchfranc" unicode="&#x20a3;" horiz-adv-x="448" 
d="M128 0h-32v161h-77v27h77v479h309v-30h-277v-279h270v-30h-270v-140h178v-27h-178v-161z" />
    <glyph glyph-name="lira" unicode="&#x20a4;" horiz-adv-x="417" 
d="M24 323v30h72q-45 66 -45 139q0 75 46 130t123 55q49 0 88 -27.5t57 -73.5l-26 -17q-14 37 -45 62.5t-74 25.5q-56 0 -96 -42t-40 -114t49 -138h155v-30h-133q34 -44 42 -85h91v-30h-87v-5q0 -90 -80 -154q23 10 47 10q30 0 69.5 -21t62.5 -21q25 0 49 12.5t35 28.5
l19 -26q-38 -45 -105 -45q-39 0 -74 22t-66 22q-37 0 -96 -38l-16 31q60 31 92 78.5t32 100.5v5h-146v30h142q-8 32 -47 85h-95z" />
    <glyph glyph-name="uni20A6" unicode="&#x20a6;" horiz-adv-x="575" 
d="M479 0h-32l-135 251h-184v-251h-32v251h-77v27h77v119h-77v27h77v243h32l131 -243h188v243h32v-243h77v-27h-77v-119h77v-27h-77v-251zM274 397l64 -119h109v119h-173zM128 397v-119h170l-64 119h-106zM353 251l94 -173v173h-94zM128 595v-171h91z" />
    <glyph glyph-name="peseta" unicode="&#x20a7;" horiz-adv-x="505" 
d="M495 462h-69q-4 -75 -47 -124t-117 -49h-134v-289h-32v462h-77v30h77v175h166q75 0 117.5 -49.5t46.5 -125.5h69v-30zM128 637v-145h263q-3 65 -37.5 105t-92.5 40h-133zM261 319q58 0 92 39t38 104h-263v-143h133z" />
    <glyph glyph-name="rupee" unicode="&#x20a8;" horiz-adv-x="789" 
d="M602 -12q-89 0 -143 68l23 22q46 -63 120 -63q49 0 80 28t31 73q0 39 -25 65.5t-60.5 43l-71 33.5t-60.5 47t-25 74q0 50 37.5 83t97.5 33q84 0 129 -62l-21 -20q-36 55 -108 55q-48 0 -76.5 -25.5t-28.5 -63.5q0 -36 25 -61t60.5 -40.5t71 -33t60.5 -50t25 -78.5
q0 -56 -38.5 -92t-102.5 -36zM419 0h-39l-151 289h-117v-289h-32v667h165q73 0 119.5 -50t46.5 -139q0 -86 -42.5 -134t-104.5 -53zM245 319q62 0 96.5 44t34.5 115t-34.5 115t-96.5 44h-133v-318h133z" />
    <glyph glyph-name="uni20A9" unicode="&#x20a9;" horiz-adv-x="684" 
d="M509 0h-38l-54 251h-148l-54 -251h-38l-54 251h-94v27h88l-26 119h-62v27h56l-53 243h35l51 -243h156l52 243h34l51 -243h156l52 243h35l-53 -243h55v-27h-61l-26 -119h87v-27h-93zM124 397l25 -119h94l25 119h-144zM417 397l26 -119h93l25 119h-144zM300 397l-25 -119
h136l-25 119h-86zM154 251l42 -195l41 195h-83zM448 251l42 -195l41 195h-83zM343 597l-37 -173h74z" />
    <glyph glyph-name="afii57636" unicode="&#x20aa;" horiz-adv-x="622" 
d="M384 0h-163v399h32v-370h131q131 0 131 147v374h32v-340q0 -111 -37.5 -160.5t-125.5 -49.5zM239 550q88 0 125.5 -49t37.5 -160v-191h-32v225q0 76 -32.5 111t-98.5 35h-131v-521h-32v550h163z" />
    <glyph glyph-name="dong" unicode="&#x20ab;" horiz-adv-x="468" 
d="M386 -119h-302v27h302v-27zM383 0h-30v76q-20 -39 -55.5 -63.5t-75.5 -24.5q-80 0 -124 70t-44 183q0 114 44 184t124 70q40 0 75 -23.5t56 -65.5v135h-143v27h143v99h30v-99h69v-27h-69v-541zM222 15q41 0 77.5 29t53.5 69v255q-17 41 -53.5 70.5t-77.5 29.5
q-67 0 -101 -64.5t-34 -162.5t34 -162t101 -64z" />
    <glyph glyph-name="Euro" unicode="&#x20ac;" horiz-adv-x="525" 
d="M313 -12q-91 0 -153 71t-80 188h-51v30h48q-3 27 -3 56t3 58h-48v30h51q18 117 80 187t153 70q107 0 173 -104l-28 -17q-52 91 -145 91q-75 0 -128 -62t-70 -165h243v-30h-246q-3 -28 -3 -58q0 -29 3 -56h246v-30h-243q17 -104 69.5 -166.5t128.5 -62.5q94 0 147 101
l28 -16q-66 -115 -175 -115z" />
    <glyph glyph-name="afii61289" unicode="&#x2113;" horiz-adv-x="380" 
d="M112 310v-229q0 -66 43 -66q28 0 47 24l19 -21q-27 -30 -66 -30q-73 0 -73 93v452q0 62 38 103t99 41q55 0 92.5 -29.5t37.5 -78.5q0 -38 -21 -68.5t-67 -70.5zM112 349l131 104q42 36 59.5 61t17.5 55q0 35 -30.5 58t-70.5 23q-46 0 -76.5 -32t-30.5 -86v-183z" />
    <glyph glyph-name="afii61352" unicode="&#x2116;" horiz-adv-x="881" 
d="M712 350q-58 0 -92 47.5t-34 117.5t34 117.5t92 47.5q59 0 93 -47t34 -118q0 -70 -34 -117.5t-93 -47.5zM712 376q47 0 72 40.5t25 98.5t-25 98t-72 40q-46 0 -71 -40t-25 -98t25 -98.5t71 -40.5zM463 0h-32l-319 595v-595h-32v667h32l319 -589v589h32v-667z" />
    <glyph glyph-name="published" unicode="&#x2117;" horiz-adv-x="778" 
d="M734 334q0 -142 -101 -243.5t-244 -101.5t-244 101.5t-101 243.5t101 243.5t244 101.5t244 -101.5t101 -243.5zM708 334q0 131 -94 225t-225 94t-225 -94t-94 -225t94 -225t225 -94t225 94t94 225zM545 422q0 -52 -36 -82t-89 -30h-112v-179h-29v405h141q53 0 89 -30.5
t36 -83.5zM516 422q0 40 -26 62.5t-70 22.5h-112v-168h112q44 0 70 22t26 61z" />
    <glyph glyph-name="servicemark" unicode="&#x2120;" horiz-adv-x="425" 
d="M388 447h-28v182l-65 -182h-8l-65 182v-182h-28v220h43l54 -158l54 158h43v-220zM155 504q0 -29 -19 -46.5t-52 -17.5q-43 0 -69 29l16 23q22 -26 50 -26q20 0 31.5 10t11.5 26q0 18 -16 30.5t-36 18.5t-36 22t-16 40q0 26 19 43t48 17q41 0 63 -24l-15 -21
q-18 20 -46 20q-16 0 -26.5 -9t-10.5 -24q0 -16 16 -27t35.5 -18t35.5 -23.5t16 -42.5z" />
    <glyph glyph-name="trademark" unicode="&#x2122;" horiz-adv-x="414" 
d="M379 447h-28v182l-65 -182h-8l-65 182v-182h-28v220h43l54 -158l54 158h43v-220zM149 641h-52v-194h-28v194h-52v26h132v-26z" />
    <glyph glyph-name="Omega" unicode="&#x2126;" horiz-adv-x="570" 
d="M68 30h109q-55 40 -89 115.5t-34 187.5q0 155 61.5 250t169.5 95t169.5 -95t61.5 -250q0 -214 -122 -303h109v-30h-158v30q54 22 95 97.5t41 205.5q0 145 -52 229.5t-144 84.5t-144 -85t-52 -229q0 -130 41.5 -205.5t95.5 -97.5v-30h-158v30z" />
    <glyph glyph-name="estimated" unicode="&#x212e;" horiz-adv-x="842" 
d="M811 324h-632q-5 0 -5 -5v-190q0 -14 9 -23q98 -103 240 -103q151 0 250 115h57q-54 -63 -135 -99.5t-174 -36.5q-161 0 -275.5 103t-114.5 248t114.5 248t275.5 103t275.5 -103t114.5 -248v-9zM668 349v191q0 14 -10 24q-97 99 -235 99q-140 0 -239 -102
q-10 -10 -10 -24v-188q0 -6 5 -6h485q4 0 4 6z" />
    <glyph glyph-name="onethird" unicode="&#x2153;" horiz-adv-x="650" 
d="M131 267h-30v360l-62 -68l-19 20l84 88h27v-400zM476 667l-349 -667h-34l348 667h35zM610 107q0 -51 -30.5 -82.5t-85.5 -31.5q-40 0 -70.5 19t-45.5 48l22 16q31 -57 93 -57q42 0 64.5 23.5t22.5 65.5q0 45 -26.5 65.5t-65.5 20.5q-25 0 -30 -1v27q5 -1 29 -1
q38 0 63 20.5t25 59.5t-23 60t-59 21q-54 0 -89 -52l-22 17q39 61 112 61q48 0 79 -27.5t31 -77.5q0 -38 -22.5 -62.5t-51.5 -31.5q29 -4 54.5 -31t25.5 -69z" />
    <glyph glyph-name="twothirds" unicode="&#x2154;" horiz-adv-x="731" 
d="M268 267h-224v24l35.5 40l33 36.5l28 31.5t26 30.5l21 26.5t18 25.5l13 22.5t10.5 22.5t5.5 20.5t2.5 22q0 37 -23 57.5t-56 20.5q-62 0 -91 -53l-22 17q38 62 114 62q44 0 76 -27t32 -77q0 -48 -34.5 -98.5t-118.5 -144.5q-20 -21 -30 -33h184v-26zM557 667l-349 -667
h-34l348 667h35zM691 107q0 -51 -30.5 -82.5t-85.5 -31.5q-40 0 -70.5 19t-45.5 48l22 16q31 -57 93 -57q42 0 64.5 23.5t22.5 65.5q0 45 -26.5 65.5t-65.5 20.5q-25 0 -30 -1v27q5 -1 29 -1q38 0 63 20.5t25 59.5t-23 60t-59 21q-54 0 -89 -52l-22 17q39 61 112 61
q47 0 78.5 -27.5t31.5 -77.5q0 -38 -22.5 -62.5t-51.5 -31.5q29 -4 54.5 -31t25.5 -69z" />
    <glyph glyph-name="oneeighth" unicode="&#x215b;" horiz-adv-x="650" 
d="M131 267h-30v360l-62 -68l-19 20l84 88h27v-400zM611 98q0 -47 -32.5 -76t-83.5 -29q-52 0 -84 28.5t-32 76.5q0 39 26 67.5t62 40.5q-34 11 -58 36.5t-24 62.5q0 49 32 75t78 26t78 -26t32 -75q0 -37 -24 -62.5t-58 -36.5q36 -12 62 -40.5t26 -67.5zM576 303
q0 36 -22.5 56.5t-58.5 20.5q-35 0 -57.5 -20.5t-22.5 -56.5q0 -27 17.5 -47t33 -27.5t29.5 -10.5q14 3 30 10.5t33.5 27.5t17.5 47zM581 99q0 42 -31.5 67.5t-54.5 27.5q-23 -2 -54.5 -27.5t-31.5 -67.5q0 -37 25 -59t61 -22q35 0 60.5 22t25.5 59zM476 667l-349 -667h-34
l348 667h35z" />
    <glyph glyph-name="threeeighths" unicode="&#x215c;" horiz-adv-x="731" 
d="M692 98q0 -47 -32.5 -76t-83.5 -29q-52 0 -84 28.5t-32 76.5q0 39 26 67.5t62 40.5q-34 11 -58 36.5t-24 62.5q0 49 32 75t78 26t78 -26t32 -75q0 -37 -24 -62.5t-58 -36.5q36 -12 62 -40.5t26 -67.5zM657 303q0 36 -22.5 56.5t-58.5 20.5q-35 0 -57.5 -20.5t-22.5 -56.5
q0 -27 17.5 -47t33 -27.5t29.5 -10.5q14 3 30 10.5t33.5 27.5t17.5 47zM662 99q0 42 -31.5 67.5t-54.5 27.5q-23 -2 -54.5 -27.5t-31.5 -67.5q0 -37 25 -59t61 -22q35 0 60.5 22t25.5 59zM557 667l-349 -667h-34l348 667h35zM270 374q0 -51 -30.5 -82.5t-85.5 -31.5
q-40 0 -70.5 19t-45.5 48l22 16q31 -57 93 -57q42 0 64.5 23.5t22.5 65.5q0 45 -26.5 65.5t-65.5 20.5q-25 0 -30 -1v27q5 -1 29 -1q38 0 63 20.5t25 59.5t-23 60t-59 21q-54 0 -89 -52l-22 17q39 61 112 61q48 0 79 -27.5t31 -77.5q0 -38 -22.5 -62.5t-51.5 -31.5
q29 -4 54.5 -31t25.5 -69z" />
    <glyph glyph-name="fiveeighths" unicode="&#x215d;" horiz-adv-x="731" 
d="M692 98q0 -47 -32.5 -76t-83.5 -29q-52 0 -84 28.5t-32 76.5q0 39 26 67.5t62 40.5q-34 11 -58 36.5t-24 62.5q0 49 32 75t78 26t78 -26t32 -75q0 -37 -24 -62.5t-58 -36.5q36 -12 62 -40.5t26 -67.5zM657 303q0 36 -22.5 56.5t-58.5 20.5q-35 0 -57.5 -20.5t-22.5 -56.5
q0 -27 17.5 -47t33 -27.5t29.5 -10.5q14 3 30 10.5t33.5 27.5t17.5 47zM662 99q0 42 -31.5 67.5t-54.5 27.5q-23 -2 -54.5 -27.5t-31.5 -67.5q0 -37 25 -59t61 -22q35 0 60.5 22t25.5 59zM270 388q0 -55 -33.5 -91.5t-81.5 -36.5q-77 0 -116 67l22 17q33 -58 94 -58
q37 0 61 29.5t24 72.5q0 48 -23 75t-61 27q-46 0 -82 -41l-23 11v207h197v-26h-168v-163q31 37 82 37q46 0 77 -33.5t31 -93.5zM557 667l-349 -667h-34l348 667h35z" />
    <glyph glyph-name="seveneighths" unicode="&#x215e;" horiz-adv-x="660" 
d="M621 98q0 -47 -32.5 -76t-83.5 -29q-52 0 -84 28.5t-32 76.5q0 39 26 67.5t62 40.5q-34 11 -58 36.5t-24 62.5q0 49 32 75t78 26t78 -26t32 -75q0 -37 -24 -62.5t-58 -36.5q36 -12 62 -40.5t26 -67.5zM586 303q0 36 -22.5 56.5t-58.5 20.5q-35 0 -57.5 -20.5t-22.5 -56.5
q0 -27 17.5 -47t33 -27.5t29.5 -10.5q14 3 30 10.5t33.5 27.5t17.5 47zM591 99q0 42 -31.5 67.5t-54.5 27.5q-23 -2 -54.5 -27.5t-31.5 -67.5q0 -37 25 -59t61 -22q35 0 60.5 22t25.5 59zM250 647l-143 -380h-31l142 374h-189v26h221v-20zM487 667l-349 -667h-34l348 667h35
z" />
    <glyph glyph-name="arrowleft" unicode="&#x2190;" horiz-adv-x="582" 
d="M538 211h-269l12 -130l-281 205l281 204l-12 -129h269v-150z" />
    <glyph glyph-name="arrowup" unicode="&#x2191;" horiz-adv-x="582" 
d="M216 17v269l-130 -12l205 281l204 -281l-129 12v-269h-150z" />
    <glyph glyph-name="arrowright" unicode="&#x2192;" horiz-adv-x="582" 
d="M584 286l-281 -205l12 130h-268v150h268l-12 129z" />
    <glyph glyph-name="arrowdown" unicode="&#x2193;" horiz-adv-x="582" 
d="M366 555v-269l130 12l-205 -281l-204 281l129 -12v269h150z" />
    <glyph glyph-name="partialdiff" unicode="&#x2202;" horiz-adv-x="461" 
d="M231 -12q-84 0 -130.5 72.5t-46.5 181.5q0 108 46.5 180.5t130.5 72.5q72 0 115 -70q-24 60 -74 124.5t-110 107.5l23 21q98 -84 160.5 -197t62.5 -239q0 -109 -46.5 -181.5t-130.5 -72.5zM231 15q71 0 107.5 66.5t36.5 160.5q0 93 -36.5 159.5t-107.5 66.5
q-70 0 -107 -66.5t-37 -159.5t37 -160t107 -67z" />
    <glyph glyph-name="Delta" unicode="&#x2206;" horiz-adv-x="494" 
d="M478 0h-461l211 667h38zM434 30l-187 595l-187 -595h374z" />
    <glyph glyph-name="product" unicode="&#x220f;" horiz-adv-x="494" 
d="M381 -90h-32v727h-205v-727h-32v727h-84v30h438v-30h-85v-727z" />
    <glyph glyph-name="summation" unicode="&#x2211;" horiz-adv-x="431" 
d="M91 637l186 -337l-187 -360h292v-30h-327v30l187 359l-186 338v30h326v-30h-291z" />
    <glyph glyph-name="minus" unicode="&#x2212;" horiz-adv-x="434" 
d="M405 322h-376v30h376v-30z" />
    <glyph glyph-name="uni2215" unicode="&#x2215;" horiz-adv-x="111" 
d="M247 667l-349 -667h-34l348 667h35z" />
    <glyph glyph-name="uni2219" unicode="&#x2219;" horiz-adv-x="208" 
d="M137 245q0 -13 -9.5 -23t-23.5 -10t-23.5 10t-9.5 23t10 22.5t23 9.5t23 -9.5t10 -22.5z" />
    <glyph glyph-name="radical" unicode="&#x221a;" horiz-adv-x="613" 
d="M368 0h-35l-111 340l-152 -50l-9 28l178 59l112 -342l206 632h28z" />
    <glyph glyph-name="infinity" unicode="&#x221e;" horiz-adv-x="547" 
d="M153 180q-60 0 -92 46.5t-32 108.5q0 63 32 109t92 46q41 0 71.5 -32.5t48.5 -83.5q44 116 122 116q60 0 91.5 -46t31.5 -109q0 -62 -31.5 -108.5t-91.5 -46.5q-78 0 -122 116q-18 -51 -48.5 -83.5t-71.5 -32.5zM392 211q45 0 69.5 35t24.5 89q0 55 -24.5 90t-69.5 35
q-62 0 -104 -125q41 -124 104 -124zM155 211q63 0 104 124q-42 125 -104 125q-45 0 -69.5 -35t-24.5 -90q0 -54 24.5 -89t69.5 -35z" />
    <glyph glyph-name="integral" unicode="&#x222b;" horiz-adv-x="276" 
d="M64 -100h-47v30h47q24 0 41.5 21t17.5 52v662q0 45 27 74t62 29h47v-30h-47q-24 0 -41.5 -20.5t-17.5 -52.5v-662q0 -45 -27 -74t-62 -29z" />
    <glyph glyph-name="approxequal" unicode="&#x2248;" horiz-adv-x="434" 
d="M29 220v35q40 -27 94 -27q41 0 90 24t97 24q54 0 95 -23v-34q-41 27 -95 27q-40 0 -89.5 -24t-97.5 -24q-52 0 -94 22zM29 415v35q40 -27 94 -27q41 0 90 24t97 24q54 0 95 -23v-34q-41 27 -95 27q-40 0 -89.5 -24t-97.5 -24q-52 0 -94 22z" />
    <glyph glyph-name="notequal" unicode="&#x2260;" horiz-adv-x="434" 
d="M109 93h-34l66 127h-112v30h128l87 168h-215v30h231l65 126h35l-66 -126h111v-30h-126l-88 -168h214v-30h-230z" />
    <glyph glyph-name="lessequal" unicode="&#x2264;" horiz-adv-x="434" 
d="M405 128l-376 196v21l376 197v-36l-335 -172l335 -170v-36zM405 30h-376v30h376v-30z" />
    <glyph glyph-name="greaterequal" unicode="&#x2265;" horiz-adv-x="434" 
d="M405 324l-376 -196v36l335 170l-335 172v36l376 -197v-21zM405 30h-376v30h376v-30z" />
    <glyph glyph-name="triangleright" unicode="&#x22b2;" horiz-adv-x="587" 
d="M589 286l-535 -309v618z" />
    <glyph glyph-name="triangleleft" unicode="&#x22b3;" horiz-adv-x="587" 
d="M535 595v-618l-535 309z" />
    <glyph glyph-name="dotmath" unicode="&#x22c5;" horiz-adv-x="208" 
d="M137 245q0 -13 -9.5 -23t-23.5 -10t-23.5 10t-9.5 23t10 22.5t23 9.5t23 -9.5t10 -22.5z" />
    <glyph glyph-name="uni2318" unicode="&#x2318;" horiz-adv-x="667" 
d="M233 154v81h-80q-34 0 -56.5 -23.5t-22.5 -57.5t23 -58t56 -24q34 0 57 24t23 58zM233 432v82q0 34 -22.5 57.5t-56.5 23.5t-57 -23.5t-23 -57.5t23 -58t57 -24h79zM265 265h137v137h-137v-137zM593 154q0 34 -22.5 57.5t-55.5 23.5h-81v-81q0 -34 23 -58t57 -24
q33 0 56 24t23 58zM593 514q0 34 -22.5 57.5t-56.5 23.5t-57 -23.5t-23 -57.5v-82h81q33 0 55.5 24t22.5 58zM625 154q0 -46 -32.5 -79t-78.5 -33t-79 33t-33 79v81h-137v-81q0 -46 -33 -79t-79 -33t-78.5 33t-32.5 79t32.5 78.5t78.5 32.5h80v137h-79q-46 0 -79 33t-33 79
t33 78.5t79 32.5t78.5 -32.5t32.5 -78.5v-82h137v82q0 46 33 78.5t79 32.5t78.5 -32.5t32.5 -78.5t-32.5 -79t-78.5 -33h-80v-137h80q46 0 78.5 -32.5t32.5 -78.5z" />
    <glyph glyph-name="blacksquare" unicode="&#x25a0;" horiz-adv-x="661" 
d="M618 0h-571v572h571v-572z" />
    <glyph glyph-name="triagup" unicode="&#x25b2;" horiz-adv-x="616" 
d="M617 29l-619 1l309 535z" />
    <glyph glyph-name="triagdn" unicode="&#x25bc;" horiz-adv-x="616" 
d="M617 510l-310 -535l-309 535h619z" />
    <glyph glyph-name="lozenge" unicode="&#x25ca;" horiz-adv-x="375" 
d="M198 0h-21l-158 334l158 333h21l158 -333zM188 41l132 293l-133 292l-132 -292z" />
    <glyph glyph-name="circlesolid" unicode="&#x25cf;" horiz-adv-x="695" 
d="M644 285q0 -123 -87 -210t-210 -87t-210 87t-87 210t87 210t210 87t210 -87t87 -210z" />
    <glyph glyph-name="blackstar" unicode="&#x2605;" horiz-adv-x="759" 
d="M759 421l-235 -171l90 -275l-235 170l-234 -170l89 275l-234 171h290l89 276l90 -276h290z" />
    </font>
</defs>
</svg>
